<?xml version="1.0" encoding="UTF-8"?>
<svg width="220px" height="197px" viewBox="0 0 220 197" version="1.1" xmlns="http://www.w3.org/2000/svg" xmlns:xlink="http://www.w3.org/1999/xlink">
    <title>Agile Process 2</title>
    <g id="Page-1" stroke="none" stroke-width="1" fill="none" fill-rule="evenodd">
        <g id="Benefits-design" transform="translate(-584.000000, -1722.000000)">
            <g id="Agile-Process" transform="translate(584.000000, 1722.000000)">
                <polyline id="Fill-131" fill="#F49D64" points="116.546968 20.0621053 119.370126 26.2084211 119.144863 29.8894737 115.720652 28.5905263 112.013284 22.6715789 116.546968 20.0621053"></polyline>
                <path d="M119.370126,26.2084211 C124.678547,27.9515789 130.281705,26.2315789 130.737494,27.6736842 C131.166968,29.0305263 119.544863,34.2989474 117.405915,32.2231579 C115.630126,30.4989474 115.720652,28.5905263 115.720652,28.5905263 C118.405915,28.9115789 119.370126,26.2084211 119.370126,26.2084211" id="Fill-132" fill="#61557D"></path>
                <polygon id="Fill-134" fill="#C8D1F3" points="58.2185469 153.251579 65.5269679 153.251579 65.5269679 114.457895 58.2185469 114.457895"></polygon>
                <polygon id="Fill-135" fill="#97A8E0" points="58.2185469 124.898947 65.5269679 124.898947 65.5269679 98.3273684 58.2185469 98.3273684"></polygon>
                <polygon id="Fill-136" fill="#97A8E0" points="51.3122311 156.013684 72.8080206 156.013684 72.8080206 152.358947 51.3122311 152.358947"></polygon>
                <polygon id="Fill-137" fill="#C8D1F3" points="156.476442 153.251579 163.785915 153.251579 163.785915 114.457895 156.476442 114.457895"></polygon>
                <polygon id="Fill-138" fill="#97A8E0" points="156.476442 124.898947 163.785915 124.898947 163.785915 98.3273684 156.476442 98.3273684"></polygon>
                <polygon id="Fill-139" fill="#97A8E0" points="149.571178 156.013684 171.066968 156.013684 171.066968 152.358947 149.571178 152.358947"></polygon>
                <path d="M219.958958,111.965441 L219.542031,9.96544096 C219.519522,4.45859537 215.049006,0.00631578947 209.542115,0.00631578947 L10.0410988,0.00631578947 C4.51825129,0.00631578947 0.0410987881,4.48346829 0.0410987881,10.0063158 C0.0410987881,10.0199873 0.0411268246,10.0336588 0.0411828973,10.0473301 L0.459532616,112.04733 C0.482118541,117.554121 4.95261135,122.006316 10.4594485,122.006316 L209.959041,122.006316 C215.481889,122.006316 219.959041,117.529163 219.959041,112.006316 C219.959041,111.992691 219.959013,111.979066 219.958958,111.965441 Z" id="Fill-140" fill="#E8ECFA"></path>
                <polygon id="Fill-141" fill="#C8D1F3" points="109 112 111 112 111 30 109 30"></polygon>
                <polygon id="Fill-142" fill="#C8D1F3" points="56 112 58 112 58 30 56 30"></polygon>
                <polygon id="Fill-143" fill="#C8D1F3" points="162 112 164 112 164 30 162 30"></polygon>
                <polygon id="Fill-144" fill="#5C9EFF" points="17.4901258 77.5568421 35.6574942 77.5568421 35.6574942 59.3894737 17.4901258 59.3894737"></polygon>
                <polygon id="Fill-145" fill="#FCFDFE" points="20.4480206 65.8115789 32.6995995 65.8115789 32.6995995 64.6410526 20.4480206 64.6410526"></polygon>
                <polygon id="Fill-146" fill="#FCFDFE" points="20.4480206 68.2578947 32.6995995 68.2578947 32.6995995 67.0873684 20.4480206 67.0873684"></polygon>
                <polygon id="Fill-147" fill="#FCFDFE" points="20.4480206 63.3663158 32.6995995 63.3663158 32.6995995 62.1957895 20.4480206 62.1957895"></polygon>
                <polygon id="Fill-148" fill="#FCFDFE" points="126.340652 72.7368421 144.506968 72.7368421 144.506968 54.5694737 126.340652 54.5694737"></polygon>
                <polygon id="Fill-149" fill="#AEBBED" points="129.211178 57.7557895 141.46381 57.7557895 141.46381 56.5852632 129.211178 56.5852632"></polygon>
                <path d="M16.312,38 C16.88,38 17.336,37.832 17.672,37.504 C18.008,37.168 18.176,36.76 18.176,36.28 C18.176,35.568 17.784,34.952 17.056,34.76 C17.544,34.592 17.864,34.096 17.864,33.56 C17.864,33.168 17.72,32.824 17.424,32.528 C17.128,32.232 16.72,32.088 16.192,32.088 L13.68,32.088 L13.68,38 L16.312,38 Z M15.976,34.424 L14.76,34.424 L14.76,33.056 L16.016,33.056 C16.488,33.056 16.768,33.36 16.768,33.72 C16.768,34.104 16.488,34.424 15.976,34.424 Z M16.104,37.024 L14.76,37.024 L14.76,35.352 L16.104,35.352 C16.712,35.352 17.048,35.728 17.048,36.2 C17.048,36.64 16.704,37.024 16.104,37.024 Z M20.644,38.104 C21.212,38.104 21.684,37.888 22.06,37.464 L22.06,38 L23.052,38 L23.052,33.656 L22.06,33.656 L22.06,34.208 C21.668,33.768 21.196,33.552 20.644,33.552 C20.028,33.552 19.508,33.768 19.1,34.192 C18.692,34.616 18.492,35.16 18.492,35.808 C18.492,36.456 18.692,37.008 19.1,37.448 C19.508,37.888 20.02,38.104 20.644,38.104 Z M20.804,37.152 C20.428,37.152 20.124,37.024 19.884,36.768 C19.652,36.512 19.532,36.2 19.532,35.824 C19.532,35.456 19.652,35.144 19.884,34.888 C20.124,34.632 20.428,34.504 20.804,34.504 C21.18,34.504 21.484,34.632 21.724,34.888 C21.964,35.144 22.084,35.456 22.084,35.824 C22.084,36.2 21.964,36.512 21.724,36.768 C21.484,37.024 21.18,37.152 20.804,37.152 Z M25.88,38.096 C26.768,38.096 27.536,37.648 27.912,36.952 L27.064,36.456 C26.848,36.864 26.376,37.136 25.896,37.136 C25.528,37.136 25.224,37.008 24.984,36.76 C24.744,36.512 24.624,36.2 24.624,35.824 C24.624,35.448 24.744,35.136 24.992,34.888 C25.24,34.64 25.552,34.512 25.928,34.512 C26.408,34.512 26.824,34.776 27.08,35.2 L27.928,34.744 C27.576,33.984 26.8,33.552 25.912,33.552 C25.224,33.552 24.664,33.768 24.232,34.192 C23.8,34.616 23.584,35.16 23.584,35.824 C23.584,36.488 23.8,37.032 24.224,37.456 C24.656,37.88 25.208,38.096 25.88,38.096 Z M29.372,38 L29.372,36.392 L29.692,36.104 L31.18,38 L32.476,38 L30.412,35.448 L32.372,33.656 L31.044,33.656 L29.372,35.208 L29.372,31.92 L28.332,31.92 L28.332,38 L29.372,38 Z M33.664,38 L33.664,31.92 L32.624,31.92 L32.624,38 L33.664,38 Z M36.508,38.112 C37.188,38.112 37.74,37.896 38.172,37.456 C38.612,37.016 38.828,36.472 38.828,35.824 C38.828,35.184 38.612,34.648 38.172,34.208 C37.74,33.768 37.188,33.544 36.508,33.544 C35.828,33.544 35.276,33.768 34.836,34.208 C34.404,34.648 34.188,35.184 34.188,35.824 C34.188,36.472 34.404,37.016 34.836,37.456 C35.276,37.896 35.828,38.112 36.508,38.112 Z M36.508,37.144 C36.148,37.144 35.852,37.016 35.604,36.76 C35.356,36.504 35.236,36.192 35.236,35.824 C35.236,35.464 35.356,35.152 35.604,34.896 C35.852,34.64 36.148,34.512 36.508,34.512 C36.868,34.512 37.164,34.64 37.412,34.896 C37.66,35.152 37.78,35.464 37.78,35.824 C37.78,36.192 37.66,36.504 37.412,36.76 C37.164,37.016 36.868,37.144 36.508,37.144 Z M41.28,39.84 C41.992,39.84 42.568,39.632 43.008,39.224 C43.448,38.816 43.672,38.264 43.672,37.568 L43.672,33.656 L42.696,33.656 L42.696,34.176 C42.336,33.76 41.872,33.552 41.32,33.552 C40.696,33.552 40.168,33.76 39.744,34.184 C39.32,34.6 39.112,35.136 39.112,35.784 C39.112,36.424 39.312,36.952 39.72,37.376 C40.128,37.8 40.648,38.008 41.28,38.008 C41.848,38.008 42.312,37.808 42.664,37.416 L42.664,37.672 C42.664,38.416 42.144,38.936 41.256,38.936 C40.728,38.936 40.216,38.768 39.728,38.424 L39.304,39.216 C39.888,39.632 40.544,39.84 41.28,39.84 Z M41.432,37.096 C41.064,37.096 40.76,36.976 40.52,36.728 C40.28,36.48 40.16,36.168 40.16,35.792 C40.16,35.416 40.28,35.112 40.52,34.872 C40.76,34.624 41.064,34.504 41.432,34.504 C41.792,34.504 42.096,34.624 42.336,34.872 C42.576,35.112 42.696,35.416 42.696,35.792 C42.696,36.168 42.576,36.48 42.336,36.728 C42.096,36.976 41.792,37.096 41.432,37.096 Z" id="Backlog" fill="#001E65" fill-rule="nonzero"></path>
                <path d="M75.92,38 L75.92,33.144 L77.624,33.144 L77.624,32.088 L73.112,32.088 L73.112,33.144 L74.816,33.144 L74.816,38 L75.92,38 Z M79.38,38.112 C80.06,38.112 80.612,37.896 81.044,37.456 C81.484,37.016 81.7,36.472 81.7,35.824 C81.7,35.184 81.484,34.648 81.044,34.208 C80.612,33.768 80.06,33.544 79.38,33.544 C78.7,33.544 78.148,33.768 77.708,34.208 C77.276,34.648 77.06,35.184 77.06,35.824 C77.06,36.472 77.276,37.016 77.708,37.456 C78.148,37.896 78.7,38.112 79.38,38.112 Z M79.38,37.144 C79.02,37.144 78.724,37.016 78.476,36.76 C78.228,36.504 78.108,36.192 78.108,35.824 C78.108,35.464 78.228,35.152 78.476,34.896 C78.724,34.64 79.02,34.512 79.38,34.512 C79.74,34.512 80.036,34.64 80.284,34.896 C80.532,35.152 80.652,35.464 80.652,35.824 C80.652,36.192 80.532,36.504 80.284,36.76 C80.036,37.016 79.74,37.144 79.38,37.144 Z M85.416,36.272 L85.416,35.296 L82.176,35.296 L82.176,36.272 L85.416,36.272 Z M88.524,38 C89.412,38 90.116,37.736 90.62,37.208 C91.132,36.68 91.388,35.96 91.388,35.056 C91.388,34.136 91.14,33.416 90.636,32.888 C90.132,32.352 89.444,32.088 88.572,32.088 L86.292,32.088 L86.292,38 L88.524,38 Z M88.564,36.952 L87.38,36.952 L87.38,33.136 L88.572,33.136 C89.108,33.136 89.516,33.32 89.812,33.68 C90.108,34.04 90.252,34.488 90.252,35.032 C90.252,35.584 90.1,36.048 89.804,36.408 C89.508,36.768 89.1,36.952 88.564,36.952 Z M94.056,38.112 C94.736,38.112 95.288,37.896 95.72,37.456 C96.16,37.016 96.376,36.472 96.376,35.824 C96.376,35.184 96.16,34.648 95.72,34.208 C95.288,33.768 94.736,33.544 94.056,33.544 C93.376,33.544 92.824,33.768 92.384,34.208 C91.952,34.648 91.736,35.184 91.736,35.824 C91.736,36.472 91.952,37.016 92.384,37.456 C92.824,37.896 93.376,38.112 94.056,38.112 Z M94.056,37.144 C93.696,37.144 93.4,37.016 93.152,36.76 C92.904,36.504 92.784,36.192 92.784,35.824 C92.784,35.464 92.904,35.152 93.152,34.896 C93.4,34.64 93.696,34.512 94.056,34.512 C94.416,34.512 94.712,34.64 94.96,34.896 C95.208,35.152 95.328,35.464 95.328,35.824 C95.328,36.192 95.208,36.504 94.96,36.76 C94.712,37.016 94.416,37.144 94.056,37.144 Z" id="To-Do" fill="#001E65" fill-rule="nonzero"></path>
                <path d="M118.854,38 L118.854,32.088 L117.758,32.088 L117.758,38 L118.854,38 Z M120.778,38 L120.778,35.656 C120.778,34.976 121.218,34.496 121.834,34.496 C122.41,34.496 122.786,34.912 122.786,35.64 L122.786,38 L123.834,38 L123.834,35.352 C123.834,34.768 123.666,34.328 123.338,34.016 C123.01,33.704 122.602,33.544 122.13,33.544 C121.498,33.544 120.994,33.824 120.762,34.264 L120.762,33.656 L119.738,33.656 L119.738,38 L120.778,38 Z M127.45,38 L127.45,35.912 L128.41,35.912 C129.122,35.912 129.65,35.728 130.002,35.368 C130.362,35.008 130.538,34.552 130.538,34.016 C130.538,33.48 130.37,33.032 130.026,32.656 C129.682,32.28 129.178,32.088 128.498,32.088 L126.362,32.088 L126.362,38 L127.45,38 Z M128.442,34.912 L127.45,34.912 L127.45,33.104 L128.522,33.104 C129.09,33.104 129.426,33.496 129.426,34 C129.426,34.504 129.082,34.912 128.442,34.912 Z M132.006,38 L132.006,35.88 C132.006,34.976 132.454,34.544 133.102,34.544 C133.262,34.544 133.43,34.576 133.606,34.632 L133.694,33.632 C133.534,33.576 133.358,33.544 133.174,33.544 C132.638,33.544 132.23,33.784 131.966,34.256 L131.966,33.656 L130.966,33.656 L130.966,38 L132.006,38 Z M135.89,38.112 C136.57,38.112 137.122,37.896 137.554,37.456 C137.994,37.016 138.21,36.472 138.21,35.824 C138.21,35.184 137.994,34.648 137.554,34.208 C137.122,33.768 136.57,33.544 135.89,33.544 C135.21,33.544 134.658,33.768 134.218,34.208 C133.786,34.648 133.57,35.184 133.57,35.824 C133.57,36.472 133.786,37.016 134.218,37.456 C134.658,37.896 135.21,38.112 135.89,38.112 Z M135.89,37.144 C135.53,37.144 135.234,37.016 134.986,36.76 C134.738,36.504 134.618,36.192 134.618,35.824 C134.618,35.464 134.738,35.152 134.986,34.896 C135.234,34.64 135.53,34.512 135.89,34.512 C136.25,34.512 136.546,34.64 136.794,34.896 C137.042,35.152 137.162,35.464 137.162,35.824 C137.162,36.192 137.042,36.504 136.794,36.76 C136.546,37.016 136.25,37.144 135.89,37.144 Z M140.662,39.84 C141.374,39.84 141.95,39.632 142.39,39.224 C142.83,38.816 143.054,38.264 143.054,37.568 L143.054,33.656 L142.078,33.656 L142.078,34.176 C141.718,33.76 141.254,33.552 140.702,33.552 C140.078,33.552 139.55,33.76 139.126,34.184 C138.702,34.6 138.494,35.136 138.494,35.784 C138.494,36.424 138.694,36.952 139.102,37.376 C139.51,37.8 140.03,38.008 140.662,38.008 C141.23,38.008 141.694,37.808 142.046,37.416 L142.046,37.672 C142.046,38.416 141.526,38.936 140.638,38.936 C140.11,38.936 139.598,38.768 139.11,38.424 L138.686,39.216 C139.27,39.632 139.926,39.84 140.662,39.84 Z M140.814,37.096 C140.446,37.096 140.142,36.976 139.902,36.728 C139.662,36.48 139.542,36.168 139.542,35.792 C139.542,35.416 139.662,35.112 139.902,34.872 C140.142,34.624 140.446,34.504 140.814,34.504 C141.174,34.504 141.478,34.624 141.718,34.872 C141.958,35.112 142.078,35.416 142.078,35.792 C142.078,36.168 141.958,36.48 141.718,36.728 C141.478,36.976 141.174,37.096 140.814,37.096 Z M144.85,38 L144.85,35.88 C144.85,34.976 145.298,34.544 145.946,34.544 C146.106,34.544 146.274,34.576 146.45,34.632 L146.538,33.632 C146.378,33.576 146.202,33.544 146.018,33.544 C145.482,33.544 145.074,33.784 144.81,34.256 L144.81,33.656 L143.81,33.656 L143.81,38 L144.85,38 Z M148.774,38.096 C149.494,38.096 150.126,37.896 150.662,37.496 L150.246,36.752 C149.822,37.048 149.342,37.2 148.814,37.2 C148.07,37.2 147.622,36.8 147.486,36.2 L150.798,36.2 C150.822,36.008 150.83,35.856 150.83,35.736 C150.83,35.064 150.63,34.536 150.222,34.144 C149.822,33.752 149.31,33.552 148.678,33.552 C148.014,33.552 147.47,33.768 147.046,34.2 C146.63,34.624 146.422,35.168 146.422,35.824 C146.422,36.976 147.142,38.096 148.774,38.096 Z M149.806,35.408 L147.486,35.408 C147.622,34.8 148.07,34.424 148.678,34.424 C149.278,34.424 149.718,34.8 149.806,35.408 Z M152.722,38.112 C153.226,38.112 153.634,37.984 153.946,37.72 C154.258,37.456 154.41,37.128 154.41,36.736 C154.41,36.264 154.162,35.896 153.674,35.632 C153.602,35.592 153.25,35.448 152.626,35.2 C152.378,35.112 152.25,34.968 152.25,34.776 C152.25,34.544 152.45,34.368 152.778,34.368 C153.146,34.368 153.474,34.52 153.754,34.816 L154.298,34.152 C153.922,33.728 153.426,33.512 152.81,33.512 C152.338,33.512 151.954,33.632 151.666,33.872 C151.378,34.112 151.234,34.424 151.234,34.8 C151.234,35.296 151.474,35.664 151.962,35.904 C152.058,35.952 152.242,36.032 152.514,36.136 C152.794,36.24 152.97,36.312 153.042,36.352 C153.258,36.456 153.37,36.6 153.37,36.768 C153.37,37.024 153.106,37.224 152.73,37.224 C152.306,37.224 151.85,36.992 151.562,36.608 L150.97,37.248 C151.378,37.816 152.018,38.112 152.722,38.112 Z M156.262,38.112 C156.766,38.112 157.174,37.984 157.486,37.72 C157.798,37.456 157.95,37.128 157.95,36.736 C157.95,36.264 157.702,35.896 157.214,35.632 C157.142,35.592 156.79,35.448 156.166,35.2 C155.918,35.112 155.79,34.968 155.79,34.776 C155.79,34.544 155.99,34.368 156.318,34.368 C156.686,34.368 157.014,34.52 157.294,34.816 L157.838,34.152 C157.462,33.728 156.966,33.512 156.35,33.512 C155.878,33.512 155.494,33.632 155.206,33.872 C154.918,34.112 154.774,34.424 154.774,34.8 C154.774,35.296 155.014,35.664 155.502,35.904 C155.598,35.952 155.782,36.032 156.054,36.136 C156.334,36.24 156.51,36.312 156.582,36.352 C156.798,36.456 156.91,36.6 156.91,36.768 C156.91,37.024 156.646,37.224 156.27,37.224 C155.846,37.224 155.39,36.992 155.102,36.608 L154.51,37.248 C154.918,37.816 155.558,38.112 156.262,38.112 Z" id="InProgress" fill="#001E65" fill-rule="nonzero"></path>
                <path d="M173.39,38.088 C174.478,38.088 175.438,37.576 175.99,36.832 L175.23,36.144 C174.766,36.744 174.174,37.04 173.446,37.04 C172.886,37.04 172.414,36.856 172.038,36.48 C171.662,36.104 171.478,35.632 171.478,35.064 C171.478,34.48 171.67,34 172.046,33.616 C172.43,33.232 172.902,33.04 173.454,33.04 C174.142,33.04 174.726,33.336 175.206,33.936 L175.95,33.224 C175.43,32.48 174.47,31.984 173.406,31.984 C172.558,31.984 171.838,32.272 171.238,32.856 C170.646,33.432 170.35,34.168 170.35,35.064 C170.35,35.952 170.638,36.68 171.222,37.248 C171.806,37.808 172.534,38.088 173.39,38.088 Z M178.426,38.112 C179.106,38.112 179.658,37.896 180.09,37.456 C180.53,37.016 180.746,36.472 180.746,35.824 C180.746,35.184 180.53,34.648 180.09,34.208 C179.658,33.768 179.106,33.544 178.426,33.544 C177.746,33.544 177.194,33.768 176.754,34.208 C176.322,34.648 176.106,35.184 176.106,35.824 C176.106,36.472 176.322,37.016 176.754,37.456 C177.194,37.896 177.746,38.112 178.426,38.112 Z M178.426,37.144 C178.066,37.144 177.77,37.016 177.522,36.76 C177.274,36.504 177.154,36.192 177.154,35.824 C177.154,35.464 177.274,35.152 177.522,34.896 C177.77,34.64 178.066,34.512 178.426,34.512 C178.786,34.512 179.082,34.64 179.33,34.896 C179.578,35.152 179.698,35.464 179.698,35.824 C179.698,36.192 179.578,36.504 179.33,36.76 C179.082,37.016 178.786,37.144 178.426,37.144 Z M182.302,38 L182.302,35.616 C182.302,34.936 182.726,34.496 183.31,34.496 C183.862,34.496 184.23,34.904 184.23,35.584 L184.23,38 L185.27,38 L185.27,35.608 C185.27,34.936 185.686,34.496 186.27,34.496 C186.814,34.496 187.174,34.872 187.174,35.576 L187.174,38 L188.222,38 L188.222,35.384 C188.222,34.808 188.054,34.36 187.726,34.032 C187.398,33.704 186.982,33.536 186.462,33.536 C185.798,33.536 185.214,33.824 184.902,34.312 C184.67,33.808 184.174,33.544 183.606,33.536 C183.038,33.536 182.534,33.824 182.286,34.28 L182.286,33.656 L181.262,33.656 L181.262,38 L182.302,38 Z M189.978,39.784 L189.978,37.456 C190.354,37.888 190.826,38.104 191.378,38.104 C191.994,38.104 192.506,37.888 192.914,37.448 C193.322,37.008 193.53,36.464 193.53,35.824 C193.53,35.192 193.33,34.656 192.922,34.216 C192.514,33.776 192.002,33.552 191.386,33.552 C190.818,33.552 190.346,33.776 189.97,34.232 L189.97,33.656 L188.93,33.656 L188.93,39.784 L189.978,39.784 Z M191.218,37.152 C190.842,37.152 190.538,37.024 190.306,36.776 C190.074,36.52 189.954,36.208 189.954,35.832 C189.954,35.464 190.074,35.152 190.306,34.896 C190.538,34.64 190.842,34.512 191.218,34.512 C191.594,34.512 191.898,34.64 192.13,34.896 C192.362,35.144 192.482,35.456 192.482,35.832 C192.482,36.208 192.362,36.52 192.13,36.776 C191.898,37.024 191.594,37.152 191.218,37.152 Z M195.094,38 L195.094,31.92 L194.054,31.92 L194.054,38 L195.094,38 Z M197.978,38.096 C198.698,38.096 199.33,37.896 199.866,37.496 L199.45,36.752 C199.026,37.048 198.546,37.2 198.018,37.2 C197.274,37.2 196.826,36.8 196.69,36.2 L200.002,36.2 C200.026,36.008 200.034,35.856 200.034,35.736 C200.034,35.064 199.834,34.536 199.426,34.144 C199.026,33.752 198.514,33.552 197.882,33.552 C197.218,33.552 196.674,33.768 196.25,34.2 C195.834,34.624 195.626,35.168 195.626,35.824 C195.626,36.976 196.346,38.096 197.978,38.096 Z M199.01,35.408 L196.69,35.408 C196.826,34.8 197.274,34.424 197.882,34.424 C198.482,34.424 198.922,34.8 199.01,35.408 Z M202.294,38.104 C202.782,38.104 203.206,37.984 203.55,37.744 L203.222,36.928 C202.974,37.08 202.726,37.152 202.486,37.152 C202.062,37.152 201.854,36.888 201.854,36.368 L201.854,34.536 L203.31,34.536 L203.31,33.656 L201.854,33.656 L201.854,32.12 L200.822,32.12 L200.822,33.656 L200.086,33.656 L200.086,34.536 L200.806,34.536 L200.806,36.408 C200.806,37.52 201.31,38.104 202.294,38.104 Z M205.858,38.096 C206.578,38.096 207.21,37.896 207.746,37.496 L207.33,36.752 C206.906,37.048 206.426,37.2 205.898,37.2 C205.154,37.2 204.706,36.8 204.57,36.2 L207.882,36.2 C207.906,36.008 207.914,35.856 207.914,35.736 C207.914,35.064 207.714,34.536 207.306,34.144 C206.906,33.752 206.394,33.552 205.762,33.552 C205.098,33.552 204.554,33.768 204.13,34.2 C203.714,34.624 203.506,35.168 203.506,35.824 C203.506,36.976 204.226,38.096 205.858,38.096 Z M206.89,35.408 L204.57,35.408 C204.706,34.8 205.154,34.424 205.762,34.424 C206.362,34.424 206.802,34.8 206.89,35.408 Z M210.35,38.104 C210.91,38.104 211.374,37.88 211.734,37.432 L211.734,38 L212.75,38 L212.75,31.92 L211.71,31.92 L211.71,34.208 C211.35,33.768 210.894,33.552 210.342,33.552 C209.734,33.552 209.222,33.768 208.806,34.208 C208.398,34.648 208.19,35.184 208.19,35.824 C208.19,36.472 208.398,37.016 208.806,37.456 C209.214,37.888 209.734,38.104 210.35,38.104 Z M210.494,37.152 C210.118,37.152 209.814,37.024 209.582,36.768 C209.35,36.512 209.23,36.2 209.23,35.824 C209.23,35.456 209.35,35.144 209.582,34.888 C209.814,34.632 210.118,34.504 210.494,34.504 C210.87,34.504 211.174,34.632 211.406,34.888 C211.646,35.144 211.766,35.456 211.766,35.824 C211.766,36.2 211.646,36.512 211.414,36.768 C211.182,37.024 210.87,37.152 210.494,37.152 Z" id="Completed" fill="#001E65" fill-rule="nonzero"></path>
                <polygon id="Fill-150" fill="#AEBBED" points="129.211178 62.2578947 131.776442 62.2578947 131.776442 61.0873684 129.211178 61.0873684"></polygon>
                <polygon id="Fill-151" fill="#AEBBED" points="134.125915 62.2578947 141.46381 62.2578947 141.46381 61.0873684 134.125915 61.0873684"></polygon>
                <polygon id="Fill-152" fill="#FC949B" points="76.3722311 71.5168421 94.5395995 71.5168421 94.5395995 53.3494737 76.3722311 53.3494737"></polygon>
                <polygon id="Fill-153" fill="#FCFDFE" points="76.3722311 102.476842 94.5395995 102.476842 94.5395995 84.3094737 76.3722311 84.3094737"></polygon>
                <polygon id="Fill-154" fill="#AEBBED" points="79.3290732 87.68 91.5817048 87.68 91.5817048 86.5094737 79.3290732 86.5094737"></polygon>
                <polygon id="Fill-155" fill="#AEBBED" points="79.3290732 94.5642105 91.5817048 94.5642105 91.5817048 93.3926316 79.3290732 93.3926316"></polygon>
                <polygon id="Fill-156" fill="#AEBBED" points="79.3290732 92.1821053 91.5817048 92.1821053 91.5817048 91.0115789 79.3290732 91.0115789"></polygon>
                <polygon id="Fill-157" fill="#FCFDFE" points="79.3290732 57.8810526 91.5817048 57.8810526 91.5817048 56.6694737 79.3290732 56.6694737"></polygon>
                <polygon id="Fill-158" fill="#FCFDFE" points="87.1280206 60.7147368 91.5817048 60.7147368 91.5817048 59.5442105 87.1280206 59.5442105"></polygon>
                <polygon id="Fill-159" fill="#FCFDFE" points="79.3290732 63.6736842 83.7711785 63.6736842 83.7711785 62.5031579 79.3290732 62.5031579"></polygon>
                <g id="logo" transform="translate(88.000000, 9.000000)" fill-rule="nonzero">
                    <g id="Group_8887" fill="#42275E">
                        <path d="M0.963800676,8.6627389 C0.604468193,8.45153469 0.305455146,8.14296153 0.0978293919,7.7690806 C0.0373852722,7.67647416 0.00334714297,7.56763101 -0.000278968792,7.45536197 C-0.000422467881,7.30948271 0.0608016644,7.17101281 0.166951014,7.07714044 C0.258515594,6.98107329 0.380862849,6.92440635 0.510050676,6.91822876 C0.707781065,6.93852373 0.888452416,7.04481952 1.00839527,7.21142375 C1.25323679,7.63756521 1.69514359,7.8944573 2.16841216,7.8857722 C2.55260031,7.89484302 2.92391072,7.73989367 3.19771115,7.45624155 C3.47297692,7.18243145 3.62568761,6.79918603 3.61829392,6.40073962 L3.61829392,1.29416264 C3.6170989,1.14318325 3.67808501,0.999050087 3.78552365,0.898935811 C3.88982503,0.793637317 4.02893441,0.735081954 4.17349662,0.735626207 C4.31753049,0.727966262 4.45806528,0.783904884 4.5612002,0.889948168 C4.66433512,0.995991453 4.72070595,1.14251111 4.71671453,1.29416264 L4.71671453,6.39839406 C4.72055872,6.85583515 4.60620877,7.30578337 4.38587838,7.70017978 C4.16646692,8.09282359 3.85222281,8.41742403 3.47503378,8.64104247 C3.07876786,8.87530449 2.63073058,8.99535755 2.17621622,8.98906491 C1.75189621,8.99376021 1.33383399,8.88123726 0.963800676,8.6627389 Z" id="Path_1625"></path>
                        <path d="M11.4853378,2.85806467 C11.5873123,2.96798095 11.6419236,3.11711334 11.636402,3.27059001 L11.636402,8.31354368 C11.6398821,8.46153833 11.5852382,8.60450209 11.4853378,8.70877051 C11.3864084,8.81734616 11.2483493,8.8766959 11.1054476,8.87208012 C10.9642125,8.87904027 10.8270825,8.8210392 10.7297382,8.71316844 C10.6333255,8.6053474 10.5818511,8.46147947 10.5867568,8.31354368 L10.5867568,8.01389841 C10.3762831,8.30174089 10.108617,8.53778408 9.80244932,8.70554537 C9.47424069,8.89351259 9.10614969,8.991047 8.73245777,8.98906491 C8.24980796,8.9941108 7.77604682,8.85238783 7.36814189,8.5809375 C6.95358717,8.30473399 6.62101739,7.91171578 6.40824324,7.44656612 C5.94535563,6.41258844 5.94535563,5.2152313 6.40824324,4.18125362 C6.62203497,3.71818421 6.95263384,3.3257861 7.36396115,3.04688224 C8.09303161,2.56203221 9.00776971,2.50522694 9.78600507,2.89647321 C10.0954169,3.04737457 10.3688947,3.26904781 10.586478,3.54531371 L10.586478,3.26648528 C10.5830933,3.11627035 10.6342186,2.97033773 10.7294595,2.85835787 C10.8262653,2.74919527 10.9633477,2.68960967 11.1051689,2.69504826 C11.2479853,2.69107959 11.3858568,2.75019888 11.4853378,2.85806467 Z M9.76983953,7.6872792 C10.0428906,7.49680825 10.2605912,7.23066185 10.398902,6.91822876 C10.6983836,6.22031941 10.6983836,5.42069411 10.398902,4.72278475 C10.2595775,4.40986035 10.0421704,4.14255278 9.76983953,3.94933639 C9.49643711,3.7588845 9.17459824,3.66003626 8.84673142,3.66581684 C8.51950714,3.66067878 8.19820971,3.75793202 7.92362331,3.94523166 C7.65056253,4.13569108 7.43285935,4.40184067 7.29456081,4.71428209 C6.99498969,5.41666956 6.99498969,6.22023923 7.29456081,6.92262669 C7.43399539,7.23429506 7.65145865,7.50015133 7.92362331,7.69167712 C8.19821675,7.87896052 8.51950938,7.97621231 8.84673142,7.97109194 C9.17405836,7.97274227 9.49477956,7.87423731 9.76983953,7.68757239 L9.76983953,7.6872792 Z" id="Path_1626"></path>
                        <path d="M21.7657855,5.20831564 L21.7657855,8.31031853 C21.7706912,8.45825432 21.7192168,8.60212225 21.6228041,8.70994329 C21.411178,8.92347779 21.0765713,8.92153023 20.8672044,8.70554537 C20.7689076,8.60016576 20.7145487,8.45794731 20.7161402,8.31031853 L20.7161402,5.21711149 C20.7161402,4.20304778 20.3104223,3.69601593 19.4989865,3.69601593 C19.2268053,3.69291664 18.9583153,3.76241645 18.7185811,3.89802727 C18.2586291,4.16105792 17.9754151,4.67085307 17.9833277,5.22150941 L17.9833277,8.31471646 C17.9868077,8.46271111 17.9321639,8.60567487 17.8322635,8.70994329 C17.7333341,8.81851894 17.595275,8.87786868 17.4523733,8.8732529 C17.3111381,8.88021305 17.1740082,8.82221198 17.0766639,8.71434122 C16.9802511,8.60652018 16.9287768,8.46265225 16.9336824,8.31471646 L16.9336824,5.21271356 C16.9508334,4.82465602 16.8534803,4.4405146 16.6549662,4.11293919 C16.4349411,3.81994394 16.0885109,3.66456571 15.7352027,3.70041385 C15.3350868,3.68775461 14.9467853,3.84400686 14.6568497,4.13434242 C14.3788666,4.41432216 14.224854,4.80383434 14.2320861,5.20860883 L14.2320861,8.31061173 C14.2355994,8.4586127 14.1809505,8.60158979 14.081022,8.70583856 C13.9820926,8.81441421 13.8440334,8.87381454 13.7011318,8.86914817 C13.5598966,8.87610832 13.4227666,8.81810726 13.3254223,8.71023649 C13.2290096,8.60241545 13.1775352,8.45854752 13.1824409,8.31061173 L13.1824409,3.33949083 C13.1789276,3.19148986 13.2335765,3.04851277 13.3335051,2.944264 C13.430124,2.83729225 13.5650694,2.77801998 13.7053125,2.78095439 C13.8482141,2.77633861 13.9862733,2.83568835 14.0852027,2.944264 C14.1834995,3.0496436 14.2378584,3.19186205 14.2362669,3.33949083 L14.2362669,3.74761824 C14.4370227,3.43875904 14.6989805,3.17929687 15.0041301,2.98707046 C15.3181355,2.78259457 15.6805803,2.6753869 16.0498733,2.67771153 C16.9648057,2.67771153 17.5583784,3.10454392 17.8305912,3.95813224 C18.0257646,3.5981442 18.3020957,3.29416736 18.6352449,3.07297659 C18.9860243,2.81820793 19.4016156,2.68048431 19.8278716,2.67771153 C21.1198142,2.67771153 21.7657855,3.52127172 21.7657855,5.20831564 Z" id="Path_1627"></path>
                        <path d="M22.9051774,7.60606419 C22.9108769,7.44030529 22.9993635,7.29003426 23.1379054,7.21083736 C23.2117889,7.15585892 23.3005006,7.12728733 23.3909797,7.12932915 C23.5294485,7.1338035 23.6602382,7.19730379 23.7533108,7.30524614 C23.9518277,7.54904123 24.1931336,7.75032239 24.4640372,7.89808639 C24.7489682,8.03739499 25.0608051,8.10504996 25.3748818,8.09569981 C25.6332267,8.0926698 25.8869606,8.02332426 26.1140372,7.89368847 C26.3254001,7.76784924 26.4493037,7.52552845 26.4326098,7.27064913 C26.4384926,7.02075181 26.3128772,6.78781409 26.1059544,6.6649083 C25.8054063,6.49257989 25.4838491,6.36433846 25.1502365,6.28375483 C24.7986367,6.19029233 24.4544952,6.06814893 24.1209375,5.91843388 C23.8515486,5.79321218 23.6147573,5.60164153 23.4305574,5.35989744 C23.2331664,5.08491437 23.1334774,4.74593563 23.1487753,4.40173625 C23.1436806,4.07093759 23.2427546,3.74765762 23.4305574,3.48227679 C23.6263805,3.21184292 23.8857196,2.99965633 24.1830912,2.86656733 C24.505149,2.71880436 24.8532453,2.64426965 25.2045861,2.64784387 C25.5652759,2.6481748 25.9227152,2.71957744 26.2584122,2.85835787 C26.5945187,2.98524088 26.8911347,3.20660901 27.116022,3.49840251 C27.2069838,3.592377 27.2543693,3.72347092 27.2457428,3.85728003 C27.2371163,3.99108913 27.173339,4.11425258 27.0711486,4.19444739 C26.9939151,4.2645473 26.8943782,4.30140437 26.7924324,4.29765203 C26.6723289,4.30247035 26.5561314,4.25231497 26.4738598,4.16014358 C26.3182891,3.97322198 26.1240709,3.82628508 25.9061149,3.73061293 C25.6689832,3.62849513 25.4148159,3.57735374 25.158598,3.58020391 C24.9093425,3.57196399 24.6625515,3.63423425 24.4439696,3.76051882 C24.2434698,3.88836994 24.1294494,4.12495999 24.149924,4.37065758 C24.146663,4.62326158 24.2773187,4.85677916 24.4888429,4.97639841 C24.8058783,5.14704028 25.1420425,5.2750947 25.4894341,5.35755188 C25.8224432,5.44377625 26.147716,5.56022003 26.4615963,5.70557432 C26.7193723,5.83109134 26.9438325,6.02139734 27.1151858,6.25971284 C27.3019114,6.53946478 27.3953121,6.87639024 27.3808024,7.21787403 C27.3886247,7.55981051 27.2831981,7.89397169 27.082576,8.16313465 C26.8774157,8.43589174 26.6085316,8.6480308 26.3021706,8.77884411 C25.9790765,8.92203319 25.6318272,8.99513073 25.2812331,8.99375603 C24.8403509,8.99877573 24.4029522,8.91115742 23.9946791,8.73603764 C23.5987146,8.5632183 23.2534348,8.28296495 22.9940878,7.92388755 C22.9402256,7.82717277 22.9096995,7.71805307 22.9051774,7.60606419 Z" id="Path_1628"></path>
                        <path d="M30.5428378,1.50057191 C30.4253179,1.66485645 30.3648251,1.86652342 30.3714274,2.07200893 L30.3714274,2.88415903 L31.4659459,2.88415903 C31.5999434,2.87839926 31.7301852,2.93150302 31.8254899,3.03075652 C31.9182466,3.12682334 31.9687475,3.25920916 31.964848,3.39607746 C31.9694811,3.53179188 31.9187722,3.66312275 31.8254899,3.75700048 C31.72807,3.85178728 31.5984882,3.90134615 31.4659459,3.89450893 L30.3714274,3.89450893 L30.3714274,8.31061173 C30.3749074,8.45860638 30.3202636,8.60157014 30.2203632,8.70583856 C30.012505,8.92430883 29.6756876,8.92430883 29.4678294,8.70583856 C29.3695326,8.60045896 29.3151737,8.45824051 29.3167652,8.31061173 L29.3167652,3.89802727 L28.6305659,3.89802727 C28.4999405,3.90050323 28.3731664,3.85144774 28.2752027,3.76051882 C28.1816492,3.66722341 28.130007,3.53663075 28.1330574,3.40106178 C28.1297587,3.2635547 28.1816608,3.1309436 28.2760389,3.03574083 C28.3701508,2.93732422 28.498781,2.88426061 28.631402,2.88914334 L29.3176014,2.88914334 L29.3176014,2.07200893 C29.2971961,1.58393555 29.4789936,1.11053784 29.8159459,0.774327944 C30.2083994,0.430537578 30.7113201,0.258316738 31.2209544,0.293194981 C31.4492883,0.287947556 31.6757016,0.33811079 31.8826267,0.439792471 C32.0546997,0.507473122 32.1687062,0.680470071 32.1685895,0.873721042 C32.1738762,1.00828656 32.1283939,1.13959703 32.0420524,1.23904199 C31.9666144,1.33209844 31.8561834,1.38568131 31.739924,1.38563948 C31.6574287,1.37512496 31.5756149,1.35936128 31.4949324,1.33843509 C31.3582547,1.29602834 31.2168174,1.27295636 31.0743497,1.26982746 C30.8723044,1.25296136 30.674769,1.33871713 30.5428378,1.50057191 L30.5428378,1.50057191 Z" id="Path_1629"></path>
                    </g>
                    <g id="Group_8889" transform="translate(14.000000, 10.000000)" fill="#000000">
                        <path d="M0.307621622,3.07297297 C0.203114671,3.00609471 0.108524064,2.91128394 0.0289459459,2.79364865 C0.00995772018,2.77221209 -0.000612258923,2.73899216 0.000567567568,2.70445946 C0.000770046683,2.67309844 0.00976540433,2.64316259 0.0255405405,2.62135135 C0.0391758009,2.59910664 0.0587645934,2.58614563 0.0794594595,2.58567568 C0.101412174,2.58596493 0.122367269,2.59881544 0.137635135,2.62135135 C0.264083618,2.82827413 0.448579378,2.94377909 0.640783784,2.93635135 C0.749982016,2.94218666 0.857669366,2.89847593 0.948405405,2.81148649 C1.01259675,2.74648078 1.0552101,2.6465723 1.06621738,2.53527217 C1.07722467,2.42397204 1.05565384,2.31110919 1.00658108,2.22324324 C0.963114989,2.15033567 0.909215266,2.09158373 0.848513514,2.05094595 C0.782108108,2.01040541 0.698675676,1.96175676 0.599067568,1.91432432 C0.503429686,1.87358386 0.410237918,1.82193117 0.320391892,1.75986486 C0.247825241,1.70614548 0.185122721,1.62879154 0.137351351,1.53405405 C0.0887584704,1.42844307 0.0640883267,1.30403081 0.0666891892,1.1777027 C0.0653068409,1.05436497 0.0915571316,0.933625 0.141608108,0.833108108 C0.194396138,0.728183051 0.266354337,0.646001206 0.349621622,0.595540541 C0.446252771,0.533541594 0.551338514,0.50307393 0.657243243,0.506351351 C0.758192709,0.504350787 0.858445096,0.530515558 0.952378378,0.583378378 C1.03740236,0.626843753 1.11328399,0.700507118 1.17287838,0.797432432 C1.19356182,0.825942024 1.20678253,0.863715488 1.21033784,0.904459459 C1.21000887,0.934023554 1.20093616,0.962007543 1.18536486,0.981486486 C1.170097,1.0040224 1.1491419,1.01687291 1.12718919,1.01716216 C1.11032676,1.01829844 1.09385569,1.00967561 1.0815,0.993243243 C1.03056223,0.909632916 0.96647074,0.844471618 0.894486486,0.803108108 C0.818301122,0.756197378 0.736231097,0.731921202 0.65327027,0.731756757 C0.544694416,0.726171691 0.437470112,0.767574855 0.345648649,0.850540541 C0.271864011,0.925033995 0.227319526,1.04526812 0.225694366,1.17432021 C0.224069206,1.3033723 0.265557618,1.42581748 0.337418919,1.50405405 C0.436786763,1.59842061 0.546383581,1.66869079 0.661783784,1.71202703 C0.76407768,1.75616038 0.864113461,1.81034361 0.961175676,1.87418919 C1.03813119,1.92603856 1.10411901,2.00604075 1.15244595,2.10608108 C1.20544674,2.22238433 1.23164375,2.35946502 1.22736486,2.49810811 C1.22807743,2.61942456 1.20184784,2.73794027 1.15244595,2.83662162 C1.09832072,2.94337826 1.02510453,3.02738995 0.940459459,3.07986486 C0.843693683,3.14126371 0.738702779,3.17170388 0.632837838,3.16905405 C0.521204491,3.16605291 0.410931034,3.13347399 0.307621622,3.07297297 L0.307621622,3.07297297 Z" id="Path_1630"></path>
                        <path d="M3.38922973,1.2372973 C3.44956862,1.25475223 3.50639695,1.29132629 3.55552703,1.34432432 C3.59123261,1.37472039 3.61448012,1.42785753 3.61795946,1.48702703 C3.61814135,1.51384791 3.61066006,1.53961518 3.59724324,1.55837838 C3.58695555,1.58013731 3.56992899,1.59343223 3.55155405,1.59405405 C3.53723066,1.59427505 3.52302934,1.59027273 3.50983784,1.5822973 C3.49640327,1.57067138 3.48384954,1.55708509 3.47237838,1.54175676 C3.45231439,1.51427472 3.43002082,1.4903207 3.40597297,1.47040541 C3.37279143,1.4502546 3.33785221,1.43661713 3.30210811,1.42986486 C3.25684585,1.41748578 3.21083961,1.41151094 3.16475676,1.41202703 C2.97944841,1.41012216 2.80910452,1.55710271 2.72404054,1.7922973 C2.63535309,2.04043907 2.63535309,2.33429066 2.72404054,2.58243243 C2.76523361,2.69655007 2.82693885,2.79295576 2.90282432,2.86175676 C3.02830369,2.96095914 3.17541931,2.98862388 3.31459459,2.93918919 C3.35293391,2.92621156 3.38948032,2.90414942 3.42271622,2.87391892 C3.44462006,2.85438039 3.46548727,2.83256467 3.48514865,2.80864865 C3.49663025,2.79333802 3.50918265,2.77975317 3.52260811,2.76810811 C3.53293413,2.76074227 3.54427207,2.75672762 3.55581081,2.75635135 C3.57458543,2.7560915 3.59262252,2.76677906 3.60575676,2.78594595 C3.618015,2.80539001 3.62407792,2.83122715 3.6225,2.8572973 C3.61674022,2.91372411 3.59391057,2.96368248 3.56006757,2.99391892 C3.50843299,3.04847145 3.4509233,3.09064522 3.3897973,3.11878378 C3.31204701,3.15573441 3.2305139,3.17382243 3.14858108,3.1722973 C3.03047662,3.17475032 2.91409889,3.13161114 2.81172973,3.04743243 C2.71341863,2.96448124 2.63398751,2.84270187 2.583,2.69675676 C2.52725828,2.54037735 2.49873586,2.36710119 2.49985135,2.19162162 C2.49925601,2.02010977 2.52778774,1.85095042 2.583,1.69864865 C2.63663406,1.55190965 2.71716352,1.42874035 2.81598649,1.3422973 C2.9197977,1.2521649 3.03963625,1.20683124 3.16106757,1.21175676 C3.23758588,1.20449703 3.31443687,1.21309975 3.38922973,1.2372973 Z" id="Path_1631"></path>
                        <path d="M6.07978378,1.27864865 C6.09503215,1.30054019 6.10263085,1.33102422 6.1005,1.36175676 L6.1005,3.01945946 C6.10065904,3.04795312 6.09325704,3.07547521 6.07978378,3.09648649 C6.06572978,3.11719434 6.04600923,3.1280184 6.02586486,3.12608108 C6.00582162,3.12641131 5.98644191,3.11583002 5.97166216,3.09648649 C5.95719956,3.07637833 5.94962879,3.04822869 5.95094595,3.01945946 L5.95094595,2.77054054 C5.85046882,3.01162277 5.66916823,3.16026005 5.47277027,3.16256757 C5.36179074,3.16599599 5.25277513,3.12040764 5.16060811,3.03202703 C5.06583375,2.94576113 4.99069407,2.82193703 4.94436486,2.67567568 C4.83901454,2.3558759 4.83901454,1.98561059 4.94436486,1.66581081 C4.99324245,1.52343989 5.06790795,1.40235693 5.16060811,1.31513514 C5.25257836,1.2320187 5.35940722,1.18865643 5.46822973,1.19027027 C5.56791244,1.18800405 5.66610347,1.22503609 5.75201351,1.2972973 C5.83367925,1.36341839 5.90125577,1.45995628 5.94754054,1.57662162 L5.94754054,1.35162162 C5.94808901,1.32147805 5.95534525,1.29236787 5.96825676,1.26851351 C5.98189202,1.2462688 6.00148081,1.23330779 6.02217568,1.23283784 C6.04375029,1.24101263 6.06355287,1.25675993 6.07978378,1.27864865 L6.07978378,1.27864865 Z M5.72618919,2.85283784 C5.79934916,2.78463931 5.85711029,2.68761976 5.89248649,2.57351351 C5.93460774,2.44951349 5.95598072,2.31322602 5.95491892,2.17540541 C5.95596771,2.03953575 5.93457829,1.90522686 5.89248649,1.78337838 C5.8545999,1.6715674 5.79736034,1.57542392 5.72618919,1.50405405 C5.6542996,1.43781886 5.57051671,1.40275678 5.48497297,1.40310811 C5.39934515,1.4019 5.31539353,1.43703269 5.24375676,1.50405405 C5.17168701,1.57138706 5.11411696,1.66598045 5.07745946,1.7772973 C5.0348958,1.90107568 5.01349891,2.0375156 5.01502703,2.17540541 C5.01415275,2.31254057 5.03399593,2.44833152 5.0732027,2.57351351 C5.10996132,2.68636641 5.1674279,2.78289123 5.2395,2.85283784 C5.31269436,2.91992695 5.39801241,2.95501232 5.48497297,2.95378378 C5.57095781,2.95746486 5.6555028,2.92165757 5.72618919,2.85162162 L5.72618919,2.85283784 Z" id="Path_1632"></path>
                        <path d="M7.68514865,3.09648649 C7.67107294,3.11714735 7.65136819,3.12796274 7.63122973,3.12608108 C7.61128417,3.1262914 7.5920187,3.115734 7.57731081,3.09648649 C7.56281532,3.07640934 7.55523847,3.04823712 7.55659459,3.01945946 L7.55659459,0.512432432 C7.55643556,0.483938772 7.56383755,0.45641668 7.57731081,0.435405405 C7.59136481,0.414697554 7.61108537,0.403873491 7.63122973,0.405810811 C7.65117529,0.405588956 7.67044076,0.416157895 7.68514865,0.435405405 C7.69961125,0.455513562 7.70718203,0.483663201 7.70586486,0.512432432 L7.70586486,3.01945946 C7.70930528,3.04861034 7.70136716,3.07812585 7.68514865,3.09648649 L7.68514865,3.09648649 Z" id="Path_1633"></path>
                        <path d="M9.16066231,0.927972973 C9.13774449,0.902579794 9.12572873,0.865180737 9.12822988,0.827027027 L9.12822988,0.791351351 C9.12572873,0.753197642 9.13774449,0.715798585 9.16066231,0.690405405 C9.1878779,0.664622773 9.22161286,0.651957771 9.25568934,0.65472973 C9.3364461,0.65472973 9.37439204,0.702162162 9.37439204,0.791351351 L9.37439204,0.827027027 C9.3768932,0.865180737 9.36487744,0.902579794 9.34195961,0.927972973 C9.28774628,0.975503952 9.21552429,0.975503952 9.16131096,0.927972973 L9.16066231,0.927972973 Z M9.31277042,3.09648649 C9.2966086,3.11725914 9.27395019,3.12808416 9.25082448,3.12608108 C9.22802955,3.12631705 9.20601187,3.115734 9.18920286,3.09648649 C9.17263657,3.07640934 9.16397732,3.04823712 9.16552718,3.01945946 L9.16552718,1.32648649 C9.16534543,1.29799283 9.17380485,1.27047073 9.18920286,1.24945946 C9.20526457,1.22875161 9.22780235,1.21792754 9.25082448,1.21986486 C9.27372522,1.21957529 9.29586193,1.23015107 9.31277042,1.24945946 C9.32929912,1.26956762 9.33795143,1.29771725 9.3364461,1.32648649 L9.3364461,3.01945946 C9.34060363,3.04838052 9.33191791,3.07784992 9.3137434,3.09648649 L9.31277042,3.09648649 Z" id="Path_1634"></path>
                        <path d="M11.7233919,1.39824324 C11.8032975,1.55242782 11.8434035,1.74135584 11.8369054,1.93297297 L11.8369054,3.01418919 C11.8375359,3.04416477 11.8282915,3.07282842 11.8119324,3.09162162 C11.7977908,3.11239428 11.7779647,3.1232193 11.7577297,3.12121622 C11.7377893,3.12140319 11.7185338,3.11083437 11.7038108,3.09162162 C11.68927,3.07141934 11.6816924,3.04309633 11.6830946,3.01418919 L11.6830946,1.93905405 C11.6875388,1.80039954 11.6581494,1.66384142 11.5999459,1.5527027 C11.5356846,1.4468213 11.4396773,1.39159787 11.3419865,1.40432432 C11.2683796,1.40395979 11.1957506,1.42840558 11.13,1.47567568 C11.0653506,1.5208643 11.009572,1.58828892 10.9676757,1.67189189 C10.9274434,1.74914811 10.9055664,1.84276467 10.9052432,1.93905405 L10.9052432,3.01418919 C10.9054459,3.04281512 10.8980429,3.07048601 10.884527,3.09162162 C10.870473,3.11232947 10.8507525,3.12315354 10.8306081,3.12121622 C10.81057,3.1215058 10.7912003,3.11093001 10.7764054,3.09162162 C10.7618645,3.07141934 10.754287,3.04309633 10.7556892,3.01418919 L10.7556892,1.36175676 C10.7554865,1.33313082 10.7628895,1.30545994 10.7764054,1.28432432 C10.790547,1.26355167 10.8103731,1.25272665 10.8306081,1.25472973 C10.8505486,1.25454275 10.8698041,1.26511158 10.884527,1.28432432 C10.8990679,1.30452661 10.9066454,1.33284961 10.9052432,1.36175676 L10.9052432,1.56445946 C10.9534926,1.45300688 11.0221961,1.36257068 11.1038919,1.30297297 C11.185165,1.23675423 11.2765618,1.2000062 11.3700811,1.19594595 C11.5031552,1.18403543 11.6329133,1.2583318 11.7233919,1.39824324 Z" id="Path_1635"></path>
                        <path d="M14.4431757,1.27256757 C14.458424,1.29445911 14.4660227,1.32494314 14.4638919,1.35567568 L14.4638919,2.95378378 C14.4665125,3.12561969 14.4378619,3.29548429 14.3807432,3.44675676 C14.3273942,3.57958847 14.2478411,3.68703168 14.1520135,3.75567568 C14.0488401,3.82925597 13.9347115,3.86598188 13.8194189,3.8627027 C13.7548929,3.86178087 13.6906773,3.8498034 13.6281486,3.82702703 C13.5692393,3.80930859 13.5120611,3.78140017 13.4578784,3.74391892 C13.4223258,3.72306788 13.3929386,3.68524128 13.3747297,3.63689189 C13.3632772,3.62151922 13.3571513,3.59971539 13.3579865,3.5772973 C13.3586311,3.55263947 13.3680504,3.53016164 13.3829595,3.5177027 C13.3905591,3.51115127 13.3990952,3.50713266 13.4079324,3.50594595 C13.4281329,3.50915225 13.447805,3.51724041 13.4661081,3.52986486 L13.520027,3.56554054 C13.6151594,3.62120953 13.7166406,3.6514409 13.8194189,3.65472973 C13.9525704,3.66664043 14.0833269,3.6001268 14.1812432,3.47067568 C14.2711227,3.33489184 14.3177453,3.15209809 14.3100811,2.96554054 L14.3100811,2.73972973 C14.2675777,2.87170619 14.1960197,2.98019647 14.1063243,3.04864865 C14.0181636,3.12304873 13.9175558,3.16199188 13.8151622,3.16135135 C13.7023364,3.1638626 13.59133,3.12056226 13.4950541,3.03648649 C13.3989485,2.95153415 13.3212387,2.83013452 13.2705811,2.68581081 C13.2148288,2.52943693 13.1863058,2.35615703 13.1874324,2.18067568 C13.1863164,2.0071381 13.214858,1.83583246 13.2705811,1.68162162 C13.3212387,1.53729792 13.3989485,1.41589828 13.4950541,1.33094595 C13.59133,1.24687018 13.7023364,1.20356983 13.8151622,1.20608108 C13.9206641,1.20604299 14.0241755,1.24711116 14.1145541,1.32486486 C14.197018,1.39100752 14.2656026,1.48744588 14.3132027,1.60418919 L14.3132027,1.36945946 C14.3137512,1.33931589 14.3210074,1.31020571 14.3339189,1.28635135 C14.3475542,1.26410664 14.367143,1.25114563 14.3878378,1.25067568 C14.4076588,1.24543006 14.428067,1.25350364 14.4431757,1.27256757 L14.4431757,1.27256757 Z M14.0813514,2.85891892 C14.1578033,2.79289412 14.2186069,2.69558004 14.2558784,2.57959459 C14.3390769,2.3233832 14.3390769,2.02783302 14.2558784,1.77162162 C14.2172965,1.65846934 14.1567022,1.56360167 14.0813514,1.49837838 C14.0047558,1.43315085 13.9167916,1.40025914 13.8276486,1.40351351 C13.7394471,1.40232382 13.6528635,1.43736253 13.5782027,1.50445946 C13.502652,1.57202278 13.4421191,1.66890351 13.4036757,1.78378378 C13.3205016,2.03376109 13.3205016,2.32394161 13.4036757,2.57391892 C13.4432819,2.68768403 13.5035592,2.78415561 13.5782027,2.85324324 C13.6530994,2.91957958 13.7395254,2.95455451 13.8276486,2.95418919 C13.9167526,2.95651775 14.0045667,2.92354185 14.0813514,2.85891892 Z" id="Path_1636"></path>
                        <path d="M17.8153784,3.09081081 C17.8005827,3.11430631 17.7793171,3.12734725 17.7572027,3.12648649 C17.7359739,3.126737 17.715367,3.11625408 17.699027,3.09689189 C17.6837787,3.07500035 17.67618,3.04451632 17.6783108,3.01378378 L17.6783108,0.662432432 C17.6777083,0.630840424 17.6868369,0.600460963 17.7032838,0.579324324 C17.7186079,0.557540946 17.7399467,0.546685657 17.7614595,0.54972973 C17.7834055,0.55006412 17.804349,0.562907481 17.8196351,0.585405405 C17.836082,0.606542044 17.8452106,0.636921505 17.8446081,0.668513514 L17.8446081,3.01986486 C17.8406342,3.04748564 17.8303531,3.07243974 17.8153784,3.09081081 L17.8153784,3.09081081 Z" id="Path_1637"></path>
                        <path d="M20.4440676,0.429324324 C20.4585302,0.449432481 20.4661009,0.47758212 20.4647838,0.506351351 L20.4647838,3.01337838 C20.4649147,3.04186473 20.4575165,3.06937263 20.4440676,3.09040541 C20.4299919,3.11106627 20.4102871,3.12188166 20.3901486,3.12 C20.3701105,3.12028958 20.3507409,3.1097138 20.3359459,3.09040541 C20.3214833,3.07029725 20.3139126,3.04214761 20.3152297,3.01337838 L20.3152297,2.75797297 C20.2694794,2.87434557 20.2036311,2.97204324 20.1239595,3.04175676 C20.0395963,3.12034587 19.9408876,3.16166252 19.8401757,3.16054054 C19.7312569,3.16223276 19.6243218,3.11886739 19.5322703,3.03567568 C19.4385423,2.95015527 19.3635935,2.82861299 19.316027,2.685 C19.2615648,2.52817723 19.2344038,2.354892 19.2368514,2.17986486 C19.2344145,2.00678667 19.2615933,1.83547552 19.316027,1.68081081 C19.3649046,1.53843989 19.4395701,1.41735693 19.5322703,1.33013514 C19.7120306,1.17037827 19.9384978,1.16353777 20.1228243,1.3122973 C20.2045074,1.37838577 20.2720894,1.47493146 20.3183514,1.59162162 L20.3183514,0.510405405 C20.3172761,0.481576537 20.3248233,0.453452099 20.3391132,0.433038091 C20.353403,0.412624083 20.3730901,0.401842234 20.3932703,0.403378378 C20.4119062,0.402392526 20.4300938,0.411682299 20.4440676,0.429324324 L20.4440676,0.429324324 Z M20.0947297,2.85932432 C20.1678897,2.79112579 20.2256508,2.69410624 20.261027,2.58 C20.3031483,2.45599998 20.3245213,2.31971251 20.3234595,2.18189189 C20.3249887,2.04594985 20.3035739,1.91148166 20.261027,1.78986486 C20.2220211,1.67910523 20.1649948,1.58331991 20.0947297,1.51054054 C20.0228401,1.44430535 19.9390573,1.40924327 19.8535135,1.40959459 C19.7678857,1.40838648 19.6839341,1.44351918 19.6122973,1.51054054 C19.5391373,1.57873907 19.4813762,1.67575862 19.446,1.78986486 C19.3628259,2.03984217 19.3628259,2.33002269 19.446,2.58 C19.4838866,2.69181098 19.5411261,2.78795446 19.6122973,2.85932432 C19.6839413,2.92632333 19.7678881,2.96145399 19.8535135,2.96027027 C19.9386957,2.95680513 20.0217983,2.92188807 20.0947297,2.85891892 L20.0947297,2.85932432 Z" id="Path_1638"></path>
                        <path d="M22.9930135,2.15189189 C22.9789378,2.17255276 22.9592331,2.18336814 22.9390946,2.18148649 L21.9617432,2.18148649 C21.9602151,2.31937629 21.981612,2.45581622 22.0241757,2.57959459 C22.0653687,2.69371224 22.127074,2.79011793 22.2029595,2.85891892 C22.2878291,2.92767655 22.3840859,2.96254408 22.4816351,2.95986486 C22.558122,2.96231717 22.6338537,2.93781123 22.7021351,2.88851351 C22.7636748,2.84188316 22.8175588,2.77706764 22.8602027,2.69837838 C22.8748022,2.67805105 22.8938268,2.66546334 22.9141216,2.6627027 C22.9497258,2.66622281 22.978063,2.70670449 22.980527,2.75756757 C22.9802781,2.78727362 22.9711983,2.81542697 22.9555541,2.835 C22.8976348,2.93267864 22.8269895,3.01336105 22.7475405,3.07256757 C22.6653035,3.13378927 22.5740814,3.16629914 22.4813514,3.16743243 C22.3597662,3.17043164 22.2396152,3.12957724 22.1320135,3.04864865 C22.0336127,2.96745084 21.9518925,2.85070766 21.8950541,2.71013514 C21.8364561,2.55527818 21.8077581,2.38093509 21.8119054,2.205 C21.809595,2.02233468 21.8381155,1.84156143 21.8950541,1.67797297 C21.993877,1.3963765 22.1944592,1.21712882 22.4149459,1.21337838 C22.5162229,1.21365369 22.6160093,1.24824964 22.7061081,1.31432432 C22.7967365,1.38626733 22.8727204,1.49062457 22.9266081,1.61716216 C22.9865305,1.75851181 23.0168615,1.92142142 23.0140135,2.08662162 C23.0179865,2.10527027 23.009473,2.12837838 22.9930135,2.15189189 Z M22.1416622,1.55797297 C22.0530934,1.66520574 21.9953014,1.81531487 21.9793378,1.97959459 L22.8610541,1.97959459 L22.8610541,1.95 C22.8549944,1.84405259 22.8274841,1.74291382 22.7818784,1.65891892 C22.7398082,1.57722921 22.6841046,1.51186772 22.6198378,1.46878378 C22.5574823,1.42768399 22.4898482,1.40546135 22.4211892,1.40351351 C22.3189881,1.41413229 22.2213003,1.46789375 22.140527,1.55797297 L22.1416622,1.55797297 Z" id="Path_1639"></path>
                        <path d="M25.5047838,1.27864865 C25.5200321,1.30054019 25.5276309,1.33102422 25.5255,1.36175676 L25.5255,3.01945946 C25.525659,3.04795312 25.518257,3.07547521 25.5047838,3.09648649 C25.4907081,3.11714735 25.4710033,3.12796274 25.4508649,3.12608108 C25.4309193,3.12630827 25.4116538,3.115734 25.3969459,3.09648649 C25.3824505,3.07640934 25.3748736,3.04823712 25.3762297,3.01945946 L25.3762297,2.77054054 C25.2757526,3.01162277 25.094452,3.16026005 24.8980541,3.16256757 C24.7870745,3.16599599 24.6780589,3.12040764 24.5858919,3.03202703 C24.4911175,2.94576113 24.4159779,2.82193703 24.3696486,2.67567568 C24.2643381,2.35586319 24.2643381,1.98562329 24.3696486,1.66581081 C24.4185262,1.52343989 24.4931917,1.40235693 24.5858919,1.31513514 C24.6778621,1.2320187 24.784691,1.18865643 24.8935135,1.19027027 C24.9931962,1.18800405 25.0913873,1.22503609 25.1772973,1.2972973 C25.2580691,1.36508308 25.3253743,1.46123335 25.3728243,1.57662162 L25.3728243,1.35162162 C25.3733728,1.32147805 25.380629,1.29236787 25.3935405,1.26851351 C25.4066348,1.24525878 25.4265752,1.23206512 25.4474595,1.23283784 C25.4700878,1.23653908 25.4907345,1.25303889 25.5047838,1.27864865 L25.5047838,1.27864865 Z M25.1554459,2.85283784 C25.2285951,2.78462173 25.2863532,2.6876073 25.3217432,2.57351351 C25.3638547,2.44950858 25.3852271,2.31322446 25.3841757,2.17540541 C25.3852138,2.03953738 25.3638249,1.90523199 25.3217432,1.78337838 C25.2838567,1.6715674 25.2266171,1.57542392 25.1554459,1.50405405 C25.0835564,1.43781886 24.9997735,1.40275678 24.9142297,1.40310811 C24.8286019,1.4019 24.7446503,1.43703269 24.6730135,1.50405405 C24.6009536,1.57140322 24.5433863,1.66599216 24.5067162,1.7772973 C24.4641526,1.90107568 24.4427557,2.0375156 24.4442838,2.17540541 C24.4434095,2.31254057 24.4632527,2.44833152 24.5024595,2.57351351 C24.5392181,2.68636641 24.5966847,2.78289123 24.6687568,2.85283784 C24.7419511,2.91992695 24.8272692,2.95501232 24.9142297,2.95378378 C25.0001371,2.95662385 25.0845036,2.92089214 25.1554459,2.85162162 L25.1554459,2.85283784 Z" id="Path_1640"></path>
                        <path d="M26.8689322,2.74621622 C26.8688654,2.71502202 26.8819751,2.68684991 26.9021351,2.67486486 C26.9135373,2.65990001 26.9283709,2.65139486 26.9438514,2.65094595 C26.9657974,2.65128034 26.9867408,2.6641237 27.002027,2.68662162 C27.095498,2.87036812 27.2463427,2.97652205 27.4052838,2.97040541 C27.48137,2.97194262 27.5562511,2.94316379 27.621527,2.8872973 C27.6770252,2.83524994 27.7111202,2.74762093 27.7127624,2.65280932 C27.7144047,2.55799771 27.6833851,2.468067 27.6297568,2.41216216 C27.5560939,2.35103794 27.4761154,2.3069779 27.3927973,2.28162162 C27.2731757,2.24228971 27.159214,2.17371244 27.0559459,2.07891892 C26.9755356,1.99488981 26.930189,1.85862144 26.9353378,1.71648649 C26.9354486,1.61920378 26.9556887,1.52413895 26.9935135,1.44324324 C27.0348177,1.36199894 27.0908378,1.29836847 27.1555541,1.25918919 C27.2292449,1.21476129 27.3085618,1.19254095 27.3885405,1.19391892 C27.4653177,1.19351596 27.5414639,1.21373176 27.6130135,1.25351351 C27.687194,1.29519504 27.7529322,1.36263312 27.8042838,1.44972973 C27.820415,1.46607758 27.8297807,1.49283667 27.8292568,1.52108108 C27.8290078,1.55078713 27.819928,1.57894049 27.8042838,1.59851351 C27.790946,1.61250407 27.7751022,1.62079851 27.7585946,1.62243243 C27.7412561,1.62139636 27.724876,1.61078637 27.7129054,1.59283784 C27.6730318,1.52801094 27.6232077,1.47722948 27.5673243,1.44445946 C27.5096001,1.40853931 27.447245,1.39030925 27.3842838,1.39094595 C27.3107825,1.3893666 27.2385341,1.41823217 27.1762703,1.47405405 C27.1186559,1.52680763 27.0852874,1.6196697 27.0888649,1.7172973 C27.0897443,1.81176364 27.1263333,1.8981565 27.1845,1.94310811 C27.2661141,2.00975707 27.3544775,2.05789812 27.4464324,2.08581081 C27.5226877,2.10863775 27.5967268,2.14457512 27.6669324,2.19283784 C27.7235805,2.22958717 27.7725016,2.2868947 27.8088243,2.35905405 C27.8478877,2.44277717 27.866814,2.54238927 27.8627432,2.64283784 C27.8652266,2.7932693 27.8153803,2.93568734 27.7296486,3.02310811 C27.6326555,3.12125201 27.5158493,3.17136877 27.3970541,3.16581081 C27.2029446,3.17552048 27.0173336,3.05175973 26.8978784,2.83297297 C26.8823149,2.80889683 26.8722229,2.77864918 26.8689322,2.74621622 L26.8689322,2.74621622 Z" id="Path_1641"></path>
                    </g>
                    <g id="Group_8891" transform="translate(33.000000, 0.000000)" fill="#FD3266">
                        <path d="M4.62375,0.267393822 C4.41946994,-0.0150070445 4.01645817,-0.0842508273 3.723598,0.112733501 C3.43073782,0.30971783 3.35892943,0.698336319 3.56320946,0.98073721 L6.18324324,4.59407215 C6.304308,4.76102861 6.50224558,4.86051219 6.71351351,4.86058639 C6.84557291,4.8598698 6.97437068,4.82095584 7.08324324,4.7488791 C7.22403569,4.65443222 7.32006127,4.50983858 7.35012427,4.34701433 C7.38018727,4.18419008 7.34181585,4.0165229 7.24347973,3.88102196 L4.62375,0.267393822 Z" id="Path_1642"></path>
                        <path d="M1.48256757,0.53801279 C1.35447681,0.347035705 1.12876383,0.238400184 0.893492257,0.254491208 C0.658220687,0.270582232 0.450668296,0.408850246 0.351813236,0.615348928 C0.252958175,0.821847611 0.278463602,1.06385814 0.418378378,1.24695825 L3.99192568,6.23127292 C4.04357744,6.30351256 4.07289035,6.3884123 4.0764527,6.47609073 L4.06763514,8.16899855 C4.08245072,8.50277723 4.36729226,8.76607135 4.71375,8.76623673 L4.74415541,8.76623673 C5.10156629,8.74961059 5.37812862,8.45805059 5.36351351,8.11329151 L5.37233108,6.42038369 C5.35772195,6.09679677 5.24794174,5.78389604 5.05581081,5.51822273 L1.48256757,0.53801279 Z" id="Path_1643"></path>
                        <path d="M8.84827703,1.49206926 L7.95709459,0.267687017 C7.82418819,0.0857912517 7.60074328,-0.0139149459 7.37092941,0.0061267901 C7.14111555,0.0261685261 6.93984693,0.162913379 6.84293951,0.364850877 C6.74603208,0.566788376 6.76820841,0.803239404 6.90111486,0.985135135 L7.7922973,2.20951737 C7.91332693,2.3765124 8.11128696,2.47603161 8.32256757,2.47603161 C8.45462696,2.47531503 8.58342473,2.43640106 8.6922973,2.36432432 C8.9831329,2.16376286 9.05265741,1.7749745 8.84827703,1.49206926 L8.84827703,1.49206926 Z" id="Path_1644"></path>
                    </g>
                </g>
                <polygon id="Fill-160" fill="#FCFDFE" points="79.3290732 60.7147368 83.7711785 60.7147368 83.7711785 59.5442105 79.3290732 59.5442105"></polygon>
                <polygon id="Fill-161" fill="#FEC95C" points="181.135389 75.5168421 199.302757 75.5168421 199.302757 57.3494737 181.135389 57.3494737"></polygon>
                <polygon id="Fill-161-Copy" fill="#FEC95C" points="126.135389 98.5168421 144.302757 98.5168421 144.302757 80.3494737 126.135389 80.3494737"></polygon>
                <polygon id="Fill-162" fill="#FCFDFE" points="184.093284 60.0642105 196.344863 60.0642105 196.344863 58.8936842 184.093284 58.8936842"></polygon>
                <path d="M190.2196,69.3357895 C188.330126,69.3357895 186.794336,67.8 186.794336,65.9115789 C186.794336,64.0221053 188.330126,62.4863158 190.2196,62.4863158 C192.108021,62.4863158 193.64381,64.0221053 193.64381,65.9115789 C193.64381,67.8 192.108021,69.3357895 190.2196,69.3357895 Z M190.2196,61.2747368 C187.658547,61.2747368 185.58381,63.3505263 185.58381,65.9115789 C185.58381,68.4715789 187.658547,70.5463158 190.2196,70.5463158 C192.7796,70.5463158 194.855389,68.4715789 194.855389,65.9115789 C194.855389,63.3505263 192.7796,61.2747368 190.2196,61.2747368 L190.2196,61.2747368 Z" id="Fill-163" fill="#FCFDFE"></path>
                <g id="Group-11" transform="translate(130.483681, 66.881053)">
                    <polyline id="Fill-166" fill="#F49D64" points="58.3969712 111.008421 62.1474975 117.362105 65.5864449 119.450526 66.5527607 115.573684 63.554866 108.570526 58.3969712 111.008421"></polyline>
                    <path d="M66.1822344,111.757895 C66.1822344,111.757895 65.1896028,113.150526 63.274866,114.241053 C62.9359186,114.446316 62.5727607,114.627368 62.1853923,114.797895 C61.1201291,115.257895 59.8601291,115.572632 58.394866,115.572632 C58.394866,115.572632 46.4043396,95.0926316 43.4738133,86.8442105 C40.5180239,78.5842105 35.9759186,57.5705263 35.9759186,57.5705263 L37.114866,56.7831579 L46.283287,50.3642105 C50.0622344,49.6494737 53.1138133,45.0473684 54.2643396,48.9842105 C54.2643396,48.9842105 55.8264449,59.0357895 55.814866,60.6715789 L55.4390765,83.7557895 L66.1822344,111.757895" id="Fill-167" fill="#FF9134"></path>
                    <g id="Group-171" transform="translate(43.605392, 54.122105)">
                        <path d="M19.6694737,60.1189474 C19.3305263,60.3242105 18.9673684,60.5052632 18.58,60.6757895 C14.9231579,52.4757895 7.41368421,35.4957895 5.41473684,30.1547368 C3.04105263,23.8084211 0.618947368,6.58526316 0.618947368,1.51157895 C0.618947368,0.590526316 1.81684211,0.687368421 1.81684211,1.36526316 C1.79368421,6.19789474 4.28842105,23.6863158 6.54105263,29.7305263 C8.53894737,35.0231579 16,51.8947368 19.6694737,60.1189474" id="Fill-168" fill="#FF7344"></path>
                        <path d="M18.5421053,63.24 C16.8010526,69.0810526 11.7757895,73.0315789 12.7831579,74.3378947 C13.7326316,75.5663158 25.6821053,68.4284211 25.1526316,65.2210526 C24.7126316,62.5578947 22.9473684,61.4515789 22.9473684,61.4515789 C21.5642105,64.0568421 18.5421053,63.24 18.5421053,63.24" id="Fill-170" fill="#E8ECFA"></path>
                    </g>
                    <polyline id="Fill-172" fill="#F49D64" points="38.283287 113.428421 38.8253923 120.886316 41.0064449 124.331579 43.6296028 121.248421 44.0643396 113.538947 38.283287 113.428421"></polyline>
                    <path d="M55.7053923,62.3673684 L47.6759186,85.3305263 L45.2169712,117.68 C45.2169712,117.68 41.4264449,120.187368 37.2717081,118.055789 C37.2717081,118.055789 33.663287,92.9 33.8811818,84.0347368 C33.9053923,83.1863158 33.9285502,82.2421053 33.9769712,81.2126316 C34.3769712,72.6252632 35.6611818,58.6368421 35.9643396,55.3789474 C36.0001291,54.9305263 36.0243396,54.6884211 36.0243396,54.6884211 L47.4938133,48.5842105 C48.5474975,48.7778947 49.8559186,49.3473684 51.2001291,50.0736842 C55.5727607,52.4473684 57.4980239,57.7168421 55.7053923,62.3673684" id="Fill-173" fill="#FEC95C"></path>
                    <path d="M42.0759186,119.014737 C41.7011818,119.050526 41.2959186,119.055789 40.8611818,119.006316 C40.5085502,110.250526 39.7969712,91.0431579 39.9180239,85.2294737 C40.0674975,78.4494737 44.1980239,61.5631579 46.0874975,56.8463158 C46.4285502,55.9947368 47.5043396,56.5326316 47.2517081,57.1526316 C45.4390765,61.6378947 41.2727607,78.8010526 41.1306554,85.2494737 C41.0106554,91.0515789 41.7296028,110.296842 42.0759186,119.014737" id="Fill-174" fill="#FF9E22"></path>
                    <path d="M47.5190765,63.1305263 C46.4885502,64.0136842 45.4717081,64.4863158 44.5990765,64.7536842 C43.1938133,65.14 42.0811818,66.2189474 41.5717081,67.5747368 C41.1843396,68.6526316 40.4811818,69.8757895 39.2222344,70.8810526 C38.943287,71.1115789 38.6769712,71.3294737 38.4222344,71.5347368 C36.4969712,73.1221053 35.2380239,75.3389474 34.8253923,77.7842105 C34.643287,78.8873684 34.3538133,79.9526316 34.0380239,81.0189474 L33.9769712,81.2126316 C34.3769712,72.6252632 35.6611818,58.6368421 35.9643396,55.3789474 L44.0306554,55.4873684 C46.1138133,55.5115789 47.954866,56.3589474 49.2990765,57.7168421 C49.3706554,59.4842105 49.1296028,61.7736842 47.5190765,63.1305263" id="Fill-175" fill="#FF9E22"></path>
                    <path d="M38.8253923,120.886316 C34.6117081,125.404211 28.2696028,126.726316 28.5959186,128.365263 C28.6717081,128.748421 30.7706554,129.124211 32.1264449,129.191579 C36.2443396,129.396842 43.2074975,128.034737 43.9338133,125.664211 C44.734866,123.048421 43.6296028,121.248421 43.6296028,121.248421 C41.2001291,122.990526 38.8253923,120.886316 38.8253923,120.886316" id="Fill-176" fill="#E8ECFA"></path>
                    <path d="M11.1485502,53.8231579 C11.8474975,53.4136842 13.3917081,52.5873684 14.1053923,51.6642105 C14.2496028,51.4789474 14.3622344,51.2747368 14.4590765,51.0652632 C13.2685502,50.9842105 12.0253923,50.7547368 11.9222344,50.1515789 C11.7222344,48.9684211 16.2822344,48.9631579 16.2822344,48.9631579 C17.4201291,48.8747368 18.6569712,49.2484211 18.6569712,49.2484211 C19.6201291,49.1621053 31.0253923,44.1115789 31.0253923,44.1115789 L32.5127607,49.7210526 L22.8411818,51.7705263 C22.2717081,51.9431579 21.7580239,52.2568421 21.3317081,52.6810526 C20.7253923,53.3021053 20.0917081,53.9621053 19.3811818,54.4852632 C19.3811818,54.4852632 15.5096028,57.2852632 13.5990765,56.6978947 C12.9938133,56.5115789 11.9685502,55.9157895 11.1243396,55.3873684 C10.5422344,55.0210526 10.5538133,54.1705263 11.1485502,53.8231579" id="Fill-177" fill="#F49D64"></path>
                    <path d="M25.1390765,52.0505263 C25.1390765,52.0505263 36.2569712,50.1778947 38.9896028,47.7905263 C40.1338133,46.8063158 41.5222344,43.24 42.4790765,41.3515789 L36.0653923,34.5673684 C34.9496028,37.8178947 33.9496028,40.7842105 33.0611818,41.6210526 C32.2106554,42.4221053 22.8864449,46.8052632 22.8864449,46.8052632 C22.8864449,46.8052632 22.6201291,50.0926316 25.1390765,52.0505263" id="Fill-178" fill="#0031A4"></path>
                    <path d="M0.486444911,52.4621053 C1.20118175,52.0821053 2.77802386,51.32 3.53065544,50.4263158 C3.68118175,50.2473684 3.80118175,50.0484211 3.90749754,49.8431579 C2.72012912,49.7136842 1.48855017,49.4326316 1.41065544,48.8252632 C1.25802386,47.6357895 5.81486596,47.8178947 5.81486596,47.8178947 C6.95591859,47.7757895 8.17591859,48.2010526 8.17591859,48.2010526 C9.14223438,48.1536842 20.7443396,43.5757895 20.7443396,43.5757895 L22.0001291,49.2421053 L12.2538133,50.8915789 C11.6780239,51.0410526 11.1506554,51.3336842 10.7074975,51.74 C10.0759186,52.3347368 9.41591859,52.9694737 8.68433965,53.4621053 C8.68433965,53.4621053 4.70223438,56.1010526 2.81697123,55.4357895 C2.21907649,55.2252632 1.21907649,54.5863158 0.399076489,54.0242105 C-0.169344563,53.6347368 -0.121976142,52.7852632 0.486444911,52.4621053" id="Fill-179" fill="#F49D64"></path>
                    <path d="M49.3096028,9.92842105 C48.4601291,5.28210526 44.2980239,2.14947368 40.0138133,2.93263158 C35.7285502,3.71578947 32.9443396,8.11789474 33.794866,12.7642105 C34.4359186,16.2778947 34.123287,20.7431579 40.0243396,19.6652632 L42.9664449,25.8789474 L49.5222344,24.6810526 L46.5180239,18.1326316 C48.7285502,16.2736842 49.9001291,13.1621053 49.3096028,9.92842105" id="Fill-180" fill="#F49D64"></path>
                    <path d="M55.8264449,62.6821053 C47.9296028,65.8673684 40.1664449,63.8084211 36.0243396,62.1610526 C35.5159186,61.9673684 35.0685502,61.7736842 34.6801291,61.5915789 C33.6874975,61.1431579 33.1411818,60.0536842 33.4201291,59.0115789 C35.4917081,51.0305263 35.0917081,41.7768421 34.5106554,40.9421053 C34.5106554,40.9421053 34.4864449,40.9778947 34.4380239,41.0631579 C33.9769712,41.8863158 31.094866,46.9368421 29.4717081,48.1357895 C26.5653923,50.2915789 15.3264449,51.2610526 15.3264449,51.2610526 C12.9759186,49.1052632 13.4969712,45.8473684 13.4969712,45.8473684 C13.4969712,45.8473684 23.1496028,42.2378947 24.0590765,41.4989474 C26.1538133,39.8273684 29.5327607,28.0673684 32.863287,25.4873684 C34.994866,23.84 37.4538133,22.7021053 40.0453923,22.1210526 C40.2274975,21.8778947 40.3969712,21.66 40.5790765,21.5273684 C42.0685502,20.3768421 43.9096028,19.7947368 45.7864449,19.88 L47.2517081,19.94 C47.4453923,19.9526316 47.6759186,20.0010526 47.9180239,20.0978947 C48.6938133,20.3768421 49.2622344,20.9578947 49.674866,21.5873684 C49.8064449,21.8052632 49.9169712,22.0231579 50.0253923,22.2536842 C51.7453923,22.9442105 53.0169712,24.2284211 53.9253923,25.6326316 C55.474866,28.0063158 56.0211818,30.8768421 55.6938133,33.6873684 C55.1485502,38.3978947 54.9190765,44.0063158 55.4874975,50.2673684 C55.814866,53.9621053 56.3843396,57.3526316 57.0496028,60.3810526 C57.2674975,61.3368421 56.7359186,62.3063158 55.8264449,62.6821053" id="Fill-181" fill="#0C61EA"></path>
                    <path d="M39.9969712,48.2810526 L38.4653923,50.0115789 C37.0738133,51.5821053 36.9653923,53.8115789 37.9264449,55.6768421 C38.2969712,56.3936842 38.4706554,57.1515789 38.4706554,57.9105263 C38.4706554,59.5568421 37.6474975,61.1431579 36.1580239,62.0768421 L36.0243396,62.1610526 C35.5159186,61.9673684 35.0685502,61.7736842 34.6801291,61.5915789 C33.6874975,61.1431579 33.1411818,60.0536842 33.4201291,59.0115789 C35.4917081,51.0305263 34.5106554,40.9421053 34.5106554,40.9421053 L35.9790765,38.0894737 L39.7169712,41.9705263 C41.343287,43.7 41.5727607,46.4305263 40.0338133,48.2389474 C40.0222344,48.2536842 40.0096028,48.2673684 39.9969712,48.2810526" id="Fill-182" fill="#0244D5"></path>
                    <path d="M34.4390765,7.39684211 C40.5274975,7.39684211 40.3569712,11.4431579 40.2885502,14.1178947 C40.2622344,15.0989474 44.3906554,15.2284211 46.5180239,18.1326316 C46.5180239,18.1326316 49.0590765,16.6273684 50.3306554,12.4536842 C51.334866,9.15684211 51.0559186,4.97578947 49.0590765,3.14526316 C47.0517081,1.30842105 40.2296028,1.01473684 37.8053923,0.665263158 C36.914866,0.529473684 36.0464449,0.282105263 35.2011818,-2.30926389e-14 C33.2274975,2.05263158 34.4390765,7.39684211 34.4390765,7.39684211" id="Fill-183" fill="#20158A"></path>
                    <path d="M42.7822344,13.7589474 C42.9801291,14.8442105 42.2611818,15.8863158 41.1738133,16.0852632 C40.0885502,16.2831579 39.0464449,15.5642105 38.8474975,14.4778947 C38.6496028,13.3915789 39.3685502,12.3494737 40.4559186,12.1515789 C41.5411818,11.9526316 42.583287,12.6726316 42.7822344,13.7589474" id="Fill-184" fill="#F49D64"></path>
                </g>
                <polygon id="Fill-149-Copy" fill="#9B9B9B" points="129.211178 87.7557895 141.46381 87.7557895 141.46381 86.5852632 129.211178 86.5852632"></polygon>
                <polygon id="Fill-150-Copy" fill="#9B9B9B" points="129.211178 92.2578947 131.776442 92.2578947 131.776442 91.0873684 129.211178 91.0873684"></polygon>
                <polygon id="Fill-151-Copy" fill="#9B9B9B" points="134.125915 92.2578947 141.46381 92.2578947 141.46381 91.0873684 134.125915 91.0873684"></polygon>
                <g id="Group-10" transform="translate(30.000000, 68.137159)">
                    <path d="M9.18275741,41.9102098 L18.7785469,48.3365256 L15.2722311,52.975473 C15.2722311,52.975473 1.08275741,47.3186309 0.0722310893,44.3491572 C-0.937242595,41.3807361 8.96802056,26.0617888 8.96802056,26.0617888 L16.3480206,36.0091572 C13.0595995,38.7523151 9.18275741,41.9102098 9.18275741,41.9102098" id="Fill-203" fill="#758BCD"></path>
                    <polyline id="Fill-204" fill="#F49D64" points="34.90381 113.97442 34.1732837 121.155473 31.9711785 124.418631 29.5269679 121.37021 29.3217048 113.918631 34.90381 113.97442"></polyline>
                    <polyline id="Fill-205" fill="#F49D64" points="19.8259153 113.665999 19.42381 121.040736 17.0617048 126.032315 14.6690732 121.345999 14.2448627 113.802841 19.8259153 113.665999"></polyline>
                    <path d="M34.1743364,121.265999 C35.0111785,122.188105 36.38381,123.603894 37.5143364,124.757578 C38.4374942,125.698631 37.9364416,127.296526 36.6406521,127.53021 C35.9427574,127.655473 35.2648627,127.747052 34.8143364,127.77021 C30.8395995,127.968105 28.3448627,128.065999 28.3648627,126.403894 C28.3880206,124.489157 29.4185469,120.960736 29.4185469,120.960736 C31.7648627,122.643894 34.1743364,121.265999 34.1743364,121.265999" id="Fill-206" fill="#20158A"></path>
                    <path d="M14.6690732,121.345999 C13.8322311,122.268105 12.4595995,123.683894 11.3290732,124.837578 C10.4059153,125.778631 10.9059153,127.376526 12.2027574,127.61021 C12.9006521,127.735473 13.5785469,127.827052 14.0280206,127.849157 C18.0048627,128.047052 20.4985469,128.145999 20.4785469,126.483894 C20.455389,124.569157 19.42381,121.040736 19.42381,121.040736 C17.0785469,122.722841 14.6690732,121.345999 14.6690732,121.345999" id="Fill-207" fill="#20158A"></path>
                    <path d="M35.8543364,116.278631 C33.1290732,118.192315 28.5017048,116.557578 28.5017048,116.557578 C28.5017048,116.557578 27.9090732,95.8228414 27.9090732,89.7786309 C27.9090732,84.3407361 24.8195995,76.4681046 24.5174942,75.075473 C24.2017048,76.4681046 22.66381,83.5891572 22.66381,89.015473 C22.66381,95.0712625 20.5195995,116.557578 20.5195995,116.557578 C20.5195995,116.557578 15.8943364,118.192315 13.1690732,116.278631 C13.1690732,116.278631 12.2722311,94.5144204 12.4417048,88.6396835 C12.56381,84.6428414 11.6301258,75.2449467 11.6301258,68.6323151 C11.6301258,65.8586309 11.7995995,63.5817888 12.2606521,62.3828414 C12.3206521,62.2375783 12.3817048,62.1165256 12.4417048,62.0070519 C13.9795995,59.3786309 24.5174942,60.4207361 24.5174942,60.4207361 C24.5174942,60.4207361 35.1511785,59.3186309 36.5795995,62.0070519 C36.6522311,62.1407361 36.7132837,62.2859993 36.7743364,62.455473 C36.9795995,62.9881046 37.1490732,63.7270519 37.3069679,64.6228414 C38.3490732,70.7028414 38.3974942,83.8923151 38.5417048,88.8091572 C38.7111785,94.683894 35.8543364,116.278631 35.8543364,116.278631" id="Fill-208" fill="#FA4A56"></path>
                    <path d="M37.3069679,64.6228414 C36.9922311,65.1923151 36.6648627,65.6891572 36.3385469,66.0407361 C32.7522311,70.0249467 29.155389,68.8502098 23.7785469,68.8502098 C17.0195995,68.8617888 16.3048627,72.1681046 11.8606521,68.8502098 C11.7764416,68.7891572 11.7027574,68.7175783 11.6301258,68.6323151 C11.6301258,65.8586309 11.7995995,63.5817888 12.2606521,62.3828414 L14.0280206,63.2059993 C15.9543364,64.283894 19.6480206,65.543894 26.3943364,65.543894 C30.9364416,65.5312625 34.1217048,64.4291572 36.7743364,62.455473 C36.9795995,62.9881046 37.1490732,63.7270519 37.3069679,64.6228414" id="Fill-209" fill="#DE2D47"></path>
                    <path d="M17.8574942,8.51968352 C18.6764416,4.03442036 22.695389,1.01020983 26.8301258,1.76705194 C30.9659153,2.52284141 33.655389,6.77126246 32.8343364,11.2575783 C32.215389,14.6491572 31.6017048,18.5544204 28.4101258,18.0744204 L27.8111785,23.9175783 L17.6522311,22.7607361 L20.5511785,16.4396835 C18.4174942,14.6449467 17.2859153,11.6407361 17.8574942,8.51968352" id="Fill-210" fill="#F49D64"></path>
                    <path d="M55.3385469,12.6544204 C54.9143364,13.3775783 54.0595995,14.9744204 53.1006521,15.7133677 C52.9101258,15.8617888 52.6995995,15.9775783 52.4817048,16.0786309 C52.3985469,14.8449467 52.16381,13.5596835 51.5385469,13.4523151 C50.315389,13.243894 50.30381,17.9617888 50.30381,17.9617888 C50.2111785,19.1407361 50.5974942,20.4207361 50.5974942,20.4207361 C50.5080206,21.4165256 47.9880206,27.9617888 47.9880206,27.9617888 L52.86381,26.3491572 L53.2027574,24.7533677 C53.3827574,24.163894 53.7080206,23.6323151 54.1480206,23.1912625 C54.7901258,22.5649467 55.4743364,21.9102098 56.015389,21.1744204 C56.015389,21.1744204 58.9185469,17.1723151 58.3122311,15.1933677 C58.1195995,14.5670519 57.50381,13.5049467 56.9574942,12.6323151 C56.5795995,12.0281046 55.6995995,12.0396835 55.3385469,12.6544204" id="Fill-211" fill="#F49D64"></path>
                    <path d="M53.58381,26.2659993 C53.58381,26.2659993 47.5774942,40.3028414 44.5859153,41.2365256 C41.5943364,42.1807361 34.8595995,37.1302098 34.8595995,37.1302098 L34.3880206,46.1649467 C34.375389,48.1396835 36.495389,55.6123151 37.5006521,59.063894 C37.815389,60.1544204 37.5364416,61.3407361 36.7259153,62.1281046 C36.7132837,62.1523151 36.6901258,62.1765256 36.6648627,62.2007361 C33.7101258,64.9259993 30.2217048,66.4765256 24.8448627,66.4881046 C18.0974942,66.4881046 14.4048627,65.2291572 12.4785469,64.1512625 C11.315389,63.4975783 10.6743364,62.2133677 10.8795995,60.9049467 C11.4606521,57.1017888 12.4174942,48.3459993 12.3690732,42.4470519 C12.3564416,40.8607361 12.2606521,39.4796835 12.0785469,38.4502098 L11.4732837,35.0712625 L25.8501258,19.6049467 L26.2006521,19.2291572 C26.2006521,19.2291572 31.4806521,18.4175783 34.1090732,21.5912625 C36.7259153,24.7765256 42.4059153,32.7459993 42.4059153,32.7459993 L48.4974942,23.455473 C51.92381,22.6786309 53.58381,26.2659993 53.58381,26.2659993" id="Fill-212" fill="#AEBBED"></path>
                    <path d="M11.4732837,15.8775783 C12.9290732,14.2302098 14.6395995,-4.38347438 28.3417048,1.05020983 C33.3585469,3.03968352 33.08381,7.34284141 29.8690732,12.2333677 C23.7111785,21.6017888 30.4206521,23.4912625 27.3690732,30.9333677 C24.275389,38.4786309 14.1374942,40.3986309 7.80907319,35.2544204 C5.59012583,33.4502098 3.97959951,31.0659993 3.86907319,27.9323151 C3.73749425,24.2281046 6.37117846,21.6502098 11.4732837,15.8775783" id="Fill-213" fill="#20158A"></path>
                    <path d="M25.0017048,35.3249467 C22.9059153,40.4491572 17.5659153,42.9681046 12.3690732,42.4470519 C12.3564416,40.8607361 12.2606521,39.4796835 12.0785469,38.4502098 L11.4732837,35.0712625 L25.8501258,19.6049467 C22.7732837,26.4965256 27.7017048,28.7365256 25.0017048,35.3249467" id="Fill-214" fill="#97A8E0"></path>
                    <path d="M9.71012583,31.9975783 C8.98275741,27.8691572 9.14907319,23.343894 13.9617048,16.0796835 C14.8995995,14.6628414 15.8469679,4.9291572 21.5185469,0.161788779 C13.3259153,1.66178878 12.9711785,14.9217888 11.4732837,15.8775783 C4.49433635,20.3323151 3.73749425,24.2281046 3.86907319,27.9323151 C3.97959951,31.0659993 5.59012583,33.4502098 7.80907319,35.2544204 C9.32065214,36.4828414 11.0511785,37.2965256 12.8480206,37.7386309 C11.2848627,36.2512625 10.1280206,34.3786309 9.71012583,31.9975783" id="Fill-215" fill="#0031A4"></path>
                    <path d="M27.3690732,30.9333677 C30.4206521,23.4912625 23.7111785,21.6017888 29.8690732,12.2333677 C33.08381,7.34284141 33.3585469,3.03968352 28.3417048,1.05020983 C25.715389,0.00915720025 23.4617048,-0.194000694 21.5185469,0.161788779 C15.8469679,4.9291572 14.8995995,14.6628414 13.9617048,16.0796835 C9.14907319,23.343894 8.98275741,27.8691572 9.71012583,31.9975783 C10.1280206,34.3786309 11.2848627,36.2512625 12.8480206,37.7386309 C18.5795995,39.1491572 25.0143364,36.6775783 27.3690732,30.9333677" id="Fill-216" fill="#20158A"></path>
                    <path d="M27.2417048,11.8396835 C27.0501258,12.8881046 27.7448627,13.8933677 28.7932837,14.0849467 C29.8417048,14.2765256 30.8469679,13.5817888 31.0385469,12.5333677 C31.2301258,11.4849467 30.5364416,10.4796835 29.4880206,10.2881046 C28.4395995,10.0965256 27.4332837,10.7912625 27.2417048,11.8396835" id="Fill-217" fill="#F49D64"></path>
                    <path d="M36.7259153,62.1281046 L33.055389,59.8270519 C31.5659153,58.8944204 30.7417048,57.3081046 30.7417048,55.6607361 C30.7417048,54.8607361 30.9364416,54.0617888 31.3480206,53.3112625 C32.3290732,51.5059993 32.075389,49.2659993 30.7185469,47.7281046 L29.2164416,46.0323151 C27.9932837,44.6270519 27.6543364,42.6533677 28.3564416,40.9333677 L31.0701258,34.2596835 L34.8595995,37.1302098 L34.3880206,46.1649467 C34.375389,48.1396835 36.495389,55.6123151 37.5006521,59.063894 C37.815389,60.1544204 37.5364416,61.3407361 36.7259153,62.1281046" id="Fill-218" fill="#97A8E0"></path>
                </g>
            </g>
        </g>
    </g>
</svg>