<?xml version="1.0" encoding="UTF-8"?>
<svg width="210px" height="162px" viewBox="0 0 210 162" version="1.1" xmlns="http://www.w3.org/2000/svg" xmlns:xlink="http://www.w3.org/1999/xlink">
    <title>Flexible Pricing Plan</title>
    <defs>
        <polyline id="path-1" points="0.0118640582 4.43609001 0.0522018562 1.69240791 2.65754904 0.0797264713 2.65754904 4.79379137 0.0118640582 4.43609001"></polyline>
        <linearGradient x1="49.4208859%" y1="167.53687%" x2="50.493377%" y2="33.7803896%" id="linearGradient-3">
            <stop stop-color="#FFEBDC" offset="0%"></stop>
            <stop stop-color="#D29263" offset="100%"></stop>
        </linearGradient>
        <path d="M4.85951825,3.9896455 C4.85951825,3.9896455 4.5629168,6.21641059 2.78093525,6.21641059 C1.00014011,6.21641059 0.109149336,6.36482996 0.109149336,4.58356026 C0.109149336,2.80205327 -0.335752848,1.02066493 0.851839381,0.426868815 C2.03943161,-0.166927299 5.00781898,-0.315346668 4.85951825,2.20825716 C4.85951825,2.20825716 5.6022083,1.61446104 5.6022083,2.5050959 C5.6022083,3.39584939 5.6022083,4.28660288 4.85951825,3.9896455" id="path-4"></path>
        <linearGradient x1="-0.00449261108%" y1="50.0008619%" x2="99.9925513%" y2="50.0008619%" id="linearGradient-6">
            <stop stop-color="#FFEBDC" offset="0%"></stop>
            <stop stop-color="#D29263" offset="100%"></stop>
        </linearGradient>
        <path d="M6.40184582,7.28239622 C6.40184582,7.28239622 11.003914,3.86803891 7.88722591,1.49273581 C4.76935141,-0.882448651 3.87836064,1.93811255 1.05827399,0.00830484076 C1.05827399,0.00830484076 -1.61469833,2.23506993 1.79977763,3.71961954 C1.79977763,3.71961954 6.0305008,3.19997379 5.73389934,5.57515824 C5.73389934,5.57515824 6.17998793,4.98136213 6.92149157,5.1297815 C7.66418162,5.27831951 6.62489012,6.76286911 6.40184582,7.28239622" id="path-7"></path>
        <linearGradient x1="-42.6094089%" y1="18.0551051%" x2="108.071099%" y2="64.3035203%" id="linearGradient-9">
            <stop stop-color="#3B3B35" offset="0%"></stop>
            <stop stop-color="#808080" offset="100%"></stop>
        </linearGradient>
        <polyline id="path-10" points="0.0913532484 30.2806358 1.88401245 30.2806358 6.18710637 10.5613846 2.89957583 0.104403712 0.868449063 0.224230701 0.0913532484 30.2806358"></polyline>
        <path d="M5.42780664,0.0794891901 L5.77542355,1.19352426 C5.89999616,1.59334302 5.6022083,1.99790741 5.18459345,1.99790741 L0.0320329572,1.99790741 C0.0320329572,1.99790741 -0.0877940309,1.0392915 1.11047585,0.799637525 C2.30993214,0.558797143 3.38956144,0.0794891901 3.38956144,0.0794891901 L5.42780664,0.0794891901" id="path-12"></path>
        <linearGradient x1="-0.00399440277%" y1="50.0309215%" x2="100.007246%" y2="50.0309215%" id="linearGradient-14">
            <stop stop-color="#3B3B35" offset="0%"></stop>
            <stop stop-color="#808080" offset="100%"></stop>
        </linearGradient>
        <path d="M5.49780458,0.0794891901 L5.8466079,1.19352426 C5.97118051,1.59334302 5.67339265,1.99790741 5.25459139,1.99790741 L0.102030901,1.99790741 C0.102030901,1.99790741 -0.0177960873,1.0392915 1.1816602,0.799637525 C2.37993008,0.558797143 3.45955938,0.0794891901 3.45955938,0.0794891901 L5.49780458,0.0794891901" id="path-15"></path>
        <linearGradient x1="-0.00408855721%" y1="50.0309215%" x2="99.9865787%" y2="50.0309215%" id="linearGradient-17">
            <stop stop-color="#3B3B35" offset="0%"></stop>
            <stop stop-color="#808080" offset="100%"></stop>
        </linearGradient>
        <polyline id="path-18" points="8.65720329 30.2213155 6.62607652 30.2213155 0.102030901 0.237281165 6.38998176 0.0177960873 6.38642255 0.104403712 7.32249674 0.104403712 6.98437108 2.13553048 8.04264507 2.13553048 8.65720329 30.2213155"></polyline>
        <path d="M23.3710083,21.8298671 L21.4585221,21.8298671 L21.7966478,19.7987404 L21.8168167,19.7987404 C21.8168167,19.7987404 22.2949382,15.4968329 22.1751112,13.4645197 C22.0564707,11.4329184 21.3386951,8.44531121 21.3386951,8.44531121 L20.8641328,19.7121328 L14.5761819,19.9316178 L11.538983,20.0372079 L12.5545464,10.7756495 L10.6052817,12.8876892 C10.0144516,13.5273992 9.20413638,13.9189131 8.33568731,13.982979 L2.45491093,14.41839 L0.00628795086,14.5999101 L0.0660828043,12.5085139 L8.3119592,10.3574415 L11.7964331,2.19425757 C12.2389625,1.15698296 13.170291,0.409784571 14.2795805,0.202400833 C14.7849894,0.107725649 15.3734467,0.0892177179 15.9429215,0.0892177179 C16.1268144,0.0892177179 16.3083344,0.0911159672 16.4851089,0.0930142165 C16.6618834,0.0949124658 16.8327258,0.0969293557 16.9964498,0.0969293557 C17.2289854,0.0969293557 17.4449112,0.0930142165 17.6335497,0.0794891901 C17.8471028,0.0643031956 18.1009936,0.0546933084 18.3821718,0.0546933084 C19.2458753,0.0546933084 20.370588,0.145097432 21.4122523,0.438732873 C22.8347529,0.840093963 23.8977725,2.02519474 24.1397993,3.48376206 C24.609616,6.31132306 25.2846809,10.9797113 25.0438405,13.2260521 C24.685546,16.5717165 23.3710083,21.8298671 23.3710083,21.8298671 M12.4952261,5.93546969 L11.5496607,11.8639396 L12.4952261,10.7158547 L12.4952261,5.93546969" id="path-20"></path>
        <linearGradient x1="138.406424%" y1="24.1445077%" x2="-2.6979324%" y2="81.7963963%" id="linearGradient-22">
            <stop stop-color="#006CDB" offset="0%"></stop>
            <stop stop-color="#7CE0F6" offset="100%"></stop>
        </linearGradient>
        <path d="M5.23632074,2.39416695 C5.23632074,2.39416695 3.79234621,3.09414639 2.71675069,2.9755058 C1.64115518,2.85567882 -0.151385383,1.89943572 0.0875567497,1.30148719 C0.326617523,0.704250497 2.47780856,1.42131418 2.59727963,0.943192629 C2.71675069,0.465189723 1.76074488,0.58477943 1.76074488,0.22612895 C1.76074488,-0.132284249 2.59727963,-0.0128131829 3.07528253,0.22612895 C3.55340408,0.465189723 5.22647357,0.704250497 5.22647357,0.704250497 L5.23632074,2.39416695" id="path-23"></path>
        <linearGradient x1="-43.5521357%" y1="50.0129172%" x2="145.221412%" y2="50.0129172%" id="linearGradient-25">
            <stop stop-color="#FFEBDC" offset="0%"></stop>
            <stop stop-color="#D29263" offset="100%"></stop>
        </linearGradient>
        <path d="M0.459139054,0 C0.459139054,0 0.100844495,1.19589707 0.100844495,1.55419163 C0.100844495,1.91248619 0.219485077,2.27078075 0.459139054,1.91248619 C0.697606624,1.55419163 0.578966042,2.74890229 0.459139054,3.34685083 C0.339312065,3.94479936 1.41538215,4.30309392 2.25179825,3.34685083 C3.08821436,2.39060773 2.25179825,0 2.25179825,0 L0.459139054,0" id="path-26"></path>
        <linearGradient x1="-53.5663897%" y1="49.9907616%" x2="183.116633%" y2="49.9907616%" id="linearGradient-28">
            <stop stop-color="#FFEBDC" offset="0%"></stop>
            <stop stop-color="#D29263" offset="100%"></stop>
        </linearGradient>
        <polyline id="path-29" points="0.0415242038 5.93191047 0.987089645 0.00344057689 0.987089645 4.78382556 0.0415242038 5.93191047"></polyline>
        <linearGradient x1="111.08998%" y1="-41.6069642%" x2="15.8515467%" y2="239.479688%" id="linearGradient-31">
            <stop stop-color="#0061C5" offset="0%"></stop>
            <stop stop-color="#6FC9DD" offset="100%"></stop>
        </linearGradient>
        <polyline id="path-32" points="1.03454588 0.223044295 0.0984716833 0.223044295 0.102030901 0.13643667 1.05471478 0.103217307 1.03454588 0.223044295"></polyline>
        <path d="M1.05471478,11.375259 L1.03454588,11.375259 L1.05471478,11.255432 L0.102030901,11.2886514 L0.57659323,0.0218298671 C0.57659323,0.0218298671 1.29436875,3.00943701 1.41300934,5.04103834 C1.53283632,7.07335152 1.05471478,11.375259 1.05471478,11.375259" id="path-34"></path>
        <linearGradient x1="63.6227903%" y1="-43.8325531%" x2="27.0897954%" y2="102.943697%" id="linearGradient-36">
            <stop stop-color="#0061C5" offset="0%"></stop>
            <stop stop-color="#6FC9DD" offset="100%"></stop>
        </linearGradient>
        <path d="M5.721798,2.47638487 C5.48143218,1.59452943 5.07057985,0.331956349 3.46952519,0.14474151 C1.86847053,-0.0424733285 0.310601044,0.652523203 0.0730825987,1.83098011 C-0.164435847,3.00931837 0.321753259,4.59767849 0.450715572,5.47704248 C0.579559245,6.35628784 0.405750792,8.39868546 0.405750792,8.39868546 L3.76339791,9.02736191 C3.76339791,9.02736191 3.82865023,7.08853751 4.1282177,6.73356489 C4.29585684,6.53484191 4.85334894,6.21593603 5.48807606,5.89786063 C5.76545774,5.75881387 6.04272078,5.40301076 6.03702603,4.75226717 C6.02848391,3.77905847 6.04165301,3.35503703 5.96584168,3.05357131 C5.91138565,2.83705224 5.7741185,2.66834534 5.721798,2.47638487" id="path-37"></path>
        <linearGradient x1="112.428338%" y1="36.6686211%" x2="4.4863726%" y2="60.214478%" id="linearGradient-39">
            <stop stop-color="#FFEBDC" offset="0%"></stop>
            <stop stop-color="#D29263" offset="100%"></stop>
        </linearGradient>
        <path d="M0.328753054,0.111166226 L0.111878069,3.99273016 C0.0909973266,4.36715983 0.152215867,4.74087767 0.29126263,5.08849458 L1.79479473,8.84702822 L2.77452866,7.86705701 L1.79479473,4.13177692 L2.00502584,0.407174478 L0.328753054,0.111166226" id="path-40"></path>
        <linearGradient x1="35.448278%" y1="44.4679695%" x2="54.5958127%" y2="52.4756563%" id="linearGradient-42">
            <stop stop-color="#FFEBDC" offset="0%"></stop>
            <stop stop-color="#D29263" offset="100%"></stop>
        </linearGradient>
        <path d="M5.06796975,3.71819585 L0.583237103,0.113894959 C0.583237103,0.113894959 -0.4686303,2.65043061 0.365887556,5.30916606 C0.776383971,6.61658528 0.340023909,7.54554103 0.561525876,8.16484487 C0.768316411,8.74381092 2.28881411,16.9727217 2.20446066,17.5789751 C2.12010721,18.1852285 1.4500252,19.89128 1.22128615,21.6756344 C0.96976812,23.6355768 1.13325484,29.6198078 1.00369933,32.0483805 L0.999665547,32.0471941 C0.999665547,32.0471941 0.892533101,33.8576494 0.68870858,34.2562817 C0.484765419,34.6561005 0.19551968,35.1033755 0.155656444,35.6384445 C0.13252153,35.9480964 0.313092497,36.2731716 0.672929383,36.4463869 C1.03288491,36.6196021 1.26636958,36.4238452 1.39533189,36.4368956 C2.14193707,36.5092664 2.28774635,37.0716228 3.57060697,37.2519564 C3.96627331,37.3077175 4.56564553,37.1594168 4.90626264,36.879425 C5.03819097,36.7702757 5.02929292,36.5982468 4.95110878,36.4819791 C4.872806,36.3657113 3.92261357,36.0643642 3.49052457,35.8033549 C3.07872311,35.5530233 2.6656166,34.844739 2.54958611,34.6003394 C2.51945141,34.5374599 2.52170558,34.359499 2.54128127,34.1317091 L2.54139991,34.1317091 C2.58933071,33.7496864 2.64378674,33.3534269 2.70322567,32.9441169 C2.75435976,32.6368378 2.79659581,32.4090479 2.79659581,32.4090479 L2.7834267,32.4066751 C3.5891149,27.1247963 5.15695019,20.130934 5.36563898,17.7272758 C5.59817452,15.0519307 5.36124927,10.1663115 5.06796975,3.71819585" id="path-43"></path>
        <linearGradient x1="-0.000275298647%" y1="50.001958%" x2="99.9990715%" y2="50.001958%" id="linearGradient-45">
            <stop stop-color="#FFEBDC" offset="0%"></stop>
            <stop stop-color="#D29263" offset="100%"></stop>
        </linearGradient>
        <path d="M5.12681548,2.4451824 C5.21615184,2.28383121 5.23418521,2.04180442 5.14603526,1.98485694 C5.0239541,1.90655416 4.58961093,1.63368082 4.33904202,1.52571789 C4.08847311,1.41775496 3.69292541,1.32640171 3.83327721,1.39758606 C3.97351038,1.46877041 3.72519564,1.75469421 3.49301602,1.74638937 C2.69076841,1.71672923 2.08736241,1.19826988 1.62834199,1.09505257 C0.965852981,0.945565441 0.671505696,0.175588062 0.639472739,0.0498290446 C0.516798377,0.131691046 0.242145428,0.76404535 0.188163964,0.963361528 C0.139284044,1.14250881 0.0519645751,1.46995681 0.106776524,1.65384972 C0.144860151,1.78079514 0.228620402,2.0370588 0.19563832,2.30874573 C0.19563832,2.30874573 0.327803929,2.4048446 0.673166664,2.46772411 C0.891821257,2.50806191 1.18308389,2.46297849 1.18308389,2.46297849 L1.22982828,2.04773645 C1.22982828,2.04773645 1.40885691,2.0370588 1.63818916,2.078583 C1.86728412,2.12010721 2.24467982,2.32891463 2.26745881,2.35382915 C2.36142215,2.46060568 2.43948765,2.65873545 2.56192473,2.71686933 C2.88593216,2.86991569 3.21041416,2.93991363 3.61877504,2.95296409 C4.47891926,2.98262424 4.97424369,2.72161496 5.12681548,2.4451824" id="path-46"></path>
        <linearGradient x1="-69.0324287%" y1="61.6697788%" x2="131.57684%" y2="40.9491853%" id="linearGradient-48">
            <stop stop-color="#3B3B35" offset="0%"></stop>
            <stop stop-color="#808080" offset="100%"></stop>
        </linearGradient>
        <path d="M10.8062588,37.2697525 C10.7108718,37.1665352 9.6906814,37.0111161 9.21078025,36.8165455 C8.75365808,36.6302798 8.19604735,36.0240264 8.08618617,35.7665763 C7.97632499,35.5079399 7.98759584,34.1922158 7.99578204,33.6405371 C8.05261088,29.83692 8.66123707,20.5390576 8.74048898,18.3121739 C8.87811206,14.4433045 8.33568731,10.4557945 6.78481762,4.26156972 L1.20076133,0.0652523203 C1.20076133,0.0652523203 -0.3218719,2.96601456 0.225535747,5.71966247 C0.543136586,7.31656471 1.87297887,7.54910025 2.10373481,8.16840409 C2.33449074,8.78889434 5.78835537,18.7819906 5.78835537,18.7819906 C5.78835537,18.7819906 5.15801796,20.9566725 5.14413701,23.3330433 C5.13239159,25.3606109 6.11366785,31.4670416 6.30776384,33.7947699 C6.33244108,34.2503497 6.42189608,35.3394703 6.2912728,35.6870872 C6.13110801,36.1141933 5.71717102,36.6184157 5.74362787,37.1546712 C5.75905115,37.4655095 5.98660378,37.7597381 6.38060916,37.8771923 C6.77449589,37.9946465 6.99113359,37.7656702 7.1259093,37.7585517 C7.90680161,37.7182139 8.12854086,38.2544694 9.477247,38.2405111 C9.89320088,38.2354869 10.4939968,37.9993921 10.8104112,37.6695713 C10.9329669,37.5414395 10.9018831,37.3729698 10.8062588,37.2697525" id="path-49"></path>
        <linearGradient x1="-2.42012034e-05%" y1="50.001189%" x2="99.9998091%" y2="50.001189%" id="linearGradient-51">
            <stop stop-color="#FFEBDC" offset="0%"></stop>
            <stop stop-color="#D29263" offset="100%"></stop>
        </linearGradient>
        <path d="M5.35116482,1.79621842 C5.42294238,1.62300317 5.41084104,1.37978997 5.31260664,1.33707936 C5.17652589,1.27775907 4.69306551,1.07251086 4.42042946,1.00251292 C4.14767476,0.933701383 3.72744982,0.902854831 3.88144529,0.952683876 C4.03544077,1.00251292 3.81512521,1.32284249 3.57404754,1.34894342 C2.74107201,1.44029667 2.05188887,1.01674979 1.56451336,0.983530427 C0.860974706,0.936074194 0.595694364,0.214739454 0.546695803,0.0949124658 C0.430428033,0.194570555 0.090048202,0.864889845 0.0593202912,1.06895165 C0.0315583949,1.25403096 -0.0172028844,1.59215661 0.0628795086,1.76655827 C0.118403301,1.88638526 0.237281165,2.12722564 0.237637086,2.40247179 C0.237637086,2.40247179 0.386293736,2.47721536 0.751232167,2.48789301 C0.982225381,2.49501145 1.27764043,2.40721742 1.27764043,2.40721742 L1.27336937,1.98841616 C1.27336937,1.98841616 1.45702499,1.95045117 1.69917042,1.95756961 C1.94131585,1.96350164 2.24159516,2.08451503 2.38870948,2.19366437 C2.50402813,2.27789918 2.62610929,2.42264069 2.76159683,2.45467365 C3.15251755,2.54839971 3.43310253,2.57450064 3.85700533,2.525858 C4.74953843,2.42619991 5.22837182,2.09281987 5.35116482,1.79621842" id="path-52"></path>
        <linearGradient x1="-54.5270515%" y1="61.6649114%" x2="108.064973%" y2="41.8731294%" id="linearGradient-54">
            <stop stop-color="#3B3B35" offset="0%"></stop>
            <stop stop-color="#808080" offset="100%"></stop>
        </linearGradient>
        <path d="M16.4683806,7.2902265 C15.9379385,7.53960901 15.4417836,7.4893054 14.9653231,7.22129632 C15.0067286,7.10775729 15.1139797,7.16506069 15.3185161,7.04096264 C15.5453569,6.9034582 15.6076432,6.71161638 15.566119,6.60946684 C15.5346792,6.53235046 15.2411624,6.65443162 15.167012,6.66131277 C14.8853593,6.6874137 14.6037066,6.71351463 14.3221725,6.73961556 C14.0124019,6.76820794 13.8228142,6.8204098 13.5364159,7.02767489 C13.5203994,7.03918303 13.4613164,7.09162217 13.3968946,7.15901002 C11.5985406,7.21227964 7.30066687,5.21401631 6.57245098,5.14271332 C6.09361759,5.09573165 1.53781923,0.0563542766 1.53781923,0.0563542766 L0.0542187461,3.3295293 C1.58456362,4.82155327 4.56113719,7.17787387 5.00900539,7.44991673 C6.69429486,8.47331039 12.6105448,8.6987275 13.140275,8.71770999 C13.293084,8.99651536 14.1412456,9.22786449 14.6234009,9.13057921 C15.393141,8.97397365 16.5572424,9.3322682 17.1732243,7.68862158 C17.2434595,7.50105082 16.8499287,7.11107922 16.4683806,7.2902265" id="path-55"></path>
        <linearGradient x1="109.820381%" y1="64.3955947%" x2="2.94467884%" y2="44.5097139%" id="linearGradient-57">
            <stop stop-color="#FFEBDC" offset="0%"></stop>
            <stop stop-color="#D29263" offset="100%"></stop>
        </linearGradient>
        <path d="M1.24465835,0.0748622074 C1.24465835,0.0748622074 0.360786011,2.4571651 0.0718961929,4.34188939 L2.21051133,4.67823544 L2.21051133,1.64934138" id="path-58"></path>
        <path d="M7.76051777,0.0557610737 C7.79717771,0.396259545 9.61961569,4.20580864 9.84550736,8.29060389 C9.99523178,10.9991684 10.0346205,12.5521736 9.82332157,14.506184 C7.92186896,15.6261511 3.72092458,15.7566557 1.65218875,14.2570388 C1.67876424,12.6399676 1.22484537,10.5530798 1.00393661,9.13532484 C0.906769971,8.51246178 0.277263041,6.79929177 0.195163758,6.17642872 C-0.115081365,3.82141316 0.476460579,1.61469833 2.01795766,0.283550992 L7.76051777,0.0557610737" id="path-60"></path>
        <filter id="filter-62">
            <feColorMatrix in="SourceGraphic" type="matrix" values="0 0 0 0 0.486067 0 0 0 0 0.100261 0 0 0 0 0.100261 0 0 0 1.000000 0"></feColorMatrix>
        </filter>
        <path d="M7.43615442,9.27638849 C8.2482492,8.51969886 9.63919139,6.4348279 9.63919139,6.4348279 C9.63919139,6.4348279 8.50581791,4.74586057 8.25121522,3.55114991 C8.10338905,2.85793299 7.43057831,2.15569938 7.1346887,1.873928 C6.53068949,0.817789534 5.68798544,0.0556424331 5.49566905,0.0251518034 C5.36041879,0.00261009281 4.58628899,0.0126945423 3.67263787,0.0340498471 C1.59334302,0.0824552047 -0.0217112266,1.85613191 0.113420397,3.93151162 C0.173927094,4.85904369 0.311312888,5.77945733 0.51549333,6.90701742 C0.732486955,8.09769431 0.769384176,10.7654464 0.718606007,11.9376154 C0.695471094,12.4726844 0.446325871,12.6257308 0.446325871,12.8974177 C0.446325871,13.290118 1.10632343,13.5072303 1.74781306,13.3779121 C2.43094553,13.2438482 4.85417943,13.4289275 6.38654119,13.1513085 C6.85718838,13.0682601 7.28654864,12.9353827 7.50805061,12.7182704 C7.60497997,12.6304764 7.66026648,12.5236999 7.66963908,12.3991273 C7.68802837,12.1867606 7.58647204,11.7952467 7.56808275,11.5828801 C7.49820344,10.7243968 7.44054412,9.92891169 7.43615442,9.27638849" id="path-63"></path>
        <path d="M11.7009274,2.70227654 C12.279063,2.47484255 12.2013534,0.961937841 11.4817983,0.507663052 C10.0673653,-0.38498869 5.43884021,-0.388903829 5.26289623,4.55401875 C5.08695225,9.49694133 0.920650919,11.5770667 0.507069849,11.8319066 C-0.31178745,12.336485 0.137385794,12.6189683 1.67010348,13.2073069 C2.7588681,13.6252777 2.57912762,14.372832 3.16817811,14.6333667 C3.75710996,14.8936641 4.24721421,14.8925964 5.19242373,14.3876621 C6.13763324,13.8826091 6.08436362,14.8756308 6.7031929,15.053473 C7.9623254,15.4150895 8.3409075,14.0443162 8.12403251,13.2118152 C7.90715753,12.3793143 6.96645635,5.8913354 8.77169145,4.90756769 C9.59256564,4.46017405 10.0003333,5.57907338 10.0003333,5.57907338 C10.0003333,5.57907338 10.5470291,3.15631405 11.7009274,2.70227654" id="path-65"></path>
        <linearGradient x1="16.810792%" y1="126.704692%" x2="77.1717356%" y2="11.3460716%" id="linearGradient-67">
            <stop stop-color="#3B3B35" offset="0%"></stop>
            <stop stop-color="#808080" offset="100%"></stop>
        </linearGradient>
    </defs>
    <g id="Page-1" stroke="none" stroke-width="1" fill="none" fill-rule="evenodd">
        <g id="Benefits-design" transform="translate(-588.000000, -1290.000000)">
            <g id="Flexible-Pricing-Plan" transform="translate(588.000000, 1290.000000)">
                <path d="M40.7416505,68.1894469 C40.6170779,68.6462131 40.5008101,69.1053522 40.3928472,69.5680504 C39.6608348,72.6942298 39.298981,75.9200672 39.281185,79.1696328 C39.2788121,79.6999562 39.2847442,80.2326524 39.3013539,80.7653486 C39.3915207,83.8879687 39.7960851,87.0200801 40.4925053,90.0976168 C40.6158915,90.6481091 40.7499554,91.197415 40.8923241,91.7443481 C41.7987381,95.2074667 43.0741244,98.5816048 44.6852635,101.768291 C44.9545776,102.300987 45.233383,102.827751 45.5204932,103.348583 C47.6987343,107.296942 50.4072988,110.921412 53.5809343,114.02149 C54.1456635,114.575542 54.725816,115.112984 55.3225781,115.630257 C56.0059478,116.228205 56.7083001,116.800053 57.4308212,117.349359 C58.3455401,118.04222 59.7846504,119.221507 61.1727452,119.61658 C61.6235794,119.744712 62.0708544,119.790982 62.4908421,119.710306 C62.5798225,119.69251 62.6676165,119.669968 62.7542242,119.641495 C65.1199174,118.853721 65.5161769,113.574215 65.7392212,111.451735 C65.8210832,110.691249 65.8792171,109.930763 65.9183685,109.171463 C65.9681975,108.251999 65.98718,107.332534 65.9800616,106.415442 C65.9587063,103.583492 65.685833,100.764592 65.2243211,97.9694194 C65.1163582,97.3085914 64.9953448,96.6489497 64.8672129,95.9904945 C64.8624673,95.9667664 64.8565353,95.9442247 64.8529761,95.9204966 C64.2823149,93.0280392 63.5277608,90.1652419 62.6593117,87.3380368 C62.4991469,86.8077134 62.3318637,86.2762036 62.1598349,85.7458802 C61.5903601,83.9733899 60.9805475,82.2151365 60.3517524,80.4758656 C60.1263353,79.8553753 59.8997318,79.2372579 59.6731282,78.6203269 C59.5022858,78.1564422 59.3314434,77.6913711 59.1606009,77.2298592 C58.1806297,74.5711238 57.2042177,71.9206932 56.3322094,69.2263655 C56.1779767,68.7529896 56.0284896,68.2784273 55.8825616,67.8014922 C55.6535853,67.0611749 55.4364731,66.3172985 55.228852,65.5698628 C54.7412392,63.8068637 54.3034555,62.027255 53.9475337,60.2345958 C53.8395708,59.6924084 53.7387263,59.1502209 53.6461867,58.606847 C53.58568,58.2509253 53.5287325,57.8961899 53.4753442,57.5402682 C53.3602629,56.7643588 52.740959,53.6429251 52.6389281,51.4741752 C52.6306233,51.3175696 52.5855399,51.1787602 52.5131691,51.0624924 C52.2474142,50.6306407 51.6198055,50.4953904 51.1950722,50.8821587 L51.1808354,50.8952092 C48.7842956,53.0817551 46.7757105,55.5115142 45.1301657,58.1204206 C44.879834,58.519053 44.6366208,58.9200582 44.4040853,59.325809 C42.7929462,62.1197947 41.5816259,65.0988597 40.7416505,68.1894469" id="Fill-27" fill="#CF2959"></path>
                <path d="M48.4817621,74.2045244 C45.9013295,72.1994985 43.3208968,70.1944727 40.7416505,68.1894469 C40.6170779,68.6462131 40.5008101,69.1053522 40.3928472,69.5680504 C43.1571728,71.7166314 45.9203119,73.8652123 48.6858239,76.0114205 C49.118862,79.4223372 49.8152823,82.8047802 50.7086458,86.1362077 C50.2447612,85.8906217 49.7832493,85.6438493 49.3217374,85.3911449 C48.338207,84.8537031 47.361795,84.3008379 46.3948743,83.7325495 C43.9639287,82.3053033 41.5899307,80.7819583 39.281185,79.1696328 C39.2788121,79.6999562 39.2847442,80.2326524 39.3013539,80.7653486 C39.8530326,81.1449984 40.4082705,81.5175299 40.9670676,81.8865021 C43.0005672,83.2295135 45.0791502,84.5025269 47.198071,85.704356 C48.2409217,86.2963725 49.2932637,86.870593 50.3550969,87.4270173 C50.6137334,87.5622675 50.8937252,87.7426012 51.1891402,87.8505642 C52.004201,90.6659052 52.9521393,93.4409084 53.9938036,96.1637098 C54.0222773,96.2384533 54.0531239,96.3120105 54.0815976,96.3867541 C49.5127488,94.3734234 44.9818649,92.2782307 40.4925053,90.0976168 C40.6158915,90.6481091 40.7499554,91.197415 40.8923241,91.7443481 C45.4754098,93.9546221 50.1012061,96.0782885 54.763781,98.1129745 C55.8090045,100.694594 56.930158,103.252485 57.9255525,105.853086 C53.5631383,104.3333 49.1473358,102.971306 44.6852635,101.768291 C44.9545776,102.300987 45.233383,102.827751 45.5204932,103.348583 C49.8971443,104.557531 54.2310847,105.919525 58.5140098,107.433379 C59.1202631,109.124007 59.6565186,110.838363 60.0693878,112.591871 C60.2580263,113.395068 60.4205639,114.200637 60.5653054,115.010953 C60.0658286,114.97536 59.5627925,114.891126 59.0704341,114.831805 C57.2338779,114.607575 55.4032537,114.337074 53.5809343,114.02149 C54.1456635,114.575542 54.725816,115.112984 55.3225781,115.630257 C56.8494824,115.866351 58.3823187,116.070413 59.9187143,116.241256 C60.2188749,116.274475 60.5059851,116.307694 60.7776721,116.310067 C60.9413961,117.407492 61.0719007,118.51085 61.1727452,119.61658 C61.6235794,119.744712 62.0708544,119.790982 62.4908421,119.710306 C62.3769471,118.427801 62.2262736,117.148856 62.0305166,115.877029 C62.1289883,115.78093 62.2227144,115.668221 62.3105084,115.530598 C62.9654044,114.496053 63.5265744,113.390322 64.1304549,112.32493 C64.7272171,111.273774 65.3227928,110.222619 65.9183685,109.171463 C65.9681975,108.251999 65.98718,107.332534 65.9800616,106.415442 C65.074834,108.013531 64.1696063,109.61162 63.2620059,111.209708 C62.7399873,112.127987 62.2191551,113.047451 61.6971366,113.966916 C61.4895156,112.897964 61.245116,111.836131 60.9568193,110.781416 C60.6269985,109.5784 60.2437894,108.393181 59.8297338,107.221012 C61.6271386,104.136357 63.4257299,101.054075 65.2243211,97.9694194 C65.1163582,97.3085914 64.9953448,96.6489497 64.8672129,95.9904945 C62.9938781,99.2032815 61.1217298,102.414882 59.2472086,105.627669 C58.2435092,102.985543 57.1081189,100.388501 56.0391672,97.7701032 C58.1782569,94.2500372 60.3837853,90.7714953 62.6593117,87.3380368 C62.4991469,86.8077134 62.3318637,86.2762036 62.1598349,85.7458802 C59.8475299,89.2054396 57.6075957,92.7112688 55.4352866,96.260995 C55.2205472,95.7176212 55.0105534,95.1730609 54.807678,94.6273142 C53.9463473,92.3007724 53.1562011,89.9457568 52.4621537,87.563454 C52.5689302,87.4507454 52.665029,87.3249864 52.7575687,87.1968546 C54.9215729,84.2237216 57.2232002,81.3585515 59.6731282,78.6203269 C59.5022858,78.1564422 59.3314434,77.6913711 59.1606009,77.2298592 C58.0797852,78.4210107 57.0250704,79.6370766 55.9988294,80.8780571 C54.6214123,82.5437709 53.2961969,84.2533817 52.0243699,86.0009575 C51.3587962,83.5534023 50.8011855,81.0785597 50.3764522,78.5776162 C50.2376427,77.7601826 50.1142565,76.9380034 50.0086664,76.1110785 C52.0813174,73.7845367 54.1883741,71.4888415 56.3322094,69.2263655 C56.1779767,68.7529896 56.0284896,68.2784273 55.8825616,67.8014922 C53.8241475,69.96431 51.7989528,72.1567879 49.805791,74.3777396 C49.4902071,71.280034 49.4083451,68.1491091 49.5934244,65.0419122 C49.6776592,65.00632 49.7535892,64.9553046 49.8093502,64.8924251 C51.1879538,63.3406063 52.5677438,61.7864146 53.9475337,60.2345958 C53.8395708,59.6924084 53.7387263,59.1502209 53.6461867,58.606847 C52.3506315,60.0649398 51.0538899,61.5230325 49.7583348,62.9823117 C50.165272,58.9034485 51.0527035,54.8874648 52.5131691,51.0624924 C52.2474142,50.6306407 51.6198055,50.4953904 51.1950722,50.8821587 L51.1808354,50.8952092 C49.799859,54.6039138 48.9278507,58.4965113 48.4983718,62.4413106 C47.3356941,61.0318605 46.2133542,59.589191 45.1301657,58.1204206 C44.879834,58.519053 44.6366208,58.9200582 44.4040853,59.325809 C45.6616755,61.012878 46.9726539,62.6596093 48.3299022,64.2683756 C48.0843162,67.5891255 48.1555005,70.908689 48.4817621,74.2045244" id="Fill-28" fill="#181A44"></path>
                <path d="M27.6544079,82.9186752 C27.7030505,83.2662921 27.7576252,83.6127226 27.8181319,83.9603395 C28.2298147,86.3011182 28.9226757,88.6027455 29.8563771,90.8201379 C30.0094235,91.1831781 30.1672154,91.5426591 30.3333122,91.9009536 C31.3037922,94.0020784 32.4913844,96.0165954 33.8604968,97.9089127 C34.1048964,98.2482248 34.355228,98.5827912 34.612678,98.9137985 C36.238054,101.007805 38.0876607,102.934528 40.1128554,104.635834 C40.4497947,104.920571 40.7938524,105.19819 41.1414693,105.468691 C43.7729174,107.523546 46.6724932,109.203496 49.7357931,110.391088 C50.2815398,110.603455 50.8320321,110.800398 51.3896428,110.978359 C52.0279291,111.187167 52.6733339,111.372246 53.3246707,111.53597 C54.1492227,111.742405 55.4732516,112.125614 56.5338984,111.99155 C56.8779561,111.946466 57.1947265,111.847995 57.4581086,111.67122 C57.5138696,111.633255 57.5660715,111.592917 57.617087,111.546648 C58.9980633,110.323463 57.7321683,106.612386 57.2670972,105.102091 C57.099814,104.559904 56.9194803,104.026021 56.7249098,103.496884 C56.4911878,102.856225 56.2361106,102.225057 55.9644236,101.60338 C55.1256347,99.6802166 54.1195626,97.8412876 52.9912907,96.0723565 C52.7255357,95.6535553 52.451476,95.2394996 52.1726706,94.8290032 C52.1631794,94.8135799 52.1525017,94.7993431 52.1430105,94.7851062 C50.9127076,92.9817693 49.5649506,91.2519897 48.1519413,89.5791574 C47.8873728,89.2647599 47.6192451,88.9515488 47.3475582,88.6407104 C46.4435169,87.5990461 45.5181204,86.5799235 44.5832326,85.578597 C44.2498525,85.2214889 43.9152861,84.8667535 43.5807197,84.5120182 C43.3292016,84.2462633 43.0776836,83.979322 42.827352,83.7147535 C41.3858689,82.1890356 39.9503178,80.6692497 38.5717143,79.0889572 C38.3296875,78.8101518 38.0888471,78.5313464 37.8515659,78.2489818 C37.4802209,77.8111981 37.1159943,77.3686687 36.7565134,76.9190209 C35.9117924,75.8607469 35.0967316,74.776372 34.3314999,73.6587777 C34.1001507,73.3218385 33.8735472,72.98134 33.6528757,72.6384687 C33.5081342,72.414238 33.3657655,72.1888209 33.2257696,71.9622174 C32.9220497,71.4674861 31.5920888,69.5217806 30.890923,68.0755519 C30.8399075,67.9711482 30.7687232,67.8892862 30.6856748,67.8311523 C30.3795821,67.61404 29.9121382,67.7053933 29.7353637,68.0921616 L29.7294317,68.105212 C28.7340372,70.291758 28.0732091,72.5316922 27.7125418,74.7858632 C27.6579671,75.1299209 27.6093245,75.4739786 27.5689867,75.8180363 C27.2854357,78.1896615 27.3269599,80.570778 27.6544079,82.9186752" id="Fill-29" fill="#F0426A"></path>
                <path d="M34.6755576,84.7623498 C32.3347789,84.1477916 29.9940002,83.5344198 27.6544079,82.9186752 C27.7030505,83.2662921 27.7576252,83.6127226 27.8181319,83.9603395 C30.3250074,84.6176083 32.8330693,85.2760635 35.3399448,85.9333324 C36.6271951,88.1293695 38.0864743,90.2304942 39.664394,92.2390793 C39.2776257,92.2070463 38.8908574,92.1726406 38.5029027,92.135862 C37.6771643,92.0551864 36.8514258,91.9626467 36.0280602,91.858243 C33.957782,91.5924881 31.8969951,91.247244 29.8563771,90.8201379 C30.0094235,91.1831781 30.1672154,91.5426591 30.3333122,91.9009536 C30.8197386,91.9994253 31.306165,92.091965 31.7937778,92.1809454 C33.5698273,92.5036478 35.3553681,92.7646571 37.1480273,92.9663461 C38.0307132,93.0660042 38.9133992,93.150239 39.7984579,93.2202369 C40.0143838,93.238033 40.257597,93.2783708 40.4901325,93.2665067 C41.8651768,94.9464574 43.3173376,96.5599693 44.8193273,98.1106017 C44.8608515,98.1533123 44.9023757,98.1948365 44.9439,98.2375471 C41.2470594,98.1960229 37.5525917,98.08806 33.8604968,97.9089127 C34.1048964,98.2482248 34.355228,98.5827912 34.612678,98.9137985 C38.3759573,99.0858273 42.1439822,99.1854854 45.9108207,99.2139591 C47.3736591,100.667306 48.8815809,102.082688 50.3171319,103.563323 C46.9038424,103.799418 43.5000441,104.156526 40.1128554,104.635834 C40.4497947,104.920571 40.7938524,105.19819 41.1414693,105.468691 C44.4728968,105.017856 47.8209341,104.684476 51.1772761,104.469737 C52.0825038,105.443776 52.9462072,106.454594 53.7375399,107.528291 C54.0993937,108.02065 54.4446378,108.522499 54.7792042,109.031467 C54.4292145,109.152481 54.0614287,109.242648 53.7090662,109.344678 C52.3933421,109.726701 51.0681268,110.075504 49.7357931,110.391088 C50.2815398,110.603455 50.8320321,110.800398 51.3896428,110.978359 C52.4977458,110.695995 53.6011032,110.387529 54.6973422,110.057708 C54.9108953,109.993642 55.1161435,109.931949 55.3012228,109.853647 C55.7330745,110.553626 56.1423845,111.267842 56.5338984,111.99155 C56.8779561,111.946466 57.1947265,111.847995 57.4581086,111.67122 C57.0072744,110.831245 56.532712,110.003134 56.0284896,109.195191 C56.067641,109.101465 56.0984875,108.997062 56.1186564,108.877235 C56.2633979,107.982685 56.3239046,107.065593 56.4247491,106.165111 C56.5255936,105.276493 56.6252517,104.386689 56.7249098,103.496884 C56.4911878,102.856225 56.2361106,102.225057 55.9644236,101.60338 C55.8125637,102.954697 55.6618902,104.306013 55.5088438,105.658516 C55.4210498,106.435611 55.3332557,107.213894 55.2454617,107.990989 C54.7934411,107.323043 54.3176924,106.671706 53.8146563,106.038165 C53.2404359,105.314458 52.6341825,104.619224 52.0113194,103.9406 C52.337581,101.318643 52.665029,98.6954998 52.9912907,96.0723565 C52.7255357,95.6535553 52.451476,95.2394996 52.1726706,94.8290032 C51.8321722,97.5601094 51.4916737,100.292402 51.1511752,103.025881 C49.6990145,101.519146 48.1697374,100.081222 46.6796117,98.6088922 C47.1114634,95.5894893 47.601449,92.5795778 48.1519413,89.5791574 C47.8873728,89.2647599 47.6192451,88.9515488 47.3475582,88.6407104 C46.7804562,91.6684181 46.2750473,94.7079898 45.8289587,97.7570528 C45.5252388,97.4497737 45.2238917,97.1401218 44.9261039,96.8269106 C43.6625817,95.4945769 42.4393973,94.1207189 41.2743467,92.6994048 C41.3134981,92.5926282 41.3419719,92.4787333 41.3680728,92.3648383 C41.9755126,89.7108485 42.7098978,87.090078 43.5807197,84.5120182 C43.3292016,84.2462633 43.0776836,83.979322 42.827352,83.7147535 C42.4382109,84.8406526 42.0739843,85.9748566 41.7358586,87.1185518 C41.2826516,88.6537609 40.8780872,90.2032069 40.520979,91.764517 C39.3559285,90.2910009 38.2549439,88.7676559 37.2381941,87.1885497 C36.9060005,86.6724632 36.5821117,86.1480718 36.270087,85.616562 C37.0044722,83.4288297 37.7708903,81.2529614 38.5717143,79.0889572 C38.3296875,78.8101518 38.0888471,78.5313464 37.8515659,78.2489818 C37.0792158,80.3204464 36.3377121,82.4025886 35.627055,84.4954085 C34.5118336,82.4773322 33.5437264,80.369089 32.7654442,78.2003392 C32.8129004,78.1505102 32.849679,78.0947491 32.8698479,78.0354288 C33.3562743,76.577336 33.8438871,75.1180569 34.3314999,73.6587777 C34.1001507,73.3218385 33.8735472,72.98134 33.6528757,72.6384687 C33.1949231,74.0087674 32.7369704,75.3790661 32.2778314,76.7493649 C31.3690445,73.8545347 30.8043154,70.8612328 30.6856748,67.8311523 C30.3795821,67.61404 29.9121382,67.7053933 29.7353637,68.0921616 L29.7294317,68.105212 C29.8694276,71.0332616 30.4080558,73.9363967 31.2634544,76.7481785 C30.0616253,76.1265018 28.8775923,75.4716058 27.7125418,74.7858632 C27.6579671,75.1299209 27.6093245,75.4739786 27.5689867,75.8180363 C28.9167437,76.5998777 30.2882288,77.340195 31.6798829,78.0413608 C32.4795204,80.3738347 33.4938974,82.6125825 34.6755576,84.7623498" id="Fill-30" fill="#181A44"></path>
                <path d="M124.797317,33.5898193 C136.541548,23.7246176 144.388436,1.49955865 139.559764,0.527536362 C133.142495,-0.76469686 119.209345,4.90110279 112.474119,5.89934465 C108.519829,6.37675435 104.41961,4.68375324 100.557859,2.99063349 C95.0909013,0.593975089 90.1008784,-1.80280196 86.679284,1.95762994 C81.9312879,7.17473091 90.0830823,26.1476142 102.836945,34.4130663 C64.7853509,53.1149745 11.30099,147.000013 104.607062,153.812355 C233.711744,163.238349 169.064491,51.8146737 124.797317,33.5898193" id="Fill-31" fill="#4640CC"></path>
                <path d="M128.207047,36.1148468 L100.523454,36.1148468 C98.4306337,36.1148468 96.7352598,34.4185237 96.7352598,32.3259412 C96.7352598,30.2333586 98.4306337,28.5370355 100.523454,28.5370355 L128.207047,28.5370355 C130.299867,28.5370355 131.995241,30.2333586 131.995241,32.3259412 C131.995241,34.4185237 130.299867,36.1148468 128.207047,36.1148468" id="Fill-32" fill="#181A44"></path>
                <path d="M110.152323,125.649454 L110.152323,119.066088 C105.890753,118.856094 101.79884,117.73494 99.4295874,116.544975 L101.415631,107.389482 C104.234531,108.779949 107.880356,110.045844 112.070741,110.045844 C115.422338,110.045844 117.586342,108.892658 117.586342,106.753568 C117.586342,104.559904 115.682161,103.127912 111.082465,101.393387 C104.047079,98.617197 99.6787326,95.1350959 99.6787326,88.7142676 C99.6787326,82.8261355 103.579635,78.0294968 110.74078,76.3234452 L110.74078,69.7104191 L118.241238,69.7104191 L118.241238,75.6780404 C122.368744,75.8192227 125.353741,76.7208911 127.612658,77.7234041 L125.563735,86.5668731 C123.798363,85.7767268 120.987768,84.4099873 116.505526,84.4099873 C112.756484,84.4099873 111.426523,85.8550296 111.426523,87.5575219 C111.426523,89.2113716 113.208505,90.5223501 118.677835,92.7978764 C126.573366,95.9015141 129.300913,99.8522455 129.300913,105.682244 C129.300913,111.955958 125.103409,116.937676 117.652781,118.414751 L117.652781,125.649454 L110.152323,125.649454" id="Fill-33" fill="#FFFFFF"></path>
                <g id="Group-2" transform="translate(0.000000, 146.304779)">
                    <path d="M29.0478873,12.4038729 C11.0888731,11.039663 0.056235636,9.19060156 0.056235636,7.15482704 C0.056235636,7.004252 0.115537845,6.85668847 0.232928918,6.70912493 C9.64802663,8.88945149 19.2633262,10.79272 29.0478873,12.4038729 M193.85373,11.1179621 C198.625207,10.2461326 203.354217,9.30353284 208.033176,8.29166858 C205.918924,9.31407309 200.995779,10.2717303 193.85373,11.1179621" id="Fill-61" fill="#BBBBD9"></path>
                    <path d="M104.549882,14.7766845 C74.8360727,14.7766845 48.0191892,13.8723002 28.9844577,12.4204457 C19.2017224,10.8022329 9.58821708,8.8906245 0.174876218,6.700744 C1.1258091,5.50145171 5.87895712,4.37475214 13.5669409,3.38718862 C41.6046761,9.18402009 71.2983173,12.4658162 102.058441,12.8302921 C103.972135,12.8529773 105.875213,12.8635638 107.781325,12.8635638 C139.543788,12.8635638 170.205345,9.72544083 199.076038,3.8832389 C205.504047,4.87382712 209.100942,5.98086615 209.100942,7.14839913 C209.100942,7.53556032 208.703646,7.91818447 207.936348,8.29022218 C203.258262,9.30652032 198.530135,10.2532504 193.759548,11.1289002 C175.38081,13.3172683 142.302115,14.7766845 104.549882,14.7766845" id="Fill-62" fill="#BCBCD9"></path>
                    <path d="M107.818386,12.8784352 C105.911814,12.8784352 104.008276,12.867837 102.09412,12.8451266 C71.3265723,12.4802455 41.6257643,9.19480199 13.581262,3.3915278 C19.5345588,2.62542899 27.2460878,1.94260179 36.3178504,1.37029873 C57.506885,4.7208455 79.5413635,6.61489612 102.165408,6.8828793 C104.021927,6.90558974 105.875412,6.91618794 107.724346,6.91618794 C112.098692,6.91618794 116.450287,6.85411274 120.77913,6.7329904 C130.199748,6.72844831 138.804347,6.56039106 145.993806,5.33251333 C156.514078,4.45437635 166.867506,3.22044249 177.023754,1.64736608 C186.134953,2.28628643 193.659616,3.0448151 199.135133,3.8881294 C170.257472,9.73682447 139.588514,12.8784352 107.818386,12.8784352" id="Fill-63" fill="#BDBDD9"></path>
                    <path d="M107.767677,6.82776551 C105.918718,6.82776551 104.065209,6.81712067 102.208666,6.79431031 C79.5843281,6.52514799 57.5495635,4.62276346 36.3602538,1.25747412 C43.9939203,0.77541505 52.5913509,0.370911225 61.9092534,0.0652523203 C70.4275079,6.22100977 85.1615399,6.63919982 102.483204,6.63919982 C105.20583,6.63919982 107.993677,6.62855498 110.830062,6.62855498 C114.066877,6.62855498 117.236954,6.64376189 120.323608,6.64376189 C120.490454,6.64376189 120.655784,6.64376189 120.82263,6.64376189 C116.493731,6.76541718 112.142079,6.82776551 107.767677,6.82776551 M146.037634,5.23712265 C151.255368,4.34143561 155.729878,2.88613426 159.224547,0.524501024 C165.664808,0.814953018 171.648518,1.15406713 177.067984,1.53576059 C166.911604,3.11575861 156.558042,4.35512183 146.037634,5.23712265" id="Fill-64" fill="#BEBED9"></path>
                </g>
                <g id="Fill-47" transform="translate(47.750936, 109.543995)" fill="#F6A731">
                    <path d="M24.6713091,0 C38.29718,0 49.3426182,11.0454382 49.3426182,24.6713091 C49.3426182,38.29718 38.29718,49.3426182 24.6713091,49.3426182 C11.0454382,49.3426182 0,38.29718 0,24.6713091 C0,11.0454382 11.0454382,0 24.6713091,0" id="Fill-44"></path>
                </g>
                <path d="M72.4222452,114.027422 C83.5720871,114.027422 92.6101267,123.065462 92.6101267,134.215304 C92.6101267,145.365146 83.5720871,154.403185 72.4222452,154.403185 C61.2724033,154.403185 52.2331773,145.365146 52.2331773,134.215304 C52.2331773,123.065462 61.2724033,114.027422 72.4222452,114.027422" id="Fill-45" fill="#F4BD42"></path>
                <path d="M70.1467189,147.049842 L70.1467189,143.974678 C68.1559299,143.877393 66.2446301,143.353001 65.1377135,142.797763 L66.0654828,138.521957 C67.3823933,139.170921 69.086072,139.761751 71.0424552,139.761751 C72.6085109,139.761751 73.6193287,139.223123 73.6193287,138.224169 C73.6193287,137.199114 72.7295243,136.531168 70.5809434,135.720853 C67.2945993,134.424111 65.2551676,132.797549 65.2551676,129.798315 C65.2551676,127.048226 67.0763006,124.807106 70.421965,124.011027 L70.421965,120.921626 L73.924235,120.921626 L73.924235,123.70968 C75.8533309,123.776119 77.2473577,124.196107 78.3020725,124.664737 L77.344643,128.795802 C76.5200909,128.42683 75.2079261,127.788543 73.1139198,127.788543 C71.3627848,127.788543 70.7422946,128.462422 70.7422946,129.2585 C70.7422946,130.03085 71.5739651,130.643036 74.1282968,131.706055 C77.8168325,133.155843 79.0910324,135.000704 79.0910324,137.723506 C79.0910324,140.653928 77.1299035,142.98047 73.6501752,143.670958 L73.6501752,147.049842 L70.1467189,147.049842" id="Fill-46" fill="#FFFFFF"></path>
                <polyline id="Fill-49" fill="#02B3B7" points="204.058717 58.7539613 196.511989 52.6795635 175.441422 78.8552352 157.004676 64.0144848 150.930278 71.5600258 150.971802 71.5932452 97.1149096 138.498229 88.7673582 130.150677 88.7673582 153.735239 112.35192 153.735239 104.004368 145.387687 158.517343 77.667643 176.945785 92.501275 183.020182 84.955734 182.986963 84.929633 204.058717 58.7539613"></polyline>
                <g id="Group-118" transform="translate(80.375910, 101.167970)">
                    <mask id="mask-2" fill="white">
                        <use xlink:href="#path-1"></use>
                    </mask>
                    <g id="Clip-117"></g>
                    <polyline id="Fill-116" fill="url(#linearGradient-3)" mask="url(#mask-2)" points="0.0118640582 4.43609001 0.0522018562 1.69240791 2.65754904 0.0797264713 2.65754904 4.79379137 0.0118640582 4.43609001"></polyline>
                </g>
                <g id="Group-121" transform="translate(78.359020, 97.015549)">
                    <mask id="mask-5" fill="white">
                        <use xlink:href="#path-4"></use>
                    </mask>
                    <g id="Clip-120"></g>
                    <path d="M4.85951825,3.9896455 C4.85951825,3.9896455 4.5629168,6.21641059 2.78093525,6.21641059 C1.00014011,6.21641059 0.109149336,6.36482996 0.109149336,4.58356026 C0.109149336,2.80205327 -0.335752848,1.02066493 0.851839381,0.426868815 C2.03943161,-0.166927299 5.00781898,-0.315346668 4.85951825,2.20825716 C4.85951825,2.20825716 5.6022083,1.61446104 5.6022083,2.5050959 C5.6022083,3.39584939 5.6022083,4.28660288 4.85951825,3.9896455" id="Fill-119" fill="url(#linearGradient-6)" mask="url(#mask-5)"></path>
                </g>
                <g id="Group-124" transform="translate(76.816692, 94.168175)">
                    <mask id="mask-8" fill="white">
                        <use xlink:href="#path-7"></use>
                    </mask>
                    <g id="Clip-123"></g>
                    <path d="M6.40184582,7.28239622 C6.40184582,7.28239622 11.003914,3.86803891 7.88722591,1.49273581 C4.76935141,-0.882448651 3.87836064,1.93811255 1.05827399,0.00830484076 C1.05827399,0.00830484076 -1.61469833,2.23506993 1.79977763,3.71961954 C1.79977763,3.71961954 6.0305008,3.19997379 5.73389934,5.57515824 C5.73389934,5.57515824 6.17998793,4.98136213 6.92149157,5.1297815 C7.66418162,5.27831951 6.62489012,6.76286911 6.40184582,7.28239622" id="Fill-122" fill="url(#linearGradient-9)" mask="url(#mask-8)"></path>
                </g>
                <g id="Group-127" transform="translate(75.748927, 123.591040)">
                    <mask id="mask-11" fill="white">
                        <use xlink:href="#path-10"></use>
                    </mask>
                    <g id="Clip-126"></g>
                    <polyline id="Fill-125" fill="#000000" mask="url(#mask-11)" points="0.0913532484 30.2806358 1.88401245 30.2806358 6.18710637 10.5613846 2.89957583 0.104403712 0.868449063 0.224230701 0.0913532484 30.2806358"></polyline>
                </g>
                <g id="Group-130" transform="translate(72.189710, 153.725747)">
                    <mask id="mask-13" fill="white">
                        <use xlink:href="#path-12"></use>
                    </mask>
                    <g id="Clip-129"></g>
                    <path d="M5.42780664,0.0794891901 L5.77542355,1.19352426 C5.89999616,1.59334302 5.6022083,1.99790741 5.18459345,1.99790741 L0.0320329572,1.99790741 C0.0320329572,1.99790741 -0.0877940309,1.0392915 1.11047585,0.799637525 C2.30993214,0.558797143 3.38956144,0.0794891901 3.38956144,0.0794891901 L5.42780664,0.0794891901" id="Fill-128" fill="url(#linearGradient-14)" mask="url(#mask-13)"></path>
                </g>
                <g id="Group-133" transform="translate(81.799597, 153.725747)">
                    <mask id="mask-16" fill="white">
                        <use xlink:href="#path-15"></use>
                    </mask>
                    <g id="Clip-132"></g>
                    <path d="M5.49780458,0.0794891901 L5.8466079,1.19352426 C5.97118051,1.59334302 5.67339265,1.99790741 5.25459139,1.99790741 L0.102030901,1.99790741 C0.102030901,1.99790741 -0.0177960873,1.0392915 1.1816602,0.799637525 C2.37993008,0.558797143 3.45955938,0.0794891901 3.45955938,0.0794891901 L5.49780458,0.0794891901" id="Fill-131" fill="url(#linearGradient-17)" mask="url(#mask-16)"></path>
                </g>
                <g id="Group-136" transform="translate(78.596301, 123.591040)">
                    <mask id="mask-19" fill="white">
                        <use xlink:href="#path-18"></use>
                    </mask>
                    <g id="Clip-135"></g>
                    <polyline id="Fill-134" fill="#000000" mask="url(#mask-19)" points="8.65720329 30.2213155 6.62607652 30.2213155 0.102030901 0.237281165 6.38998176 0.0177960873 6.38642255 0.104403712 7.32249674 0.104403712 6.98437108 2.13553048 8.04264507 2.13553048 8.65720329 30.2213155"></polyline>
                </g>
                <g id="Group-139" transform="translate(64.122150, 103.896703)">
                    <mask id="mask-21" fill="white">
                        <use xlink:href="#path-20"></use>
                    </mask>
                    <g id="Clip-138"></g>
                    <path d="M23.3710083,21.8298671 L21.4585221,21.8298671 L21.7966478,19.7987404 L21.8168167,19.7987404 C21.8168167,19.7987404 22.2949382,15.4968329 22.1751112,13.4645197 C22.0564707,11.4329184 21.3386951,8.44531121 21.3386951,8.44531121 L20.8641328,19.7121328 L14.5761819,19.9316178 L11.538983,20.0372079 L12.5545464,10.7756495 L10.6052817,12.8876892 C10.0144516,13.5273992 9.20413638,13.9189131 8.33568731,13.982979 L2.45491093,14.41839 L0.00628795086,14.5999101 L0.0660828043,12.5085139 L8.3119592,10.3574415 L11.7964331,2.19425757 C12.2389625,1.15698296 13.170291,0.409784571 14.2795805,0.202400833 C14.7849894,0.107725649 15.3734467,0.0892177179 15.9429215,0.0892177179 C16.1268144,0.0892177179 16.3083344,0.0911159672 16.4851089,0.0930142165 C16.6618834,0.0949124658 16.8327258,0.0969293557 16.9964498,0.0969293557 C17.2289854,0.0969293557 17.4449112,0.0930142165 17.6335497,0.0794891901 C17.8471028,0.0643031956 18.1009936,0.0546933084 18.3821718,0.0546933084 C19.2458753,0.0546933084 20.370588,0.145097432 21.4122523,0.438732873 C22.8347529,0.840093963 23.8977725,2.02519474 24.1397993,3.48376206 C24.609616,6.31132306 25.2846809,10.9797113 25.0438405,13.2260521 C24.685546,16.5717165 23.3710083,21.8298671 23.3710083,21.8298671 M12.4952261,5.93546969 L11.5496607,11.8639396 L12.4952261,10.7158547 L12.4952261,5.93546969" id="Fill-137" fill="url(#linearGradient-22)" mask="url(#mask-21)"></path>
                </g>
                <g id="Group-142" transform="translate(58.901964, 115.760761)">
                    <mask id="mask-24" fill="white">
                        <use xlink:href="#path-23"></use>
                    </mask>
                    <g id="Clip-141"></g>
                    <path d="M5.23632074,2.39416695 C5.23632074,2.39416695 3.79234621,3.09414639 2.71675069,2.9755058 C1.64115518,2.85567882 -0.151385383,1.89943572 0.0875567497,1.30148719 C0.326617523,0.704250497 2.47780856,1.42131418 2.59727963,0.943192629 C2.71675069,0.465189723 1.76074488,0.58477943 1.76074488,0.22612895 C1.76074488,-0.132284249 2.59727963,-0.0128131829 3.07528253,0.22612895 C3.55340408,0.465189723 5.22647357,0.704250497 5.22647357,0.704250497 L5.23632074,2.39416695" id="Fill-140" fill="url(#linearGradient-25)" mask="url(#mask-24)"></path>
                </g>
                <g id="Group-145" transform="translate(85.121533, 125.726570)">
                    <mask id="mask-27" fill="white">
                        <use xlink:href="#path-26"></use>
                    </mask>
                    <g id="Clip-144"></g>
                    <path d="M0.459139054,0 C0.459139054,0 0.100844495,1.19589707 0.100844495,1.55419163 C0.100844495,1.91248619 0.219485077,2.27078075 0.459139054,1.91248619 C0.697606624,1.55419163 0.578966042,2.74890229 0.459139054,3.34685083 C0.339312065,3.94479936 1.41538215,4.30309392 2.25179825,3.34685083 C3.08821436,2.39060773 2.25179825,0 2.25179825,0 L0.459139054,0" id="Fill-143" fill="url(#linearGradient-28)" mask="url(#mask-27)"></path>
                </g>
                <g id="Group-148" transform="translate(75.630287, 109.828732)">
                    <mask id="mask-30" fill="white">
                        <use xlink:href="#path-29"></use>
                    </mask>
                    <g id="Clip-147"></g>
                    <polyline id="Fill-146" fill="url(#linearGradient-31)" mask="url(#mask-30)" points="0.0415242038 5.93191047 0.987089645 0.00344057689 0.987089645 4.78382556 0.0415242038 5.93191047"></polyline>
                </g>
                <g id="Group-151" transform="translate(84.884252, 123.472399)">
                    <mask id="mask-33" fill="white">
                        <use xlink:href="#path-32"></use>
                    </mask>
                    <g id="Clip-150"></g>
                    <polyline id="Fill-149" mask="url(#mask-33)" points="1.03454588 0.223044295 0.0984716833 0.223044295 0.102030901 0.13643667 1.05471478 0.103217307 1.03454588 0.223044295"></polyline>
                </g>
                <g id="Group-154" transform="translate(84.884252, 112.320184)">
                    <mask id="mask-35" fill="white">
                        <use xlink:href="#path-34"></use>
                    </mask>
                    <g id="Clip-153"></g>
                    <path d="M1.05471478,11.375259 L1.03454588,11.375259 L1.05471478,11.255432 L0.102030901,11.2886514 L0.57659323,0.0218298671 C0.57659323,0.0218298671 1.29436875,3.00943701 1.41300934,5.04103834 C1.53283632,7.07335152 1.05471478,11.375259 1.05471478,11.375259" id="Fill-152" fill="url(#linearGradient-36)" mask="url(#mask-35)"></path>
                </g>
                <g id="Group-157" transform="translate(43.004126, 97.846033)">
                    <mask id="mask-38" fill="white">
                        <use xlink:href="#path-37"></use>
                    </mask>
                    <g id="Clip-156"></g>
                    <path d="M5.721798,2.47638487 C5.48143218,1.59452943 5.07057985,0.331956349 3.46952519,0.14474151 C1.86847053,-0.0424733285 0.310601044,0.652523203 0.0730825987,1.83098011 C-0.164435847,3.00931837 0.321753259,4.59767849 0.450715572,5.47704248 C0.579559245,6.35628784 0.405750792,8.39868546 0.405750792,8.39868546 L3.76339791,9.02736191 C3.76339791,9.02736191 3.82865023,7.08853751 4.1282177,6.73356489 C4.29585684,6.53484191 4.85334894,6.21593603 5.48807606,5.89786063 C5.76545774,5.75881387 6.04272078,5.40301076 6.03702603,4.75226717 C6.02848391,3.77905847 6.04165301,3.35503703 5.96584168,3.05357131 C5.91138565,2.83705224 5.7741185,2.66834534 5.721798,2.47638487" id="Fill-155" fill="url(#linearGradient-39)" mask="url(#mask-38)"></path>
                </g>
                <g id="Group-160" transform="translate(40.275393, 111.133778)">
                    <mask id="mask-41" fill="white">
                        <use xlink:href="#path-40"></use>
                    </mask>
                    <g id="Clip-159"></g>
                    <path d="M0.328753054,0.111166226 L0.111878069,3.99273016 C0.0909973266,4.36715983 0.152215867,4.74087767 0.29126263,5.08849458 L1.79479473,8.84702822 L2.77452866,7.86705701 L1.79479473,4.13177692 L2.00502584,0.407174478 L0.328753054,0.111166226" id="Fill-158" fill="url(#linearGradient-42)" mask="url(#mask-41)"></path>
                </g>
                <g id="Group-163" transform="translate(41.461799, 119.201338)">
                    <mask id="mask-44" fill="white">
                        <use xlink:href="#path-43"></use>
                    </mask>
                    <g id="Clip-162"></g>
                    <path d="M5.06796975,3.71819585 L0.583237103,0.113894959 C0.583237103,0.113894959 -0.4686303,2.65043061 0.365887556,5.30916606 C0.776383971,6.61658528 0.340023909,7.54554103 0.561525876,8.16484487 C0.768316411,8.74381092 2.28881411,16.9727217 2.20446066,17.5789751 C2.12010721,18.1852285 1.4500252,19.89128 1.22128615,21.6756344 C0.96976812,23.6355768 1.13325484,29.6198078 1.00369933,32.0483805 L0.999665547,32.0471941 C0.999665547,32.0471941 0.892533101,33.8576494 0.68870858,34.2562817 C0.484765419,34.6561005 0.19551968,35.1033755 0.155656444,35.6384445 C0.13252153,35.9480964 0.313092497,36.2731716 0.672929383,36.4463869 C1.03288491,36.6196021 1.26636958,36.4238452 1.39533189,36.4368956 C2.14193707,36.5092664 2.28774635,37.0716228 3.57060697,37.2519564 C3.96627331,37.3077175 4.56564553,37.1594168 4.90626264,36.879425 C5.03819097,36.7702757 5.02929292,36.5982468 4.95110878,36.4819791 C4.872806,36.3657113 3.92261357,36.0643642 3.49052457,35.8033549 C3.07872311,35.5530233 2.6656166,34.844739 2.54958611,34.6003394 C2.51945141,34.5374599 2.52170558,34.359499 2.54128127,34.1317091 L2.54139991,34.1317091 C2.58933071,33.7496864 2.64378674,33.3534269 2.70322567,32.9441169 C2.75435976,32.6368378 2.79659581,32.4090479 2.79659581,32.4090479 L2.7834267,32.4066751 C3.5891149,27.1247963 5.15695019,20.130934 5.36563898,17.7272758 C5.59817452,15.0519307 5.36124927,10.1663115 5.06796975,3.71819585" id="Fill-161" fill="url(#linearGradient-45)" mask="url(#mask-44)"></path>
                </g>
                <g id="Group-166" transform="translate(41.343158, 153.725747)">
                    <mask id="mask-47" fill="white">
                        <use xlink:href="#path-46"></use>
                    </mask>
                    <g id="Clip-165"></g>
                    <path d="M5.12681548,2.4451824 C5.21615184,2.28383121 5.23418521,2.04180442 5.14603526,1.98485694 C5.0239541,1.90655416 4.58961093,1.63368082 4.33904202,1.52571789 C4.08847311,1.41775496 3.69292541,1.32640171 3.83327721,1.39758606 C3.97351038,1.46877041 3.72519564,1.75469421 3.49301602,1.74638937 C2.69076841,1.71672923 2.08736241,1.19826988 1.62834199,1.09505257 C0.965852981,0.945565441 0.671505696,0.175588062 0.639472739,0.0498290446 C0.516798377,0.131691046 0.242145428,0.76404535 0.188163964,0.963361528 C0.139284044,1.14250881 0.0519645751,1.46995681 0.106776524,1.65384972 C0.144860151,1.78079514 0.228620402,2.0370588 0.19563832,2.30874573 C0.19563832,2.30874573 0.327803929,2.4048446 0.673166664,2.46772411 C0.891821257,2.50806191 1.18308389,2.46297849 1.18308389,2.46297849 L1.22982828,2.04773645 C1.22982828,2.04773645 1.40885691,2.0370588 1.63818916,2.078583 C1.86728412,2.12010721 2.24467982,2.32891463 2.26745881,2.35382915 C2.36142215,2.46060568 2.43948765,2.65873545 2.56192473,2.71686933 C2.88593216,2.86991569 3.21041416,2.93991363 3.61877504,2.95296409 C4.47891926,2.98262424 4.97424369,2.72161496 5.12681548,2.4451824" id="Fill-164" fill="url(#linearGradient-48)" mask="url(#mask-47)"></path>
                </g>
                <g id="Group-169" transform="translate(42.173642, 118.489495)">
                    <mask id="mask-50" fill="white">
                        <use xlink:href="#path-49"></use>
                    </mask>
                    <g id="Clip-168"></g>
                    <path d="M10.8062588,37.2697525 C10.7108718,37.1665352 9.6906814,37.0111161 9.21078025,36.8165455 C8.75365808,36.6302798 8.19604735,36.0240264 8.08618617,35.7665763 C7.97632499,35.5079399 7.98759584,34.1922158 7.99578204,33.6405371 C8.05261088,29.83692 8.66123707,20.5390576 8.74048898,18.3121739 C8.87811206,14.4433045 8.33568731,10.4557945 6.78481762,4.26156972 L1.20076133,0.0652523203 C1.20076133,0.0652523203 -0.3218719,2.96601456 0.225535747,5.71966247 C0.543136586,7.31656471 1.87297887,7.54910025 2.10373481,8.16840409 C2.33449074,8.78889434 5.78835537,18.7819906 5.78835537,18.7819906 C5.78835537,18.7819906 5.15801796,20.9566725 5.14413701,23.3330433 C5.13239159,25.3606109 6.11366785,31.4670416 6.30776384,33.7947699 C6.33244108,34.2503497 6.42189608,35.3394703 6.2912728,35.6870872 C6.13110801,36.1141933 5.71717102,36.6184157 5.74362787,37.1546712 C5.75905115,37.4655095 5.98660378,37.7597381 6.38060916,37.8771923 C6.77449589,37.9946465 6.99113359,37.7656702 7.1259093,37.7585517 C7.90680161,37.7182139 8.12854086,38.2544694 9.477247,38.2405111 C9.89320088,38.2354869 10.4939968,37.9993921 10.8104112,37.6695713 C10.9329669,37.5414395 10.9018831,37.3729698 10.8062588,37.2697525" id="Fill-167" fill="url(#linearGradient-51)" mask="url(#mask-50)"></path>
                </g>
                <g id="Group-172" transform="translate(47.749750, 154.437591)">
                    <mask id="mask-53" fill="white">
                        <use xlink:href="#path-52"></use>
                    </mask>
                    <g id="Clip-171"></g>
                    <path d="M5.35116482,1.79621842 C5.42294238,1.62300317 5.41084104,1.37978997 5.31260664,1.33707936 C5.17652589,1.27775907 4.69306551,1.07251086 4.42042946,1.00251292 C4.14767476,0.933701383 3.72744982,0.902854831 3.88144529,0.952683876 C4.03544077,1.00251292 3.81512521,1.32284249 3.57404754,1.34894342 C2.74107201,1.44029667 2.05188887,1.01674979 1.56451336,0.983530427 C0.860974706,0.936074194 0.595694364,0.214739454 0.546695803,0.0949124658 C0.430428033,0.194570555 0.090048202,0.864889845 0.0593202912,1.06895165 C0.0315583949,1.25403096 -0.0172028844,1.59215661 0.0628795086,1.76655827 C0.118403301,1.88638526 0.237281165,2.12722564 0.237637086,2.40247179 C0.237637086,2.40247179 0.386293736,2.47721536 0.751232167,2.48789301 C0.982225381,2.49501145 1.27764043,2.40721742 1.27764043,2.40721742 L1.27336937,1.98841616 C1.27336937,1.98841616 1.45702499,1.95045117 1.69917042,1.95756961 C1.94131585,1.96350164 2.24159516,2.08451503 2.38870948,2.19366437 C2.50402813,2.27789918 2.62610929,2.42264069 2.76159683,2.45467365 C3.15251755,2.54839971 3.43310253,2.57450064 3.85700533,2.525858 C4.74953843,2.42619991 5.22837182,2.09281987 5.35116482,1.79621842" id="Fill-170" fill="url(#linearGradient-54)" mask="url(#mask-53)"></path>
                </g>
                <g id="Group-175" transform="translate(45.851500, 109.235529)">
                    <mask id="mask-56" fill="white">
                        <use xlink:href="#path-55"></use>
                    </mask>
                    <g id="Clip-174"></g>
                    <path d="M16.4683806,7.2902265 C15.9379385,7.53960901 15.4417836,7.4893054 14.9653231,7.22129632 C15.0067286,7.10775729 15.1139797,7.16506069 15.3185161,7.04096264 C15.5453569,6.9034582 15.6076432,6.71161638 15.566119,6.60946684 C15.5346792,6.53235046 15.2411624,6.65443162 15.167012,6.66131277 C14.8853593,6.6874137 14.6037066,6.71351463 14.3221725,6.73961556 C14.0124019,6.76820794 13.8228142,6.8204098 13.5364159,7.02767489 C13.5203994,7.03918303 13.4613164,7.09162217 13.3968946,7.15901002 C11.5985406,7.21227964 7.30066687,5.21401631 6.57245098,5.14271332 C6.09361759,5.09573165 1.53781923,0.0563542766 1.53781923,0.0563542766 L0.0542187461,3.3295293 C1.58456362,4.82155327 4.56113719,7.17787387 5.00900539,7.44991673 C6.69429486,8.47331039 12.6105448,8.6987275 13.140275,8.71770999 C13.293084,8.99651536 14.1412456,9.22786449 14.6234009,9.13057921 C15.393141,8.97397365 16.5572424,9.3322682 17.1732243,7.68862158 C17.2434595,7.50105082 16.8499287,7.11107922 16.4683806,7.2902265" id="Fill-173" fill="url(#linearGradient-57)" mask="url(#mask-56)"></path>
                </g>
                <g id="Group-178" transform="translate(40.275393, 108.523686)">
                    <mask id="mask-59" fill="white">
                        <use xlink:href="#path-58"></use>
                    </mask>
                    <g id="Clip-177"></g>
                    <path d="M1.24465835,0.0748622074 C1.24465835,0.0748622074 0.360786011,2.4571651 0.0718961929,4.34188939 L2.21051133,4.67823544 L2.21051133,1.64934138" id="Fill-176" mask="url(#mask-59)"></path>
                </g>
                <g id="Group-181" transform="translate(40.987237, 117.777651)">
                    <mask id="mask-61" fill="white">
                        <use xlink:href="#path-60"></use>
                    </mask>
                    <g id="Clip-180"></g>
                    <path d="M7.76051777,0.0557610737 C7.79717771,0.396259545 9.61961569,4.20580864 9.84550736,8.29060389 C9.99523178,10.9991684 10.0346205,12.5521736 9.82332157,14.506184 C7.92186896,15.6261511 3.72092458,15.7566557 1.65218875,14.2570388 C1.67876424,12.6399676 1.22484537,10.5530798 1.00393661,9.13532484 C0.906769971,8.51246178 0.277263041,6.79929177 0.195163758,6.17642872 C-0.115081365,3.82141316 0.476460579,1.61469833 2.01795766,0.283550992 L7.76051777,0.0557610737" id="Fill-179" fill="#111111" mask="url(#mask-61)"></path>
                </g>
                <g filter="url(#filter-62)" id="Group-184">
                    <g transform="translate(41.224518, 106.150874)">
                        <mask id="mask-64" fill="white">
                            <use xlink:href="#path-63"></use>
                        </mask>
                        <g id="Clip-183"></g>
                        <path d="M7.43615442,9.27638849 C8.2482492,8.51969886 9.63919139,6.4348279 9.63919139,6.4348279 C9.63919139,6.4348279 8.50581791,4.74586057 8.25121522,3.55114991 C8.10338905,2.85793299 7.43057831,2.15569938 7.1346887,1.873928 C6.53068949,0.817789534 5.68798544,0.0556424331 5.49566905,0.0251518034 C5.36041879,0.00261009281 4.58628899,0.0126945423 3.67263787,0.0340498471 C1.59334302,0.0824552047 -0.0217112266,1.85613191 0.113420397,3.93151162 C0.173927094,4.85904369 0.311312888,5.77945733 0.51549333,6.90701742 C0.732486955,8.09769431 0.769384176,10.7654464 0.718606007,11.9376154 C0.695471094,12.4726844 0.446325871,12.6257308 0.446325871,12.8974177 C0.446325871,13.290118 1.10632343,13.5072303 1.74781306,13.3779121 C2.43094553,13.2438482 4.85417943,13.4289275 6.38654119,13.1513085 C6.85718838,13.0682601 7.28654864,12.9353827 7.50805061,12.7182704 C7.60497997,12.6304764 7.66026648,12.5236999 7.66963908,12.3991273 C7.68802837,12.1867606 7.58647204,11.7952467 7.56808275,11.5828801 C7.49820344,10.7243968 7.44054412,9.92891169 7.43615442,9.27638849" id="Fill-182" fill="#F9CBCB" mask="url(#mask-64)"></path>
                    </g>
                </g>
                <g id="Group-187" transform="translate(36.597535, 97.015549)">
                    <mask id="mask-66" fill="white">
                        <use xlink:href="#path-65"></use>
                    </mask>
                    <g id="Clip-186"></g>
                    <path d="M11.7009274,2.70227654 C12.279063,2.47484255 12.2013534,0.961937841 11.4817983,0.507663052 C10.0673653,-0.38498869 5.43884021,-0.388903829 5.26289623,4.55401875 C5.08695225,9.49694133 0.920650919,11.5770667 0.507069849,11.8319066 C-0.31178745,12.336485 0.137385794,12.6189683 1.67010348,13.2073069 C2.7588681,13.6252777 2.57912762,14.372832 3.16817811,14.6333667 C3.75710996,14.8936641 4.24721421,14.8925964 5.19242373,14.3876621 C6.13763324,13.8826091 6.08436362,14.8756308 6.7031929,15.053473 C7.9623254,15.4150895 8.3409075,14.0443162 8.12403251,13.2118152 C7.90715753,12.3793143 6.96645635,5.8913354 8.77169145,4.90756769 C9.59256564,4.46017405 10.0003333,5.57907338 10.0003333,5.57907338 C10.0003333,5.57907338 10.5470291,3.15631405 11.7009274,2.70227654" id="Fill-185" fill="url(#linearGradient-67)" mask="url(#mask-66)"></path>
                </g>
                <g id="Group-3" transform="translate(144.346912, 88.950362)">
                    <path d="M57.4089914,13.3921489 C57.4089914,16.7449318 44.5566571,19.8722975 28.7039025,19.8722975 C12.8511479,19.8722975 -2.69757453e-14,16.7449318 -2.69757453e-14,13.3921489 C-2.69757453e-14,10.0381797 12.8511479,7.72824753 28.7039025,7.72824753 C44.5566571,7.72824753 57.4089914,10.0381797 57.4089914,13.3921489" id="Fill-34" fill="#F4BD42"></path>
                    <path d="M28.7039025,19.8722975 C12.8511479,19.8722975 -2.69757453e-14,16.6025631 -2.69757453e-14,13.2485938 L-2.69757453e-14,20.9720957 C0.00830484076,24.3236922 12.8558935,27.6005451 28.7039025,27.6005451 C44.5530979,27.6005451 57.3995001,24.3236922 57.4089914,20.9720957 L57.4089914,13.2485938 C57.4089914,16.6025631 44.5566571,19.8722975 28.7039025,19.8722975" id="Fill-35" fill="#F6A731"></path>
                    <path d="M64.6745406,5.6639014 C64.6745406,9.01668426 51.8222064,12.14405 35.9694517,12.14405 C20.1166971,12.14405 7.26436285,9.01668426 7.26436285,5.6639014 C7.26436285,2.30993214 20.1166971,6.74393631e-15 35.9694517,6.74393631e-15 C51.8222064,6.74393631e-15 64.6745406,2.30993214 64.6745406,5.6639014" id="Fill-36" fill="#F4BD42"></path>
                    <path d="M35.9694517,12.14405 C20.1166971,12.14405 7.26436285,8.87431556 7.26436285,5.52034629 L7.26436285,13.2438482 C7.2738541,16.5954447 20.1214428,19.8722975 35.9694517,19.8722975 C51.8174607,19.8722975 64.6650494,16.5954447 64.6745406,13.2438482 L64.6745406,5.52034629 C64.6745406,8.87431556 51.8222064,12.14405 35.9694517,12.14405" id="Fill-37" fill="#F6A731"></path>
                    <path d="M32.0163475,57.4089914 C16.1635929,57.4089914 3.31244506,54.1392569 3.31244506,50.7852877 L3.31244506,58.5087896 C3.3207499,61.860386 16.1683386,65.1372389 32.0163475,65.1372389 C47.8643565,65.1372389 60.7119452,61.860386 60.7214364,58.5087896 L60.7214364,50.7852877 C60.7214364,54.1392569 47.8691022,57.4089914 32.0163475,57.4089914" id="Fill-38" fill="#F6A731"></path>
                    <path d="M56.5393559,47.883339 C53.4036853,50.6417326 42.13283,52.9931889 28.7039025,52.9931889 C18.2053974,52.9931889 9.02736191,51.5540786 4.02310215,49.6095595 C3.56277669,50.0259879 3.31244506,50.4685173 3.31244506,50.9288428 C3.31244506,54.282812 16.1635929,57.4089914 32.0163475,57.4089914 C47.8702886,57.4089914 60.7214364,54.282812 60.7214364,50.9288428 C60.7214364,49.7720971 59.1921593,48.7387376 56.5393559,47.883339" id="Fill-39" fill="#F4BD42"></path>
                    <path d="M28.7039025,45.2649414 C12.8511479,45.2649414 -2.69757453e-14,41.9952069 -2.69757453e-14,38.6412377 L-2.69757453e-14,46.3647396 C0.00830484076,49.716336 12.8558935,52.9931889 28.7039025,52.9931889 C44.5530979,52.9931889 57.3995001,49.716336 57.4089914,46.3647396 L57.4089914,38.6412377 C57.4089914,41.9952069 44.5566571,45.2649414 28.7039025,45.2649414" id="Fill-40" fill="#F6A731"></path>
                    <path d="M35.3287926,40.8491389 C20.7407466,40.8491389 8.70347312,38.0717629 6.87284893,35.0167679 C2.59111032,35.9860614 -2.69757453e-14,37.2792438 -2.69757453e-14,38.7847928 C-2.69757453e-14,42.1375756 12.8511479,45.2649414 28.7039025,45.2649414 C44.5566571,45.2649414 57.4089914,42.1375756 57.4089914,38.7847928 C57.4089914,38.636492 57.375772,38.4917505 57.325943,38.3481954 C52.0606739,39.8300163 44.1627704,40.8491389 35.3287926,40.8491389" id="Fill-41" fill="#F4BD42"></path>
                    <path d="M35.3287926,33.1208914 C19.476038,33.1208914 6.62370371,29.8511569 6.62370371,26.4960012 L6.62370371,34.2206896 C6.63319496,37.572286 19.4807836,40.8491389 35.3287926,40.8491389 C51.1768016,40.8491389 64.0243902,37.572286 64.0326951,34.2206896 L64.0326951,26.4960012 C64.0326951,29.8511569 51.1815472,33.1208914 35.3287926,33.1208914" id="Fill-42" fill="#F6A731"></path>
                    <path d="M56.2973291,22.6864521 C52.8626843,25.3582381 41.8136868,27.6005451 28.7039025,27.6005451 C20.2388969,27.6005451 12.6304764,26.6644709 7.37707141,25.2823081 C6.88945861,25.7129734 6.62370371,26.164994 6.62370371,26.6395564 C6.62370371,29.9935256 19.476038,33.1208914 35.3287926,33.1208914 C51.1815472,33.1208914 64.0326951,29.9935256 64.0326951,26.6395564 C64.0326951,25.0367221 61.0927815,23.6735418 56.2973291,22.6864521" id="Fill-43" fill="#F4BD42"></path>
                </g>
            </g>
        </g>
    </g>
</svg>