<?xml version="1.0" encoding="UTF-8"?>
<svg width="230px" height="182px" viewBox="0 0 230 182" version="1.1" xmlns="http://www.w3.org/2000/svg" xmlns:xlink="http://www.w3.org/1999/xlink">
    <title>Free Maintenance</title>
    <g id="Page-1" stroke="none" stroke-width="1" fill="none" fill-rule="evenodd">
        <g id="Benefits-design" transform="translate(-1156.000000, -1270.000000)">
            <g id="Free-Maintenance" transform="translate(1156.000000, 1270.000000)">
                <polyline id="Fill-149" fill="#FFFFFE" points="229.860518 3.55075585 229.860518 3.56339641 229.583007 3.55075585 229.860518 3.55075585"></polyline>
                <polyline id="Fill-150" fill="#FFFFFE" points="229.583007 3.55075585 229.317119 3.56339641 229.317119 3.55075585 229.583007 3.55075585"></polyline>
                <path d="M220.372836,178.420642 C220.372836,180.334161 171.039798,181.885898 110.186418,181.885898 C49.3320215,181.885898 0,180.334161 0,178.420642 C0,176.507124 49.3320215,174.955386 110.186418,174.955386 C171.039798,174.955386 220.372836,176.507124 220.372836,178.420642" id="Fill-151" fill="#DCEEF4"></path>
                <path d="M93.092609,176.463535 C167.498989,182.544079 214.893809,148.7473 194.677637,127.386214 C179.724005,111.587117 194.352179,108.382809 188.608718,95.9128279 C183.12969,84.014723 161.146747,79.3149062 164.475426,51.5469466 C167.805559,23.7789871 134.38945,23.2990818 117.291282,9.46755307 C100.193114,-4.36383037 66.3861655,-4.00117718 54.2505054,16.9699409 C47.0788061,29.3630616 56.4175616,47.1361191 41.248168,52.8792903 C26.0784839,58.6223162 20.1412003,87.6028974 32.8616677,99.0219687 C45.5822805,110.440895 -3.24920404,139.593794 18.5646178,160.367894 C31.7129754,172.889309 65.9270373,174.243447 93.092609,176.463535" id="Fill-152" fill="#F7D5DE"></path>
                <path d="M175.010676,126.65248 C174.7753,126.831192 174.44403,126.786151 174.265319,126.550775 C174.085155,126.315399 174.130196,125.984129 174.365572,125.805127 C174.600948,125.626125 174.93367,125.671166 175.112382,125.906688 C175.291093,126.142063 175.246052,126.473769 175.010676,126.65248 Z M172.479659,126.199164 L177.171194,132.366883 L179.940493,130.261577 L175.248958,124.092841 L172.479659,126.199164 L172.479659,126.199164 Z" id="Fill-153" fill="#FFFFFE"></path>
                <path d="M180.665509,129.710914 L184.916804,126.478128 C186.43367,125.324496 186.727164,123.159328 185.573531,121.642461 L183.773342,119.275481 C184.530322,118.700118 184.677069,117.620295 184.101706,116.86375 C183.526342,116.107206 182.44681,115.960314 181.689829,116.535822 L178.189703,119.257465 L177.839545,116.4408 C177.69861,115.295014 176.366267,114.626953 175.436387,115.310851 L175.414593,115.327269 L176.238408,123.888993 L180.665509,129.710914" id="Fill-154" fill="#FFFFFE"></path>
                <path d="M183.340366,166.615525 L182.670562,166.250838 C190.188061,152.522032 201.773784,141.056902 215.620278,133.751533 L215.976248,134.424243 C202.263424,141.658419 190.782312,153.020389 183.340366,166.615525" id="Fill-155" fill="#31A948"></path>
                <path d="M213.84043,140.985708 C212.769615,140.456839 211.954517,139.570547 211.419836,138.807755 C210.882249,138.047869 210.623626,137.411482 210.623626,137.411482 C210.623626,137.411482 211.26873,137.177559 212.184081,137.087477 C213.113961,137.019189 214.306822,137.094742 215.370373,137.657029 C216.431017,138.214957 217.17928,139.172443 217.664561,139.965746 C218.149842,140.761956 218.3765,141.405607 218.3765,141.405607 C218.3765,141.405607 215.993683,142.053618 213.84043,140.985708" id="Fill-156" fill="#31A948"></path>
                <path d="M204.237966,135.651975 C204.243778,136.892784 204.762476,137.973769 205.27391,138.756902 C205.785344,139.53713 206.280796,140.009335 206.280796,140.009335 C206.280796,140.009335 206.738471,139.503712 207.196147,138.685708 C207.656728,137.870611 208.114403,136.727149 208.153632,135.508134 C208.182691,134.277496 207.742451,133.15147 207.284776,132.340731 C206.8271,131.528539 206.35199,131.031634 206.35199,131.031634 C206.35199,131.031634 205.814403,131.556144 205.27391,132.387225 C204.745041,133.237193 204.232154,134.412619 204.237966,135.651975" id="Fill-157" fill="#31A948"></path>
                <path d="M211.652306,132.826012 C211.533165,134.44749 212.724574,135.803081 212.724574,135.803081 C212.724574,135.803081 213.052937,135.496511 213.397284,134.985077 C213.740177,134.47219 214.104864,133.757345 214.189135,132.965494 C214.353316,131.361451 213.230196,129.952101 213.230196,129.952101 C213.230196,129.952101 212.864056,130.258671 212.479027,130.765746 C212.096905,131.27718 211.714782,132.018178 211.652306,132.826012" id="Fill-158" fill="#31A948"></path>
                <path d="M216.925016,131.938267 C215.493872,132.754818 215.01295,134.495437 215.01295,134.495437 C215.01295,134.495437 216.76374,134.889183 218.136766,134.113314 C219.524321,133.36941 220.108402,131.647679 220.108402,131.647679 C220.108402,131.647679 218.377953,131.162398 216.925016,131.938267" id="Fill-159" fill="#31A948"></path>
                <path d="M207.79621,146.549006 C206.414466,146.024496 205.316045,145.072822 204.554706,144.21123 C203.796273,143.356902 203.392356,142.615904 203.392356,142.615904 C203.392356,142.615904 204.140619,142.235235 205.265193,142.030371 C206.381049,141.813883 207.825268,141.729612 209.208465,142.318052 C210.581491,142.891962 211.597094,143.956966 212.285786,144.86941 C212.971573,145.783308 213.330449,146.541741 213.330449,146.541741 C213.330449,146.541741 212.631586,146.800364 211.584018,146.915146 C210.550979,147.048816 209.183765,147.079328 207.79621,146.549006" id="Fill-160" fill="#31A948"></path>
                <path d="M195.334365,141.409966 C195.513076,142.921021 196.332533,144.183624 197.06772,145.051027 C197.810171,145.92279 198.485786,146.421148 198.485786,146.421148 C198.485786,146.421148 198.952179,145.722285 199.396778,144.663093 C199.829754,143.592278 200.242388,142.148058 200.118888,140.647174 C199.985218,139.133213 199.296526,137.815399 198.626721,136.888425 C197.95837,135.959998 197.308907,135.420958 197.308907,135.420958 C197.308907,135.420958 196.716109,136.150333 196.163992,137.256018 C195.610423,138.364609 195.154201,139.900364 195.334365,141.409966" id="Fill-161" fill="#31A948"></path>
                <path d="M200.1494,153.43593 C198.719709,153.116283 197.480354,152.305544 196.61295,151.56164 C195.742641,150.819189 195.24283,150.14212 195.24283,150.14212 C195.24283,150.14212 195.948958,149.67718 197.008149,149.293605 C198.08187,148.924559 199.534807,148.677559 200.957233,149.039341 C202.382565,149.405481 203.556538,150.341173 204.35856,151.1461 C205.16494,151.956839 205.624068,152.657155 205.624068,152.657155 C205.624068,152.657155 204.952811,152.99569 203.954643,153.280465 C202.947757,153.553618 201.566014,153.741046 200.1494,153.43593" id="Fill-162" fill="#31A948"></path>
                <path d="M187.094757,150.053491 C187.498673,151.542752 188.464877,152.662967 189.316298,153.424306 C190.169172,154.185645 190.910171,154.588109 190.910171,154.588109 C190.910171,154.588109 191.28067,153.834034 191.552369,152.705102 C191.85458,151.60087 192.073973,150.123232 191.719457,148.62816 C191.379469,147.149069 190.528048,145.948943 189.734744,145.120768 C188.945799,144.294047 188.228048,143.846542 188.228048,143.846542 C188.228048,143.846542 187.718067,144.628223 187.349021,145.825443 C186.974163,147.018305 186.673405,148.551154 187.094757,150.053491" id="Fill-163" fill="#31A948"></path>
                <path d="M193.808781,160.906934 C192.342767,160.773264 191.004611,160.131065 190.045673,159.506302 C189.085281,158.884445 188.502653,158.281476 188.502653,158.281476 C188.502653,158.281476 191.064182,156.05267 194.035439,156.450775 C195.504359,156.632392 196.765509,157.386467 197.672142,158.082424 C198.575869,158.779834 199.125079,159.417673 199.125079,159.417673 C199.125079,159.417673 196.710297,161.143763 193.808781,160.906934" id="Fill-164" fill="#31A948"></path>
                <path d="M180.422868,159.286909 C181.014214,160.704976 182.116993,161.684256 183.062855,162.325001 C184.010171,162.964293 184.799116,163.265051 184.799116,163.265051 C184.799116,163.265051 185.865572,160.097648 184.828174,157.261514 C184.287682,155.833276 183.26772,154.743573 182.378522,154.030181 C181.486418,153.313883 180.716361,152.966631 180.716361,152.966631 C180.716361,152.966631 180.345862,153.834034 180.116298,155.057408 C179.869299,156.269158 179.828617,157.867389 180.422868,159.286909" id="Fill-165" fill="#31A948"></path>
                <path d="M102.809855,172.730939 L102.150221,173.036056 C95.9200253,159.597837 89.1406191,146.415336 81.8178143,133.540857 L82.4498421,133.181981 C89.7828174,146.073895 96.5709413,159.275285 102.809855,172.730939" id="Fill-166" fill="#31A948"></path>
                <path d="M88.7904611,135.431129 C87.7138345,137.510282 85.2322173,138.342815 85.2322173,138.342815 C85.2322173,138.342815 84.5072015,135.832139 85.5692988,133.75008 C86.634302,131.666568 89.1042956,130.809335 89.1042956,130.809335 C89.1042956,130.809335 89.8641819,133.351975 88.7904611,135.431129" id="Fill-167" fill="#31A948"></path>
                <path d="M82.9554643,144.140036 C85.2787113,144.327465 87.3186355,142.694363 87.3186355,142.694363 C87.3186355,142.694363 85.5852811,140.729991 83.2591282,140.554186 C80.9344283,140.379834 78.9090335,142.034729 78.9090335,142.034729 C78.9090335,142.034729 80.6365761,143.951154 82.9554643,144.140036" id="Fill-168" fill="#31A948"></path>
                <path d="M80.9300695,137.264736 C82.4556538,137.3708 83.7807328,136.278191 83.7807328,136.278191 C83.7807328,136.278191 82.6285534,135.003965 81.0986102,134.905165 C79.571573,134.806365 78.2537587,135.906239 78.2537587,135.906239 C78.2537587,135.906239 79.407391,137.158671 80.9300695,137.264736" id="Fill-169" fill="#31A948"></path>
                <path d="M80.0597599,132.39013 C80.8792167,133.678886 82.544283,134.095879 82.544283,134.095879 C82.544283,134.095879 82.8857233,132.411925 82.0604548,131.115904 C81.2322805,129.82279 79.5657612,129.418873 79.5657612,129.418873 C79.5657612,129.418873 79.2373973,131.105734 80.0597599,132.39013" id="Fill-170" fill="#31A948"></path>
                <path d="M93.7507896,142.307882 C92.3922931,144.840352 89.3295009,145.81382 89.3295009,145.81382 C89.3295009,145.81382 88.4867972,142.719063 89.8249526,140.182234 C91.163108,137.642499 94.2113708,136.631255 94.2113708,136.631255 C94.2113708,136.631255 95.1092862,139.773959 93.7507896,142.307882" id="Fill-171" fill="#31A948"></path>
                <path d="M86.4120025,152.876549 C89.2568541,153.155513 91.7980417,151.196953 91.7980417,151.196953 C91.7980417,151.196953 89.7130764,148.748753 86.8624131,148.488678 C84.0161087,148.228602 81.4952622,150.220579 81.4952622,150.220579 C81.4952622,150.220579 83.5729627,152.597585 86.4120025,152.876549" id="Fill-172" fill="#31A948"></path>
                <path d="M98.7198358,151.80864 C97.3119394,154.313504 94.230259,155.227401 94.230259,155.227401 C94.230259,155.227401 93.4500316,152.115209 94.8390398,149.604533 C96.228048,147.092405 99.295199,146.142184 99.295199,146.142184 C99.295199,146.142184 100.129185,149.30087 98.7198358,151.80864" id="Fill-173" fill="#31A948"></path>
                <path d="M91.1747315,162.23056 C94.0094125,162.566189 96.5912824,160.658482 96.5912824,160.658482 C96.5912824,160.658482 94.555717,158.1696 91.7137713,157.851407 C88.8703727,157.534666 86.3117498,159.477244 86.3117498,159.477244 C86.3117498,159.477244 88.3400505,161.894931 91.1747315,162.23056" id="Fill-174" fill="#31A948"></path>
                <path d="M103.280606,160.950522 C101.827669,163.42778 98.7285534,164.282108 98.7285534,164.282108 C98.7285534,164.282108 98.0078964,161.155386 99.4404927,158.673769 C100.878901,156.187793 103.962034,155.29569 103.962034,155.29569 C103.962034,155.29569 104.737903,158.468905 103.280606,160.950522" id="Fill-175" fill="#31A948"></path>
                <path d="M95.5379027,171.228602 C98.3696778,171.616536 100.984965,169.758229 100.984965,169.758229 C100.984965,169.758229 98.9973468,167.230118 96.158307,166.859619 C93.3265319,166.48912 90.7301327,168.382297 90.7301327,168.382297 C90.7301327,168.382297 92.7148452,170.837762 95.5379027,171.228602" id="Fill-176" fill="#31A948"></path>
                <path d="M149.619141,176.143889 L148.92609,176.127907 C149.277701,161.871684 154.195894,147.766568 162.837966,136.417673 L163.390082,136.837572 C154.838092,148.067326 149.967846,162.037319 149.619141,176.143889" id="Fill-177" fill="#31A948"></path>
                <path d="M164.163045,143.064862 C161.986545,143.029991 160.128238,141.366378 160.128238,141.366378 C160.128238,141.366378 160.568478,140.923232 161.287682,140.493163 C162.02868,140.079076 163.041377,139.680971 164.133986,139.737635 C165.222236,139.789941 166.207328,140.29411 166.913455,140.763409 C167.619583,141.234161 168.054011,141.677307 168.054011,141.677307 C168.054011,141.677307 166.349716,143.114262 164.163045,143.064862" id="Fill-178" fill="#31A948"></path>
                <path d="M154.182817,142.412493 C154.671004,143.432455 155.520973,144.118242 156.248895,144.561388 C156.975363,145.003081 157.566709,145.196321 157.566709,145.196321 C157.566709,145.196321 157.74542,144.60207 157.803538,143.749196 C157.863108,142.899227 157.793367,141.777559 157.353127,140.75905 C156.453759,138.695879 154.133418,137.768905 154.133418,137.768905 C154.133418,137.768905 153.890777,138.412556 153.765824,139.311925 C153.65976,140.221463 153.696083,141.393984 154.182817,142.412493" id="Fill-179" fill="#31A948"></path>
                <path d="M159.204169,137.184824 C159.730133,138.569473 161.236829,139.226201 161.236829,139.226201 C161.236829,139.226201 161.389387,138.846985 161.476563,138.291962 C161.560834,137.735487 161.586987,137.006113 161.354517,136.318873 C160.8765,134.929865 159.407581,134.197585 159.407581,134.197585 C159.407581,134.197585 159.220152,134.592784 159.096652,135.160882 C158.976058,135.731887 158.945546,136.493226 159.204169,137.184824" id="Fill-180" fill="#31A948"></path>
                <path d="M163.222994,134.418431 C162.351232,135.643257 162.621478,137.264736 162.621478,137.264736 C162.621478,137.264736 164.219709,136.918937 165.056601,135.755134 C165.919646,134.613125 165.7482,132.964041 165.7482,132.964041 C165.7482,132.964041 164.132533,133.221211 163.222994,134.418431" id="Fill-181" fill="#31A948"></path>
                <path d="M161.385028,149.967768 C160.043967,150.078191 158.768288,149.730939 157.803538,149.324117 C156.843146,148.921653 156.219836,148.474148 156.219836,148.474148 C156.219836,148.474148 156.683323,147.865367 157.526027,147.255134 C158.35856,146.639088 159.510739,146.004154 160.877953,145.950396 C162.229185,145.887919 163.480164,146.368842 164.40278,146.851217 C165.323942,147.335045 165.91674,147.818873 165.91674,147.818873 C165.91674,147.818873 165.445989,148.299796 164.632344,148.7967 C163.837587,149.305228 162.730449,149.86025 161.385028,149.967768" id="Fill-182" fill="#31A948"></path>
                <path d="M149.130954,150.689878 C149.876311,151.859492 151.051737,152.56562 152.001958,152.982613 C152.956538,153.401059 153.707707,153.539088 153.707707,153.539088 C153.707707,153.539088 153.809413,152.780655 153.754201,151.735993 C153.683007,150.685519 153.447631,149.337193 152.756033,148.151596 C152.048452,146.96164 150.963108,146.150901 150.047757,145.653997 C149.13386,145.155639 148.38705,144.969663 148.38705,144.969663 C148.38705,144.969663 148.186545,145.808008 148.167656,146.939846 C148.150221,148.073137 148.385597,149.521716 149.130954,150.689878" id="Fill-183" fill="#31A948"></path>
                <path d="M157.87909,158.602575 C156.584523,158.912051 155.246368,158.747869 154.236576,158.489246 C153.228238,158.232076 152.548263,157.880465 152.548263,157.880465 C152.548263,157.880465 152.93765,157.216473 153.648136,156.478381 C154.377511,155.747553 155.468667,154.965873 156.774858,154.697079 C158.08686,154.428286 159.420657,154.730497 160.398484,155.069031 C161.382123,155.413377 162.035944,155.804218 162.035944,155.804218 C162.035944,155.804218 161.62331,156.341804 160.922994,156.966568 C160.211055,157.586972 159.157675,158.285835 157.87909,158.602575" id="Fill-184" fill="#31A948"></path>
                <path d="M145.858939,161.113251 C146.793178,162.166631 148.035439,162.686782 149.039419,162.961388 C150.044852,163.233087 150.812003,163.260693 150.812003,163.260693 C150.812003,163.260693 150.806191,162.496448 150.569362,161.464862 C150.368857,160.441994 149.950411,159.144521 149.05976,158.064988 C148.186545,156.99272 147.008212,156.353428 146.027479,155.996005 C145.049653,155.63713 144.282502,155.56303 144.282502,155.56303 C144.282502,155.56303 144.17789,156.411545 144.359507,157.544837 C144.53386,158.676675 144.905812,160.055513 145.858939,161.113251" id="Fill-185" fill="#31A948"></path>
                <path d="M155.750537,167.214136 C154.503917,167.70087 153.152685,167.727022 152.11674,167.613693 C151.080796,167.501817 150.358686,167.250459 150.358686,167.250459 C150.358686,167.250459 151.529754,164.386719 154.115982,163.507692 C155.38585,163.06164 156.719646,163.166252 157.739608,163.366757 C158.75957,163.568715 159.467151,163.865115 159.467151,163.865115 C159.467151,163.865115 158.204548,166.226138 155.750537,167.214136" id="Fill-186" fill="#31A948"></path>
                <path d="M144.212761,171.407313 C145.277764,172.318305 146.578143,172.653933 147.611181,172.781792 C148.64422,172.906744 149.408465,172.823927 149.408465,172.823927 C149.408465,172.823927 148.959507,169.813441 146.953001,167.930434 C145.92868,166.990383 144.653001,166.521084 143.635944,166.30605 C142.618888,166.088109 141.848831,166.122979 141.848831,166.122979 C141.848831,166.122979 141.904043,166.986024 142.217877,168.081539 C142.514277,169.174148 143.141946,170.497774 144.212761,171.407313" id="Fill-187" fill="#31A948"></path>
                <path d="M39.5643588,168.007439 L38.8357107,168.082992 C37.2520088,153.338583 30.2379533,139.226201 19.4028174,129.090509 L19.9043714,128.555829 C30.8686734,138.81502 37.95988,153.07996 39.5643588,168.007439" id="Fill-188" fill="#31A948"></path>
                <path d="M26.7940556,129.205292 C26.5230828,130.387983 25.8032975,131.297521 25.1612445,131.920832 C24.5178838,132.545595 23.9521099,132.884129 23.9521099,132.884129 C23.9521099,132.884129 23.6442325,132.300048 23.3912761,131.428286 C23.1159444,130.576865 22.8940809,129.427591 23.1194315,128.247806 C23.3500126,127.063662 23.9725963,126.099057 24.5636513,125.425329 C25.1525268,124.751312 25.7015919,124.37689 25.7015919,124.37689 C25.7015919,124.37689 26.112192,124.988867 26.4489829,125.907414 C26.7796715,126.831192 27.0808654,128.010977 26.7940556,129.205292" id="Fill-189" fill="#31A948"></path>
                <path d="M22.7050537,138.950143 C23.8550537,138.820832 24.8955022,138.293415 25.6321415,137.793605 C26.3734302,137.292341 26.824422,136.80706 26.824422,136.80706 C26.824422,136.80706 26.307031,136.390067 25.504283,136.007945 C24.6995009,135.627275 23.6279596,135.277117 22.4584902,135.460187 C21.3028238,135.631634 20.3239798,136.243321 19.6245357,136.802702 C18.9262539,137.363535 18.5070815,137.870611 18.5070815,137.870611 C18.5070815,137.870611 18.9900379,138.198974 19.7659065,138.486656 C20.5211434,138.791773 21.5518572,139.080907 22.7050537,138.950143" id="Fill-190" fill="#31A948"></path>
                <path d="M19.5253001,132.8943 C21.0157233,132.581918 22.0471636,131.197269 22.0471636,131.197269 C22.0471636,131.197269 21.683784,130.96044 21.1357359,130.762841 C20.5904485,130.563788 19.8584586,130.412683 19.1020594,130.603017 C17.6091661,130.972063 16.6595262,132.416283 16.6595262,132.416283 C16.6595262,132.416283 17.009103,132.610977 17.547271,132.76063 C18.0816614,132.914641 18.7787808,133.055576 19.5253001,132.8943" id="Fill-191" fill="#31A948"></path>
                <path d="M17.3880291,128.544205 C18.5425332,129.49152 20.2673152,129.40725 20.2673152,129.40725 C20.2673152,129.40725 20.1076374,127.673895 18.8825205,126.678633 C17.6292167,125.713447 15.9301516,125.918892 15.9301516,125.918892 C15.9301516,125.918892 16.1995262,127.634666 17.3880291,128.544205" id="Fill-192" fill="#31A948"></path>
                <path d="M33.2610802,135.679581 C32.7665003,137.070042 31.7168983,138.072569 30.8387429,138.722032 C29.952451,139.372948 29.2094188,139.691141 29.2094188,139.691141 C29.2094188,139.691141 28.9407707,138.92399 28.7418636,137.841552 C28.5558876,136.750396 28.4910865,135.291647 28.9061908,133.906997 C29.339602,132.510724 30.2532091,131.410851 31.0722299,130.675664 C31.8895073,129.939025 32.6123437,129.568526 32.6123437,129.568526 C32.6123437,129.568526 33.0331143,130.390889 33.3393936,131.560503 C33.6256222,132.744647 33.7495578,134.294931 33.2610802,135.679581" id="Fill-193" fill="#31A948"></path>
                <path d="M26.6194125,146.814894 C28.0434365,146.849764 29.3696778,146.421148 30.3662476,145.944584 C31.3586039,145.473832 31.9948452,144.969663 31.9948452,144.969663 C31.9948452,144.969663 31.8694567,144.812746 31.6215856,144.584635 C31.3693557,144.359429 31.003506,144.057218 30.5504801,143.755007 C29.6528553,143.144774 28.3899621,142.550522 26.9492293,142.575222 C25.5243335,142.589751 24.2374668,143.175285 23.2949463,143.739025 C22.3537334,144.305671 21.7567214,144.850522 21.7567214,144.850522 C21.7567214,144.850522 22.2720783,145.319821 23.149362,145.787667 C24.0244662,146.256966 25.1939356,146.780023 26.6194125,146.814894" id="Fill-194" fill="#31A948"></path>
                <path d="M39.0225584,145.796384 C38.2880985,147.092405 37.1152874,147.894426 36.1355717,148.392784 C35.1545483,148.888235 34.3661845,149.07857 34.3661845,149.07857 C34.3661845,149.07857 34.2056349,148.288172 34.2261213,147.170863 C34.2269931,146.062272 34.3554327,144.638393 35.0384586,143.320579 C35.7169804,142.005671 36.7722489,141.088867 37.7085218,140.497521 C38.6362224,139.909082 39.4132533,139.662082 39.4132533,139.662082 C39.4132533,139.662082 39.7105243,140.529486 39.781573,141.751407 C39.8672963,142.964609 39.7769236,144.491647 39.0225584,145.796384" id="Fill-195" fill="#31A948"></path>
                <path d="M30.6312634,155.670547 C32.0010929,155.950964 33.4084081,155.740288 34.4654201,155.438077 C35.5235944,155.138772 36.2319015,154.747932 36.2319015,154.747932 C36.2319015,154.747932 35.8038661,154.057787 35.0354075,153.300806 C34.2242325,152.559808 33.0633354,151.770863 31.6765066,151.541299 C30.2673026,151.320453 28.8858497,151.690952 27.8648705,152.090509 C26.8418572,152.492973 26.1656601,152.930307 26.1656601,152.930307 C26.1656601,152.930307 26.6303095,153.463535 27.3778459,154.086846 C28.1325016,154.704344 29.2838092,155.381413 30.6312634,155.670547" id="Fill-196" fill="#31A948"></path>
                <path d="M42.8843209,156.205228 C41.9635944,157.366125 40.680796,157.969094 39.6348263,158.30327 C38.5878395,158.635993 37.7772457,158.698469 37.7772457,158.698469 C37.7772457,158.698469 37.7340935,157.896448 37.9194883,156.798027 C38.1268225,155.695247 38.4681175,154.313504 39.3350853,153.125001 C40.2027795,151.937951 41.4239735,151.186782 42.4357991,150.753807 C43.4468983,150.317926 44.2484839,150.198785 44.2484839,150.198785 C44.2484839,150.198785 44.7844725,153.873264 42.8843209,156.205228" id="Fill-197" fill="#31A948"></path>
                <path d="M33.008705,164.598848 C34.3253569,165.092847 35.7519962,165.113188 36.8450411,164.988235 C37.9385218,164.864736 38.6989893,164.595942 38.6989893,164.595942 C38.6989893,164.595942 37.4408907,161.576738 34.7010865,160.703523 C33.3566835,160.257471 31.956633,160.396953 30.8789893,160.629423 C29.804542,160.863346 29.0663045,161.185898 29.0663045,161.185898 C29.0663045,161.185898 29.3920531,161.794679 30.0589514,162.518242 C30.7469172,163.238899 31.6971383,164.101943 33.008705,164.598848" id="Fill-198" fill="#31A948"></path>
                <path d="M96.0362603,28.5120761 C96.0362603,29.9254937 94.8913455,31.0712802 93.4776374,31.0712802 C92.0639292,31.0712802 90.9175616,29.9254937 90.9175616,28.5120761 C90.9175616,27.0986586 92.0639292,25.9528721 93.4776374,25.9528721 C94.8913455,25.9528721 96.0362603,27.0986586 96.0362603,28.5120761" id="Fill-199" fill="#EC922D"></path>
                <path d="M211.29343,72.7405095 C211.29343,74.153927 210.147063,75.2997135 208.733354,75.2997135 C207.319646,75.2997135 206.174732,74.153927 206.174732,72.7405095 C206.174732,71.3270919 207.319646,70.1813054 208.733354,70.1813054 C210.147063,70.1813054 211.29343,71.3270919 211.29343,72.7405095" id="Fill-200" fill="#EC922D"></path>
                <path d="M195.651105,76.7921709 C195.651105,77.6393787 194.965319,78.3261823 194.116804,78.3261823 C193.269741,78.3261823 192.583955,77.6393787 192.583955,76.7921709 C192.583955,75.9449631 193.269741,75.2581595 194.116804,75.2581595 C194.965319,75.2581595 195.651105,75.9449631 195.651105,76.7921709" id="Fill-201" fill="#EC922D"></path>
                <path d="M120.897473,51.8846093 C120.897473,52.5995998 120.317751,53.1793219 119.602906,53.1793219 C118.888061,53.1793219 118.308339,52.5995998 118.308339,51.8846093 C118.308339,51.1694735 118.888061,50.5898967 119.602906,50.5898967 C120.317751,50.5898967 120.897473,51.1694735 120.897473,51.8846093" id="Fill-202" fill="#EC922D"></path>
                <path d="M3.38243841,60.7238449 C3.38243841,61.4388354 2.80271636,62.0185575 2.08772584,62.0185575 C1.37259002,62.0185575 0.793013266,61.4388354 0.793013266,60.7238449 C0.793013266,60.0087091 1.37259002,59.4291324 2.08772584,59.4291324 C2.80271636,59.4291324 3.38243841,60.0087091 3.38243841,60.7238449" id="Fill-203" fill="#EC922D"></path>
                <path d="M129.026658,95.0877047 C129.026658,95.8026952 128.446936,96.3824173 127.732091,96.3824173 C127.017246,96.3824173 126.437524,95.8026952 126.437524,95.0877047 C126.437524,94.3727142 127.017246,93.7929921 127.732091,93.7929921 C128.446936,93.7929921 129.026658,94.3727142 129.026658,95.0877047" id="Fill-204" fill="#EC922D"></path>
                <path d="M63.5936197,25.9268645 C63.5936197,26.641855 63.0138977,27.2215771 62.2990524,27.2215771 C61.5842072,27.2215771 61.0044852,26.641855 61.0044852,25.9268645 C61.0044852,25.211874 61.5842072,24.6321519 62.2990524,24.6321519 C63.0138977,24.6321519 63.5936197,25.211874 63.5936197,25.9268645" id="Fill-205" fill="#EC922D"></path>
                <path d="M185.989071,25.9268645 C185.989071,26.641855 185.409349,27.2215771 184.694504,27.2215771 C183.979659,27.2215771 183.399937,26.641855 183.399937,25.9268645 C183.399937,25.211874 183.979659,24.6321519 184.694504,24.6321519 C185.409349,24.6321519 185.989071,25.211874 185.989071,25.9268645" id="Fill-206" fill="#EC922D"></path>
                <path d="M99.2530638,178.517989 L166.877132,178.517989 C167.097979,178.517989 167.27669,178.339278 167.27669,178.119884 L167.27669,54.4939397 C167.27669,54.273965 167.097979,54.0956895 166.877132,54.0956895 L99.2530638,54.0956895 C99.0336702,54.0956895 98.8549589,54.273965 98.8549589,54.4939397 L98.8549589,178.119884 C98.8549589,178.339278 99.0336702,178.517989 99.2530638,178.517989" id="Fill-207" fill="#423044"></path>
                <polygon id="Fill-208" fill="#7BA3B5" points="104.107328 162.943952 162.024321 162.943952 162.024321 63.6464286 104.107328 63.6464286"></polygon>
                <path d="M128.90897,170.420768 C128.90897,172.71641 130.770183,174.577623 133.065824,174.577623 C135.361466,174.577623 137.222678,172.71641 137.222678,170.420768 C137.222678,168.125127 135.361466,166.263914 133.065824,166.263914 C130.770183,166.263914 128.90897,168.125127 128.90897,170.420768" id="Fill-209" fill="#2F2530"></path>
                <path d="M122.199305,59.5349062 L143.930891,59.5349062 C143.967214,59.5349062 143.996273,59.5058475 143.996273,59.4699599 L143.996273,57.3382101 C143.996273,57.3024678 143.967214,57.273409 143.930891,57.273409 L122.199305,57.273409 C122.164435,57.273409 122.135376,57.3024678 122.135376,57.3382101 L122.135376,59.4699599 C122.135376,59.5058475 122.164435,59.5349062 122.199305,59.5349062" id="Fill-210" fill="#2F2530"></path>
                <path d="M140.576058,109.859429 C138.921162,112.222632 136.178016,113.764344 133.070183,113.764344 C127.989261,113.764344 123.881807,109.65718 123.881807,104.576694 C123.881807,99.5091387 127.989261,95.3891892 133.070183,95.3891892 C134.472268,95.3891892 135.800253,95.7050578 136.987303,96.2863781 L138.313834,94.6309011 C136.747568,93.7967698 134.966267,93.3292145 133.070183,93.3292145 C126.851611,93.3292145 121.822994,98.3716339 121.822994,104.576694 C121.822994,110.781899 126.851611,115.824464 133.070183,115.824464 C136.898673,115.824464 140.273847,113.90339 142.321036,110.971508 L140.576058,109.859429" id="Fill-211" fill="#F4EA3D"></path>
                <polyline id="Fill-212" fill="#FFFFFE" points="122.136829 138.918178 121.472836 142.698722 122.946115 142.698722 122.887997 143.019821 121.003538 143.019821 121.724195 138.918178 122.136829 138.918178"></polyline>
                <path d="M124.926469,142.721969 C125.783702,142.721969 126.377953,141.964988 126.377953,141.107755 C126.377953,140.437951 125.924637,140.121211 125.389956,140.121211 C124.534176,140.121211 123.958812,140.878191 123.958812,141.733971 C123.958812,142.397964 124.399052,142.721969 124.926469,142.721969 Z M124.879975,143.067768 C124.0765,143.067768 123.536008,142.556334 123.536008,141.751407 C123.536008,140.661703 124.340935,139.768147 125.450979,139.768147 C126.253001,139.768147 126.799305,140.279581 126.799305,141.084508 C126.799305,142.181476 125.978395,143.067768 124.879975,143.067768 L124.879975,143.067768 Z" id="Fill-213" fill="#FFFFFE"></path>
                <path d="M129.167593,140.127022 C128.499242,140.127022 127.893367,140.597774 127.753885,141.412872 C127.605685,142.222158 128.041567,142.708892 128.708465,142.708892 C129.368099,142.708892 129.988503,142.214894 130.129438,141.418684 C130.276184,140.621021 129.824321,140.127022 129.167593,140.127022 Z M129.15597,139.768147 C129.801074,139.768147 130.177385,140.113946 130.289261,140.519316 L130.411308,139.816094 L130.822489,139.816094 L130.258749,143.019821 L129.849021,143.019821 L129.971068,142.309335 C129.719709,142.721969 129.208275,143.067768 128.568983,143.067768 C127.694315,143.067768 127.155275,142.415399 127.33108,141.412872 C127.506886,140.408892 128.27549,139.768147 129.15597,139.768147 L129.15597,139.768147 Z" id="Fill-214" fill="#FFFFFE"></path>
                <path d="M133.125395,140.127022 C132.457044,140.127022 131.851169,140.597774 131.711687,141.412872 C131.563487,142.222158 131.999368,142.708892 132.666267,142.708892 C133.3259,142.708892 133.946304,142.214894 134.087239,141.418684 C134.233986,140.621021 133.782123,140.127022 133.125395,140.127022 Z M133.119583,139.768147 C133.694946,139.768147 134.117751,140.08634 134.252874,140.509145 L134.575426,138.678444 L134.985155,138.678444 L134.216551,143.019821 L133.806822,143.019821 L133.934681,142.303523 C133.671699,142.726328 133.16753,143.067768 132.531143,143.067768 C131.652116,143.067768 131.113076,142.415399 131.288882,141.412872 C131.464687,140.408892 132.233291,139.768147 133.119583,139.768147 L133.119583,139.768147 Z" id="Fill-215" fill="#FFFFFE"></path>
                <path d="M135.785723,138.905102 C135.814782,138.729297 135.96734,138.60725 136.137334,138.60725 C136.302969,138.60725 136.414845,138.729297 136.379975,138.905102 C136.349463,139.08236 136.196905,139.210219 136.032723,139.210219 C135.862729,139.210219 135.758117,139.08236 135.785723,138.905102 Z M135.715982,139.816094 L136.127164,139.816094 L135.561971,143.019821 L135.152243,143.019821 L135.715982,139.816094 L135.715982,139.816094 Z" id="Fill-216" fill="#FFFFFE"></path>
                <path d="M139.217562,141.18912 C139.339608,140.478633 139.024321,140.113946 138.435881,140.113946 C137.837271,140.113946 137.350537,140.490257 137.215414,141.270484 L137.215414,141.254502 L136.903032,143.019821 L136.493304,143.019821 L137.058497,139.816094 L137.468225,139.816094 L137.366519,140.366757 C137.64403,139.968652 138.097347,139.757976 138.578269,139.757976 C139.298926,139.757976 139.797284,140.204028 139.633102,141.142626 L139.298926,143.019821 L138.893557,143.019821 L139.217562,141.18912" id="Fill-217" fill="#FFFFFE"></path>
                <path d="M142.136513,140.127022 C141.466709,140.127022 140.860834,140.597774 140.721352,141.412872 C140.574605,142.222158 141.009033,142.708892 141.677385,142.708892 C142.335565,142.708892 142.95597,142.214894 143.098358,141.418684 C143.243651,140.621021 142.793241,140.127022 142.136513,140.127022 Z M142.123437,139.768147 C142.756917,139.768147 143.144852,140.109587 143.256728,140.513504 L143.378774,139.816094 L143.791409,139.816094 L143.216045,143.101185 C143.057675,144.000554 142.335565,144.593352 141.453632,144.593352 C140.626911,144.593352 140.1271,144.170547 140.11693,143.500743 L140.522299,143.500743 C140.580417,143.936624 140.926216,144.234477 141.520467,144.234477 C142.130701,144.234477 142.675553,143.829107 142.803411,143.101185 L142.938534,142.309335 C142.688629,142.721969 142.177195,143.067768 141.542262,143.067768 C140.661781,143.067768 140.122742,142.415399 140.298547,141.412872 C140.475805,140.408892 141.242956,139.768147 142.123437,139.768147 L142.123437,139.768147 Z" id="Fill-218" fill="#FFFFFE"></path>
                <path d="M144.22729,143.050333 C144.057296,143.050333 143.952685,142.915209 143.980291,142.743763 C144.010802,142.573769 144.169172,142.444458 144.331901,142.444458 C144.503348,142.444458 144.609413,142.573769 144.578901,142.743763 C144.54403,142.915209 144.392925,143.050333 144.22729,143.050333" id="Fill-219" fill="#FFFFFE"></path>
                <path d="M145.295199,143.050333 C145.126658,143.050333 145.020594,142.915209 145.049653,142.743763 C145.078711,142.573769 145.238534,142.444458 145.401263,142.444458 C145.57271,142.444458 145.677322,142.573769 145.648263,142.743763 C145.613392,142.915209 145.460834,143.050333 145.295199,143.050333" id="Fill-220" fill="#FFFFFE"></path>
                <path d="M146.363108,143.050333 C146.193114,143.050333 146.088503,142.915209 146.116109,142.743763 C146.145167,142.573769 146.304991,142.444458 146.46772,142.444458 C146.639166,142.444458 146.745231,142.573769 146.714719,142.743763 C146.679848,142.915209 146.52729,143.050333 146.363108,143.050333" id="Fill-221" fill="#FFFFFE"></path>
                <path d="M144.304296,104.576694 C144.304296,106.952683 143.572015,109.164344 142.321036,110.971508 L140.576058,109.859429 C141.625079,108.368134 142.245483,106.54833 142.245483,104.576694 C142.245483,100.911804 140.096589,97.7397514 136.987303,96.2863781 L138.313834,94.6309011 C141.87789,96.5139081 144.304296,100.267281 144.304296,104.576694" id="Fill-222" fill="#5E8592"></path>
                <path d="M37.5370752,174.050206 C34.7772205,166.099732 25.3151105,164.391078 25.3151105,164.391078 C25.3151105,164.391078 27.4836197,173.393479 31.3604927,176.15406 L37.8655843,176.15406 L37.5370752,174.050206" id="Fill-223" fill="#25606B"></path>
                <path d="M35.653487,176.15406 C35.653487,176.15406 32.8498989,170.195563 29.8709413,168.662714 C29.8709413,168.662714 32.8936323,172.210787 34.5145294,176.15406 L35.653487,176.15406" id="Fill-224" fill="#204954"></path>
                <path d="M23.8695831,176.15406 C20.3870373,172.341552 22.0954011,167.610787 22.0954011,167.610787 C22.0954011,167.610787 30.5719836,170.962714 32.1490019,176.15406 L23.8695831,176.15406" id="Fill-225" fill="#C5943F"></path>
                <polyline id="Fill-226" fill="#AF7137" points="28.6882502 176.15406 25.2274984 172.034982 27.3301895 176.15406 28.6882502 176.15406"></polyline>
                <path d="M199.059697,176.412683 C202.66734,170.311798 200.502464,162.044584 200.502464,162.044584 C200.502464,162.044584 194.664561,163.947932 191.908339,176.412683 L199.059697,176.412683" id="Fill-227" fill="#25606B"></path>
                <path d="M195.778964,176.412683 C197.266772,170.114199 203.302274,167.971116 203.302274,167.971116 C203.302274,167.971116 203.039292,173.43852 200.502464,176.412683 L195.778964,176.412683" id="Fill-228" fill="#204954"></path>
                <path d="M194.401579,176.412683 C195.713582,170.814515 197.83487,168.014704 197.83487,168.014704 C197.83487,168.014704 195.385218,173.482108 195.123689,176.412683 L194.401579,176.412683" id="Fill-229" fill="#204954"></path>
                <polyline id="Fill-230" fill="#19363C" points="197.369931 176.412683 200.84681 170.917673 198.124005 176.412683 197.369931 176.412683"></polyline>
                <path d="M194.546873,176.412683 C193.060518,170.114199 187.025016,167.971116 187.025016,167.971116 C187.025016,167.971116 187.286545,173.43852 189.823373,176.412683 L194.546873,176.412683" id="Fill-231" fill="#204954"></path>
                <polyline id="Fill-232" fill="#19363C" points="192.955907 176.412683 189.479027 170.917673 192.201832 176.412683 192.955907 176.412683"></polyline>
                <path d="M178.087997,178.701059 C187.776184,162.317736 181.962982,140.121211 181.962982,140.121211 C181.962982,140.121211 166.284334,145.229739 158.885976,178.701059 L178.087997,178.701059" id="Fill-233" fill="#25606B"></path>
                <path d="M169.278838,178.701059 C173.272963,161.788867 189.479027,156.035235 189.479027,156.035235 C189.479027,156.035235 188.774352,170.715715 181.962982,178.701059 L169.278838,178.701059" id="Fill-234" fill="#204954"></path>
                <path d="M165.579659,178.701059 C169.103032,163.668968 174.798547,156.152923 174.798547,156.152923 C174.798547,156.152923 168.222552,170.83195 167.517877,178.701059 L165.579659,178.701059" id="Fill-235" fill="#204954"></path>
                <polyline id="Fill-236" fill="#19363C" points="173.551927 178.701059 182.888503 163.947932 175.577322 178.701059 173.551927 178.701059"></polyline>
                <path d="M165.971952,178.701059 C161.977827,161.788867 145.771762,156.035235 145.771762,156.035235 C145.771762,156.035235 146.476437,170.715715 153.287808,178.701059 L165.971952,178.701059" id="Fill-237" fill="#204954"></path>
                <polyline id="Fill-238" fill="#19363C" points="161.698863 178.701059 152.362287 163.947932 159.673468 178.701059 161.698863 178.701059"></polyline>
                <path d="M46.8803348,89.4899725 C46.8803348,86.9745019 51.3396905,82.5151463 53.8553064,82.5151463 C51.3396905,82.5151463 46.8803348,78.0557906 46.8803348,75.5401747 C46.8803348,78.0557906 42.4209792,82.5151463 39.9055085,82.5151463 C42.4209792,82.5151463 46.8803348,86.9745019 46.8803348,89.4899725" id="Fill-239" fill="#F4EA3D"></path>
                <path d="M40.6255843,78.6571614 C40.6255843,77.2171551 43.1783955,74.6644893 44.6182565,74.6644893 C43.1783955,74.6644893 40.6255843,72.1118234 40.6255843,70.6718171 C40.6255843,72.1118234 38.0729185,74.6644893 36.6329122,74.6644893 C38.0729185,74.6644893 40.6255843,77.2171551 40.6255843,78.6571614" id="Fill-240" fill="#F4EA3D"></path>
                <path d="M73.8818699,172.64231 C67.2303222,153.478065 44.4239987,149.36044 44.4239987,149.36044 C44.4239987,149.36044 49.6505054,171.058608 58.9950726,177.710156 L74.6751737,177.710156 L73.8818699,172.64231" id="Fill-241" fill="#25606B"></path>
                <path d="M69.3428932,177.710156 C69.3428932,177.710156 62.5852811,163.350775 55.4050095,159.654502 C55.4050095,159.654502 62.6898926,168.207945 66.5968414,177.710156 L69.3428932,177.710156" id="Fill-242" fill="#204954"></path>
                <path d="M40.9395641,177.710156 C32.5455085,168.524685 36.6634239,157.120579 36.6634239,157.120579 C36.6634239,157.120579 57.0946304,165.198911 60.8955148,177.710156 L40.9395641,177.710156" id="Fill-243" fill="#C5943F"></path>
                <polyline id="Fill-244" fill="#AF7137" points="52.5540556 177.710156 44.2127416 167.78514 49.2810234 177.710156 52.5540556 177.710156"></polyline>
                <polyline id="Fill-245" fill="#D79072" points="65.4504738 95.9524931 64.2794062 103.414053 67.1576753 104.207503 69.7918509 96.3070098 65.4504738 95.9524931"></polyline>
                <path d="M73.623247,90.7951463 C73.855717,97.1886523 72.787808,99.6949694 69.3007581,99.5554874 C65.8151611,99.4160054 62.4414403,94.3910212 64.5336702,92.020699 C66.6244473,89.6503768 73.5259002,88.1330742 73.623247,90.7951463" id="Fill-246" fill="#EFA680"></path>
                <path d="M72.5262792,176.650964 L71.5164877,181.198659 L81.6986734,181.198659 C81.6986734,181.198659 82.0633607,177.888867 75.8375237,177.441362 L73.8818699,176.33713 L72.5262792,176.650964" id="Fill-247" fill="#C73D6C"></path>
                <path d="M40.1295515,176.650964 L39.1197599,181.198659 L49.3019457,181.198659 C49.3019457,181.198659 49.6661971,177.888867 43.4405054,177.441362 L41.484561,176.33713 L40.1295515,176.650964" id="Fill-248" fill="#C73D6C"></path>
                <path d="M76.9620973,177.441362 L71.3624763,177.441362 C71.5164877,166.673643 73.6537587,155.871053 73.6537587,150.65646 L62.0651295,135.214641 L59.7796589,152.792278 C59.5980417,154.190004 59.0691725,155.519442 58.242451,156.658545 L45.8378522,177.611356 L39.7953759,176.402512 L51.7443335,153.168589 L55.0551421,125.436517 L65.1409981,123.701274 L79.2417562,144.3202 C80.8225521,146.630371 81.4560328,149.45924 81.011434,152.222727 L76.9620973,177.441362" id="Fill-249" fill="#423044"></path>
                <path d="M69.7918509,108.017831 L76.8168035,122.357161 C77.4444725,123.637635 76.8356917,125.180364 75.5033481,125.687294 C74.3366393,126.131021 73.0231838,125.615374 72.4696147,124.496467 L68.7718888,117.012822 L69.7918509,108.017831" id="Fill-250" fill="#7171A6"></path>
                <path d="M63.888566,99.5610085 C63.888566,99.5610085 56.0261402,114.836902 54.6417814,123.455292 C54.5341188,124.125241 53.2439103,128.256523 53.1984334,128.871116 L67.7141503,127.856966 C67.7141503,127.856966 70.9324068,106.581021 70.5502843,103.457787 C70.1318383,100.027111 63.888566,99.5610085 63.888566,99.5610085" id="Fill-251" fill="#7575A9"></path>
                <path d="M62.3339229,107.477193 C59.7157296,113.491046 65.0523689,127.361514 65.0523689,127.361514 L59.1418193,126.264546 L57.4869236,114.044325 L56.0653696,109.26605 L62.3339229,107.477193" id="Fill-252" fill="#7171A6"></path>
                <path d="M65.9517372,92.713169 C65.9517372,92.713169 72.9214782,93.3632132 74.1419457,89.0622277 C75.3624131,84.761097 69.5927985,84.839265 69.5927985,84.839265 C69.5927985,84.839265 69.4707517,84.0883869 69.4707517,85.9484375 C69.4707517,85.9484375 59.4411244,86.8281911 63.1606443,95.5466876 C63.1606443,95.5466876 63.6255843,96.9561823 65.0799747,98.4673825 L65.9517372,92.713169" id="Fill-253" fill="#423044"></path>
                <path d="M66.213266,94.8055442 C64.9913455,93.3234027 63.8580543,94.1081342 64.5554643,96.2876857 C65.2543272,98.4673825 66.4312066,97.1160054 66.4312066,97.1160054 L66.213266,94.8055442" id="Fill-254" fill="#EFA680"></path>
                <path d="M106.802527,113.81447 L97.574921,90.9433459 C100.370373,88.1439713 103.821099,85.9105158 107.800695,84.5013118 C117.756222,80.975759 128.387366,83.5322025 135.634618,90.2373636 L109.502085,99.4914128 L106.802527,113.81447" id="Fill-255" fill="#FFFFFE"></path>
                <path d="M93.5735313,110.248235 L44.0088945,127.800301 C39.8906886,129.25905 37.7345294,133.779139 39.1928427,137.896763 C40.6513013,142.015841 45.1718256,144.172 49.2900316,142.713251 L98.853506,125.161185 L93.5735313,110.248235" id="Fill-256" fill="#FFFFFE"></path>
                <path d="M84.2006317,121.958911 L84.2006317,121.958911 C83.1472521,118.984748 79.8825016,117.42749 76.9083386,118.480724 L46.4969046,129.250333 C43.5225963,130.303712 41.9654833,133.568463 43.0187176,136.542626 C44.071952,139.516789 47.3367025,141.074338 50.3108654,140.020958 L80.7222994,129.251786 C83.6964624,128.198406 85.2540114,124.933074 84.2006317,121.958911" id="Fill-257" fill="#E0DDE7"></path>
                <path d="M48.5865193,136.545532 C47.6175553,136.888425 46.5540051,136.38135 46.2108212,135.41224 C45.8676374,134.443131 46.3750032,133.379581 47.3439672,133.036688 C48.3129311,132.692341 49.3766267,133.20087 49.7198105,134.168526 C50.062849,135.137635 49.5554833,136.202638 48.5865193,136.545532" id="Fill-258" fill="#F7D5DE"></path>
                <path d="M126.284965,136.141615 C111.985155,141.205102 96.2919773,133.715209 91.2270373,119.41598 C87.5728996,109.095911 90.4540745,98.0461759 97.7202148,90.7980521 L106.947821,113.669177 L118.173215,123.421293 L144.304296,114.167244 C142.893493,123.938103 136.240493,132.615336 126.284965,136.141615" id="Fill-259" fill="#FFFFFE"></path>
                <path d="M64.7574226,106.038204 C65.5710676,104.835317 65.6146557,103.236359 64.7777637,102.049019 C63.8522426,100.733965 62.4617814,100.747332 60.753127,102.689473 C59.0691725,104.602266 55.755458,108.679644 53.7976248,111.105178 C52.8427543,112.288014 52.6301895,113.904552 53.2450726,115.294723 L59.9060644,130.354565 L63.0211623,128.313188 L59.7157296,113.491046 L64.7574226,106.038204" id="Fill-260" fill="#7575A9"></path>
                <path d="M86.1722678,129.048374 C85.819204,129.561261 85.9325332,130.270295 86.4439672,130.623359 C88.2456096,131.871432 90.3392925,131.152228 91.3679722,129.567073 C92.5535692,127.737825 91.1849021,126.220958 89.2423247,126.523169 C87.9695515,126.720768 86.8144662,128.114136 86.1722678,129.048374" id="Fill-261" fill="#EFA680"></path>
                <path d="M63.8638661,127.332455 C60.5555275,126.632139 57.7353759,127.875854 57.6307644,130.002954 C57.5246999,132.130055 59.4324068,133.565557 61.4301958,132.942247 C63.4294378,132.317484 63.4919141,128.756334 63.4919141,128.756334 C63.4919141,128.756334 64.0571068,129.363662 64.8489577,129.134098 C65.6408086,128.905986 63.8638661,127.332455 63.8638661,127.332455" id="Fill-262" fill="#EFA680"></path>
                <path d="M115.478016,25.8780458 C115.812192,25.7729984 116.172521,25.7894166 116.490714,25.9373257 L117.318888,26.3223541 L114.888124,31.5520572 L120.120152,33.9842745 L119.870246,34.5237502 C119.7235,34.8407811 119.460518,35.0857464 119.137966,35.2201431 C118.681744,35.4101873 118.292356,35.7620888 118.067151,36.2476605 C117.525205,37.411754 118.171762,38.8074457 119.485218,39.1093661 C120.278522,39.2911286 121.150284,38.9447483 121.605054,38.27044 C121.98427,37.7085891 122.049653,37.0629037 121.870941,36.4934975 C121.76633,36.1587407 121.782312,35.7991387 121.930512,35.4809454 L122.180417,34.9417603 L127.408086,37.3709264 L129.840303,32.1367192 L129.400063,31.9322909 C129.08187,31.7842366 128.721541,31.7759548 128.387366,31.8826005 C127.814908,32.0605853 127.165445,31.9866308 126.610423,31.6146788 C125.93626,31.1535164 125.587555,30.2855316 125.764814,29.4903389 C126.068478,28.1744135 127.467656,27.538608 128.630006,28.078229 C129.11674,28.3044514 129.463992,28.682651 129.658686,29.1483174 C129.796715,29.463169 130.034997,29.7335607 130.35319,29.8813244 L130.79343,30.0860433 L133.225648,24.8518361 L128.015414,22.429644 C128.166519,22.1509706 128.400442,21.9269277 128.696841,21.8040092 C129.153064,21.6138197 129.540998,21.2619182 129.767656,20.7763465 C130.308149,19.6123983 129.663045,18.2165613 128.348136,17.9150768 C127.554833,17.7330237 126.684523,18.0792587 126.228301,18.7534217 C125.849084,19.3154179 125.783702,19.9611033 125.962413,20.5306548 C126.058307,20.836934 126.039419,21.1609391 125.924637,21.4582101 L120.707138,19.0329668 L118.276374,24.2623794 L117.4482,23.8770603 C117.130006,23.7300231 116.885913,23.467332 116.75079,23.1446346 C116.561908,22.6881216 116.208844,22.2996061 115.723563,22.073965 C114.55976,21.532891 113.163487,22.1785764 112.862729,23.493049 C112.679659,24.2859169 113.026911,25.1569529 113.701074,25.6121583 C114.263361,25.9916655 114.908465,26.0570477 115.478016,25.8780458" id="Fill-263" fill="#FFFFFE"></path>
                <path d="M63.00518,52.2431943 C64.8939987,50.3539397 67.9626027,50.3582985 69.8514214,52.2475531 C71.7445989,54.1413118 71.7445989,57.2046851 69.8557802,59.0937944 C67.9626027,60.9875531 64.8983575,60.9875531 63.00518,59.0937944 C61.1163613,57.2046851 61.1120025,54.1368077 63.00518,52.2431943 Z M57.2050537,62.1395872 L59.9598231,64.894066 L62.1537587,62.7002758 C62.8860392,63.1503958 63.6720783,63.4681532 64.4842704,63.6624109 L64.4842704,66.7700989 L68.3766898,66.7700989 L68.3766898,63.6624109 C69.1888819,63.4681532 69.9705622,63.146037 70.7072015,62.7002758 L72.9011371,64.894066 L75.6515477,62.1440913 L73.4576121,59.950301 C73.9036639,59.2130806 74.226216,58.4316908 74.4252685,57.6151399 L77.52729,57.6194987 L77.52729,53.7263528 L74.4252685,53.7218487 C74.226216,52.9141608 73.9080227,52.1284122 73.4576121,51.3956958 L75.6515477,49.2017603 L72.8967783,46.4474267 L70.7028427,48.641217 C69.974921,48.1954558 69.1845231,47.8731943 68.3766898,47.6745777 L68.3766898,44.575898 L64.4842704,44.575898 L64.4842704,47.6745777 C63.6720783,47.8775531 62.8860392,48.1954558 62.1537587,48.6455758 L59.9598231,46.4517855 L57.2094125,49.2017603 L59.4033481,51.3956958 C58.9529375,52.1284122 58.6347442,52.9141608 58.4371447,53.7218487 L55.333525,53.7263528 L55.333525,57.6194987 L58.4371447,57.6151399 C58.6303853,58.427332 58.9529375,59.2174394 59.3989893,59.9457969 L57.2050537,62.1395872 L57.2050537,62.1395872 Z" id="Fill-264" fill="#FFFFFE"></path>
            </g>
        </g>
    </g>
</svg>