<?xml version="1.0" encoding="UTF-8"?>
<svg width="180px" height="216px" viewBox="0 0 180 216" version="1.1" xmlns="http://www.w3.org/2000/svg" xmlns:xlink="http://www.w3.org/1999/xlink">
    <title>Higher Efficiency</title>
    <defs>
        <path d="M35.425509,20.5523353 C24.3167066,20.5517964 13.984491,16.5282036 7.49748503,13.3092216 C7.05287425,13.0888024 6.62658683,12.8721557 6.21916168,12.6608982 C4.99257485,12.0244311 3.93790419,11.4359281 3.08263473,10.9379641 C1.4594012,9.99592814 0.55508982,9.37832335 0.55508982,9.37832335 C0.0522754491,2.62994012 3.44586826,0.25491018 3.44586826,0.25491018 L5.29652695,0.846107784 L6.15772455,1.12095808 L25.1234731,7.15634731 L37.6782036,6.53874251 L38.4483234,6.50047904 L39.7471257,6.43688623 L42.4115569,6.30808383 L39.7471257,6.43688623 L38.4483234,6.50047904 C38.0985629,7.86934132 37.792994,9.34005988 37.551018,10.9379641 C37.0288024,14.3439521 36.9016168,17.5526946 37.0482036,20.5194611 C36.5960479,20.5388623 36.1438922,20.5512575 35.6917365,20.5512575 C35.6022754,20.5517964 35.5149701,20.5523353 35.425509,20.5523353" id="path-1"></path>
        <linearGradient x1="49.0350655%" y1="61.6720137%" x2="52.579759%" y2="45.2391364%" id="linearGradient-3">
            <stop stop-color="#3854E0" offset="0%"></stop>
            <stop stop-color="#5C7DF7" offset="100%"></stop>
        </linearGradient>
        <path d="M0.401497006,14.5913174 C0.25491018,11.6245509 0.382095808,8.41580838 0.904311377,5.00982036 C1.14628743,3.41191617 1.45185629,1.9411976 1.80161677,0.572335329 L3.10041916,0.508742515 L5.7648503,0.37994012 C5.74760479,0.423592814 5.73035928,0.466706587 5.71365269,0.508742515 C6.55221557,0.680658683 7.17035928,1.14898204 7.64676647,1.74017964 L7.44682635,3.27610778 L5.45227545,3.16994012 L6.68640719,9.11047904 L6.04832335,14.005509 C4.66652695,14.241018 3.29820359,14.407006 1.92934132,14.5088623 C1.42005988,14.5471257 0.910239521,14.5724551 0.401497006,14.5913174" id="path-4"></path>
        <linearGradient x1="-20.823947%" y1="99.8824422%" x2="-15.4531666%" y2="-0.167235495%" id="linearGradient-6">
            <stop stop-color="#3552D0" offset="0%"></stop>
            <stop stop-color="#4768DB" offset="100%"></stop>
        </linearGradient>
        <path d="M7.65,37.1446707 L0.245748503,34.7761078 C0.245748503,34.7761078 0.335209581,33.3819162 0.691437126,31.2046707 C0.697904192,31.1346108 0.710838323,31.0650898 0.723233533,30.9950299 C1.57634731,25.8628743 3.88724551,16.657006 9.8148503,10.8258683 C13.7937126,6.91652695 18.6957485,4.38251497 22.8152695,2.79107784 C23.3752096,2.57443114 23.9162874,2.37071856 24.438503,2.19287425 C24.6928743,2.10341317 24.9477844,2.02095808 25.1897605,1.93796407 C26.1317964,1.62592814 27.0043114,1.37155689 27.7744311,1.16137725 C29.9392814,0.575568862 31.327006,0.359461078 31.327006,0.359461078 L32.3876048,3.85868263 L31.327006,0.359461078 C31.327006,0.359461078 29.9392814,0.575568862 27.7744311,1.16137725 C27.0043114,1.37155689 26.1317964,1.62592814 25.1897605,1.93796407 C24.9477844,2.02095808 24.6928743,2.10341317 24.438503,2.19287425 C25.1644311,7.8908982 26.7941317,12.4808982 28.2201198,15.6066467 L27.6790419,15.7408383 L24.3495808,16.5556886 L16.5885629,18.4591617 L9.23550898,33.8216766 L9.20964072,33.8782635 L7.65,37.1446707" id="path-7"></path>
        <linearGradient x1="57.5213423%" y1="58.5053548%" x2="33.325419%" y2="26.1986316%" id="linearGradient-9">
            <stop stop-color="#3854E0" offset="0%"></stop>
            <stop stop-color="#5C7DF7" offset="100%"></stop>
        </linearGradient>
        <path d="M3.96862275,15.6066467 C2.54263473,12.4808982 0.912934132,7.8908982 0.187005988,2.19287425 C0.441377246,2.10341317 0.696287425,2.02095808 0.938263473,1.93796407 C1.8802994,1.62592814 2.75281437,1.37155689 3.52293413,1.16137725 C5.68778443,0.575568862 7.07550898,0.359461078 7.07550898,0.359461078 L8.13610778,3.85868263 L8.73161677,14.4404192 L7.92215569,14.6392814 L3.96862275,15.6066467" id="path-10"></path>
        <linearGradient x1="16.0838832%" y1="141.149442%" x2="-21.355667%" y2="63.2065602%" id="linearGradient-12">
            <stop stop-color="#3552D0" offset="0%"></stop>
            <stop stop-color="#4768DB" offset="100%"></stop>
        </linearGradient>
        <path d="M7.15526946,20.5523353 C7.06580838,20.5523353 6.97850299,20.5517964 6.88850299,20.5512575 C6.43688623,20.5512575 5.98473054,20.5388623 5.53311377,20.5194611 C5.67916168,17.5526946 5.55197605,14.3439521 5.02976048,10.9379641 C4.78778443,9.34005988 4.48221557,7.86934132 4.13191617,6.50047904 L2.83365269,6.43688623 L0.139041916,6.30646707 L2.83365269,6.43688623 L4.13191617,6.50047904 L4.90257485,6.53874251 L17.4573054,7.15634731 L36.4230539,1.12095808 L37.3171257,0.835329341 L39.1004192,0.266227545 L39.1349102,0.25491018 C39.1349102,0.25491018 42.528503,2.62994012 42.0251497,9.37832335 C42.0251497,9.37832335 41.1213772,9.99592814 39.4976048,10.9379641 C37.9498204,11.8390419 35.7494012,13.0370659 33.0542515,14.2808982 C32.558982,14.5094012 32.0459281,14.7400599 31.5177844,14.9701796 C25.117006,17.7623353 16.4047904,20.5523353 7.15526946,20.5523353" id="path-13"></path>
        <linearGradient x1="51.2719013%" y1="61.3320363%" x2="47.7297221%" y2="46.3919349%" id="linearGradient-15">
            <stop stop-color="#3854E0" offset="0%"></stop>
            <stop stop-color="#5C7DF7" offset="100%"></stop>
        </linearGradient>
        <path d="M5.53311377,14.5913174 L5.53311377,14.5913174 C5.02329341,14.5724551 4.51401198,14.5471257 4.00526946,14.5088623 C2.6805988,14.4102395 1.35592814,14.2517964 0.0199401198,14.0281437 C0.783053892,10.8285629 1.1091018,5.44095808 0.139041916,0.378323353 L2.83365269,0.508742515 L4.13191617,0.572335329 C4.48221557,1.9411976 4.78778443,3.41191617 5.02976048,5.00982036 C5.55197605,8.41580838 5.67916168,11.6245509 5.53311377,14.5913174" id="path-16"></path>
        <linearGradient x1="101.933245%" y1="97.910742%" x2="97.8376236%" y2="6.83084973%" id="linearGradient-18">
            <stop stop-color="#3552D0" offset="0%"></stop>
            <stop stop-color="#4768DB" offset="100%"></stop>
        </linearGradient>
        <path d="M23.0739521,37.1446707 L21.5143114,33.8782635 L21.488982,33.8216766 L14.1359281,18.4591617 L6.37491018,16.5556886 L3.0454491,15.7408383 L2.50383234,15.6066467 C3.93035928,12.4808982 5.56005988,7.8908982 6.28598802,2.19287425 C6.03107784,2.10341317 5.77670659,2.02095808 5.53473054,1.93796407 C4.59215569,1.62592814 3.72017964,1.37155689 2.95005988,1.16137725 C1.76766467,0.841257485 0.817005988,0.631616766 0.197784431,0.507125749 C0.817005988,0.631616766 1.76766467,0.841257485 2.95005988,1.16137725 C3.72017964,1.37155689 4.59215569,1.62592814 5.53473054,1.93796407 C5.77670659,2.02095808 6.03107784,2.10341317 6.28598802,2.19287425 C6.80820359,2.37071856 7.34928144,2.57443114 7.90976048,2.79107784 C12.0282036,4.38251497 16.9307784,6.91652695 20.9096407,10.8258683 C26.8367066,16.657006 29.1481437,25.8628743 30.0012575,30.9950299 C30.0136527,31.0650898 30.0265868,31.1346108 30.0330539,31.2046707 C30.3898204,33.3819162 30.4787425,34.7761078 30.4787425,34.7761078 L23.0739521,37.1446707" id="path-19"></path>
        <linearGradient x1="41.3900854%" y1="57.3466896%" x2="62.2896137%" y2="28.108939%" id="linearGradient-21">
            <stop stop-color="#3854E0" offset="0%"></stop>
            <stop stop-color="#5C7DF7" offset="100%"></stop>
        </linearGradient>
        <path d="M4.1205988,15.6066467 L4.1205988,15.6066467 L1.11449102,14.871018 L0.307185629,5.68131737 C0.307185629,5.68131737 0.181077844,4.74844311 1.8145509,0.507125749 C2.43377246,0.631616766 3.38443114,0.841257485 4.56682635,1.16137725 C5.33694611,1.37155689 6.20892216,1.62592814 7.15149701,1.93796407 C7.39347305,2.02095808 7.64784431,2.10341317 7.90275449,2.19287425 C7.17682635,7.8908982 5.54712575,12.4808982 4.1205988,15.6066467" id="path-22"></path>
        <linearGradient x1="80.1071083%" y1="139.146263%" x2="110.980372%" y2="68.2036548%" id="linearGradient-24">
            <stop stop-color="#3552D0" offset="0%"></stop>
            <stop stop-color="#4768DB" offset="100%"></stop>
        </linearGradient>
        <path d="M14.6344311,39.5455689 L14.6344311,39.5455689 L14.545509,39.4760479 C14.468982,39.4119162 14.3924551,39.3547904 14.31,39.2911976 C10.6302395,36.3691617 5.93137725,31.804491 3.09179641,25.9022156 C-0.511437126,18.4025749 0.437065868,8.96766467 1.37317365,3.84898204 C1.79353293,1.55047904 2.20041916,0.124491018 2.20041916,0.124491018 L8.52790419,0.357844311 L9.89946108,0.408502994 L9.97437126,0.411197605 L10.0023952,0.687125749 L12.0497605,21.0131138 L23.4840719,28.6016766 L24.1965269,29.0732335 L25.4193413,29.8880838 L28.2012575,31.7338922 L25.4193413,29.8880838 L24.1965269,29.0732335 L23.4840719,28.6016766 C21.0519162,29.9646108 17.2891617,33.0138323 14.6344311,39.5455689" id="path-25"></path>
        <linearGradient x1="29.3861392%" y1="68.9957347%" x2="44.5079305%" y2="53.9224586%" id="linearGradient-27">
            <stop stop-color="#3854E0" offset="0%"></stop>
            <stop stop-color="#5C7DF7" offset="100%"></stop>
        </linearGradient>
        <path d="M3.43508982,13.3749701 C2.54586826,12.7967066 1.38449102,11.9953293 0.0835329341,10.9826946 C2.73826347,4.45095808 6.50101796,1.40173653 8.93317365,0.0388023952 L9.64562874,0.510359281 L10.8684431,1.32520958 L13.6503593,3.17101796 L13.4213174,3.47874251 C11.3383832,4.23646707 9.67634731,5.19359281 8.45137725,6.08712575 C6.40724551,7.58101796 4.61532934,10.8167066 3.43508982,13.3749701" id="path-28"></path>
        <linearGradient x1="-87.3202511%" y1="-7.5765091%" x2="-24.7513307%" y2="-50.6302272%" id="linearGradient-30">
            <stop stop-color="#3552D0" offset="0%"></stop>
            <stop stop-color="#4768DB" offset="100%"></stop>
        </linearGradient>
        <path d="M13.3949102,39.5455689 C10.7407186,33.0138323 6.97796407,29.9646108 4.54634731,28.6016766 L3.83281437,29.0732335 L2.61053892,29.8880838 L0.264071856,31.4450299 L2.61053892,29.8880838 L3.83281437,29.0732335 L4.54634731,28.6016766 L15.9801198,21.0131138 L18.055509,0.411197605 L22.6169461,0.243053892 L25.8294611,0.124491018 C25.8294611,0.124491018 26.1231737,1.15383234 26.4691617,2.87299401 C26.5305988,3.17748503 26.5936527,3.50353293 26.6567066,3.84898204 C27.2516766,7.10461078 27.8520359,12.1058084 27.2834731,17.2449701 C26.9579641,20.1858683 26.2492814,23.1725749 24.9375449,25.9022156 C23.6775449,28.5219162 22.0510778,30.8775449 20.3098204,32.9437725 C18.1282635,35.5327545 15.7661677,37.6658084 13.7198802,39.2911976 C13.6374251,39.3547904 13.5608982,39.4119162 13.4843713,39.4760479 L13.3949102,39.5455689" id="path-31"></path>
        <linearGradient x1="69.387246%" y1="66.6142615%" x2="54.6895467%" y2="53.694291%" id="linearGradient-33">
            <stop stop-color="#3854E0" offset="0%"></stop>
            <stop stop-color="#5C7DF7" offset="100%"></stop>
        </linearGradient>
        <path d="M10.3726347,13.1588623 C9.07491018,8.58287425 6.53173653,4.62934132 2.04413174,3.34347305 C1.44053892,3.17101796 0.846646707,3.01742515 0.264071856,2.88215569 L2.61053892,1.32520958 L3.83281437,0.510359281 L4.54634731,0.0388023952 C6.97796407,1.40173653 10.7407186,4.45095808 13.3949102,10.9826946 C12.2491617,11.8746108 11.2117365,12.6032335 10.3726347,13.1588623" id="path-34"></path>
        <linearGradient x1="187.962241%" y1="-16.7889646%" x2="124.123948%" y2="-55.5451411%" id="linearGradient-36">
            <stop stop-color="#3552D0" offset="0%"></stop>
            <stop stop-color="#4768DB" offset="100%"></stop>
        </linearGradient>
        <path d="M22.652515,7.26952096 C22.658982,7.94479042 22.6142515,8.46700599 22.4935329,8.70844311 C21.9077246,9.87359281 2.17185629,9.60628743 1.00670659,9.55508982 C-0.0118562874,9.5108982 0.140658683,6.25742515 4.92844311,4.38628743 C5.62257485,4.11197605 6.41802395,3.87053892 7.32179641,3.66682635 C12.0971856,2.60299401 11.9376647,0.00592814371 11.9376647,0.00592814371 L21.8570659,0.031257485 C21.8570659,0.031257485 22.6207186,4.72958084 22.652515,7.26952096" id="path-37"></path>
        <linearGradient x1="60.8261943%" y1="62.0423351%" x2="43.9416688%" y2="45.2088459%" id="linearGradient-39">
            <stop stop-color="#3854E0" offset="0%"></stop>
            <stop stop-color="#5C7DF7" offset="100%"></stop>
        </linearGradient>
        <path d="M12.5234731,8.67718563 C11.0274251,9.33898204 5.90227545,9.54269461 2.8654491,9.19886228 C1.85928144,9.09053892 1.08323353,8.91215569 0.745868263,8.67718563 C-0.610598802,7.72167665 0.821856287,0.031257485 0.821856287,0.031257485 L8.14311377,0.031257485 C8.14311377,0.031257485 7.98413174,2.87083832 9.90053892,3.74928144 C10.5240719,4.0354491 11.2311377,4.56413174 11.8293413,5.18173653 L11.9376647,5.29598802 C12.3639521,5.7357485 12.5870659,6.08550898 12.5870659,6.08550898 C13.3259281,7.14233533 13.5544311,8.22502994 12.5234731,8.67718563" id="path-40"></path>
        <linearGradient x1="0.00101495506%" y1="49.9976268%" x2="100.002246%" y2="49.9976268%" id="linearGradient-42">
            <stop stop-color="#3854E0" offset="0%"></stop>
            <stop stop-color="#5C7DF7" offset="100%"></stop>
        </linearGradient>
        <path d="M10.8269461,15.2337126 C10.8269461,15.2337126 8.54461078,21.6 2.81479042,18.2576048 C-2.91502994,14.9152096 3.70401198,0.185928144 3.70401198,0.185928144 L10.8269461,15.2337126" id="path-43"></path>
        <linearGradient x1="60.8231755%" y1="61.5199305%" x2="42.2014784%" y2="46.892638%" id="linearGradient-45">
            <stop stop-color="#3854E0" offset="0%"></stop>
            <stop stop-color="#5C7DF7" offset="100%"></stop>
        </linearGradient>
        <path d="M16.0846707,55.7498802 C11.3523952,55.7498802 6.93700599,54.8482635 4.33508982,52.1423353 L3.5708982,38.5690419 C4.3954491,38.4704192 6.19706587,38.2807186 7.75994012,38.2807186 C8.8151497,38.2807186 9.76203593,38.367485 10.2238922,38.6267066 C11.4526347,39.322994 16.7507784,47.1211976 23.6549102,47.1211976 C24.5128743,47.1211976 25.3961677,47.000479 26.2994012,46.731018 C34.4673054,44.2923952 34.7982036,35.3220359 34.7982036,35.3220359 L24.9671856,38.4079042 L26.1350299,31.8190419 C27.3508383,31.6320359 28.5461677,31.3814371 29.6951497,31.0537725 L27.9781437,21.4189222 L29.6951497,11.7301796 C29.6951497,11.7301796 28.7493413,15.369521 26.9886826,19.3009581 C25.6877246,19.6275449 22.2838922,20.3448503 17.5230539,20.3453892 C14.441497,20.3453892 10.792994,20.0446707 6.77532934,19.1430539 L6.77532934,30.6037725 L3.10634731,31.291976 L0.0630538922,16.642994 L2.05760479,16.7491617 L3.18287425,16.8084431 C2.93982036,16.2571257 2.64556886,15.694491 2.25754491,15.2132335 C1.78113772,14.6220359 1.16299401,14.1537126 0.324431138,13.9817964 C0.341137725,13.9397605 0.358383234,13.8966467 0.375628743,13.852994 C0.612215569,13.2655689 0.917245509,12.5434132 1.2794012,11.7582036 C2.45964072,9.19994012 4.25155689,5.9642515 6.29568862,4.47035928 C7.52065868,3.57682635 9.18269461,2.6197006 11.2656287,1.86197605 C13.5635928,1.02556886 16.3746108,0.431676647 19.6782036,0.431676647 C21.8069461,0.431676647 24.1383234,0.677964072 26.6712575,1.26538922 C27.2538323,1.40065868 27.8477246,1.5542515 28.4513174,1.72670659 C32.9389222,3.01257485 35.4820958,6.96610778 36.7798204,11.5420958 C36.8946108,11.9462874 36.9997006,12.3564072 37.0956287,12.7692216 C37.1786228,13.1276048 37.2551497,13.4886826 37.3246707,13.8513772 C38.2947305,18.914012 37.9686826,24.3016168 37.2055689,27.5011976 C37.0568263,28.1268862 36.8908383,28.6690419 36.7146108,29.1088024 C36.5669461,29.4752695 36.4311377,29.8212575 36.3055689,30.1478443 C34.6720958,34.3891617 34.7982036,35.3220359 34.7982036,35.3220359 L36.2753892,52.1423353 C36.2753892,52.1423353 25.5481437,55.7498802 16.0846707,55.7498802 M20.4165269,39.8360479 L11.9516766,31.8465269 C12.3526347,31.8923353 12.7702994,31.9365269 13.2035928,31.9785629 L24.03,38.7021557 L20.4165269,39.8360479" id="path-46"></path>
        <linearGradient x1="53.6060896%" y1="92.1370536%" x2="48.354595%" y2="3.51898759%" id="linearGradient-48">
            <stop stop-color="#3854E0" offset="0%"></stop>
            <stop stop-color="#5C7DF7" offset="100%"></stop>
        </linearGradient>
        <path d="M11.0958683,6.9057485 L0.269461078,0.182155689 C2.12173653,0.361616766 4.25047904,0.495269461 6.48,0.495269461 C8.67718563,0.495269461 10.9719162,0.365389222 13.2008982,0.0226347305 L12.0330539,6.61149701 L11.0958683,6.9057485" id="path-49"></path>
        <linearGradient x1="67.3181913%" y1="116.433208%" x2="34.4963534%" y2="-85.3484558%" id="linearGradient-51">
            <stop stop-color="#3552D0" offset="0%"></stop>
            <stop stop-color="#4768DB" offset="100%"></stop>
        </linearGradient>
        <path d="M1.03203593,10.1015569 L0.626227545,7.82568862 C0.626227545,7.82568862 0.425209581,7.88766467 0.0425748503,7.98359281 C1.80323353,4.05215569 2.74904192,0.412814371 2.74904192,0.412814371 L1.03203593,10.1015569" id="path-52"></path>
        <linearGradient x1="31.452339%" y1="409.444877%" x2="19.2152644%" y2="-96.5229725%" id="linearGradient-54">
            <stop stop-color="#3552D0" offset="0%"></stop>
            <stop stop-color="#4768DB" offset="100%"></stop>
        </linearGradient>
        <path d="M23.9319162,20.277485 C23.9319162,20.277485 27.0253293,15.667006 25.7108982,10.4146707 C24.3964671,5.16233533 21.4517964,6.35550898 21.4517964,6.35550898 C21.4517964,6.35550898 23.600479,2.93389222 19.9401198,1.26269461 C16.2792216,-0.408502994 13.7069461,0.944191617 16.2948503,1.89916168 C16.2948503,1.89916168 10.9471257,1.89916168 7.84347305,5.24155689 C4.73982036,8.5839521 2.51191617,5.16233533 1.63616766,5.87856287 C0.760958084,6.59479042 2.39173653,8.90838323 3.7848503,9.1411976 C3.7848503,9.1411976 0.44245509,8.42497006 0.203712575,9.1411976 C-0.0350299401,9.85742515 2.09802395,14.3886826 6.95263473,14.3094611 C6.95263473,14.3094611 6.33179641,17.2487425 11.2656287,20.277485 C16.1994611,23.3067665 23.9319162,20.277485 23.9319162,20.277485" id="path-55"></path>
        <linearGradient x1="56.3249063%" y1="69.1695612%" x2="44.4213032%" y2="30.2102492%" id="linearGradient-57">
            <stop stop-color="#1F3964" offset="0%"></stop>
            <stop stop-color="#294979" offset="100%"></stop>
        </linearGradient>
        <path d="M19.5968263,33.6265868 C12.1354491,36.5038922 5.36173653,28.4507784 2.26778443,23.9302994 C1.13389222,22.2817365 0.49742515,21.1036527 0.49742515,21.1036527 L5.05616766,16.7556287 L7.60904192,18.831018 L15.4713772,25.2420359 C15.4713772,25.2420359 16.8337725,18.9835329 18.0053892,11.6622754 C19.17,4.34101796 21.0869461,-0.281317365 25.1105389,0.310958084 C33.0682635,1.47610778 29.7835329,29.6983832 19.5968263,33.6265868" id="path-58"></path>
        <linearGradient x1="55.5882369%" y1="119.519792%" x2="44.9041712%" y2="-24.7772506%" id="linearGradient-60">
            <stop stop-color="#3854E0" offset="0%"></stop>
            <stop stop-color="#5C7DF7" offset="100%"></stop>
        </linearGradient>
    </defs>
    <g id="Page-1" stroke="none" stroke-width="1" fill="none" fill-rule="evenodd">
        <g id="Benefits-design" transform="translate(-892.000000, -1249.000000)">
            <g id="Higher-Efficiency" transform="translate(892.000000, 1249.000000)">
                <path d="M179.557426,102.02929 C179.493834,103.022524 179.41084,104.015757 179.308983,104.996057 C179.264253,105.492943 179.207127,105.982823 179.150001,106.47971 L179.150001,106.485638 C178.194492,114.660548 176.061977,122.370368 172.624193,129.105817 L172.624193,129.112284 C172.337486,129.679231 172.038923,130.232704 171.726888,130.780248 C169.27587,135.185937 166.232037,139.127075 162.552277,142.450069 C162.221379,142.74971 161.89048,143.041805 161.553115,143.322584 C158.324971,146.059769 154.632816,148.33941 150.456169,150.058033 C149.966289,150.261745 149.475331,150.458991 148.973055,150.643841 L148.966588,150.643841 C139.359223,154.208811 127.301379,154.928272 112.518205,151.732464 L112.48048,151.725997 C111.971199,151.618213 111.461379,151.515817 110.958564,151.433362 C97.2516181,148.988811 87.0589833,154.450787 76.2358097,160.002225 C75.8413187,160.19947 75.4527558,160.403183 75.0582648,160.600967 C62.0131151,167.253961 47.835151,173.626716 25.3550911,166.235398 C-9.33586697,154.819949 -2.33904062,115.863961 10.6295821,88.0868353 C10.8332947,87.6411467 11.0434743,87.2019251 11.2531151,86.7627036 C14.0291031,80.9757575 17.0465282,75.710488 19.9691031,71.3430629 C22.3053306,67.8416856 24.1710791,64.1743203 25.7118576,60.4374341 C25.9150312,59.947015 26.1128157,59.4565958 26.3035941,58.9602485 C34.0263486,39.1413862 33.3580851,17.7310868 47.0968276,9.36539819 C47.4465881,9.14282334 47.8092827,8.9326437 48.1789833,8.74132633 C50.1207199,7.70390118 52.3297618,6.91438022 54.8637737,6.39863172 C61.6180851,5.02330238 67.3608396,6.25258382 72.3647318,9.07923052 C72.8298217,9.34653591 73.2884444,9.62030837 73.7335941,9.9129431 C84.257666,16.6613263 91.471139,30.4830629 98.2065881,41.4458174 C98.4485642,41.8537814 98.6970073,42.2482724 98.9384444,42.6433024 C104.299103,51.2315659 109.411858,57.7568353 115.726947,57.1397694 C117.006349,57.0120449 118.299223,56.9231227 119.598025,56.865997 C120.050181,56.8465958 120.495331,56.8336617 120.947486,56.8212665 C132.184013,56.5410269 144.019283,58.763003 154.098205,63.4489311 C154.518025,63.6397096 154.931379,63.8369551 155.339343,64.0406676 C164.538744,68.5735419 172.140241,75.2200688 176.272157,83.9613862 C176.457007,84.343482 176.628385,84.731506 176.80084,85.1200688 C178.939822,90.1050988 179.964852,95.745997 179.557426,102.02929" id="Fill-4" fill="#E4EBF7"></path>
                <path d="M147.527666,43.9927635 C146.171738,44.6550988 144.828205,45.1897096 143.491139,45.6100688 C143.020121,45.7561168 142.55557,45.8897694 142.09048,46.0045599 C118.802037,51.9445599 99.5689833,22.8627036 97.9586839,9.10455987 C96.3284444,-4.82550001 114.313355,-0.636458099 131.573414,7.50665567 C132.114492,7.76102693 132.649103,8.01593711 133.183714,8.27677543 C133.737726,8.55054789 134.297666,8.82432034 134.852217,9.10455987 C153.422935,18.4440808 173.1906,31.4762964 147.527666,43.9927635" id="Fill-5" fill="#E4EBF7"></path>
                <path d="M112.518205,151.732464 L112.48048,151.725997 C111.971199,151.618213 111.461379,151.515817 110.958564,151.433362 C107.405989,142.863961 102.243115,134.230967 95.2015582,131.105219 C93.3692229,130.290907 91.4689833,129.884021 89.5094624,129.884021 C86.3352109,129.884021 83.004672,130.951626 79.5528755,133.085219 C67.3624564,140.61935 57.2339534,145.702464 49.3387438,145.703003 C46.6328157,145.703003 44.1904205,145.106416 42.0164085,143.805997 C33.8797618,138.942225 30.6839534,124.165518 32.23066,98.6297694 C32.4133546,95.6155778 32.4861091,92.7210269 32.4489235,89.9434221 C32.8563486,90.1546796 33.282636,90.3713263 33.7272468,90.5917455 C33.7450312,93.1968952 33.6685043,95.9017455 33.497666,98.7062964 C31.9827558,123.719829 34.9813187,138.11444 42.6717378,142.710907 C44.6043127,143.868512 46.8289833,144.381566 49.2746121,144.381566 C57.4969474,144.381566 68.2311989,138.587614 78.8846121,132.002524 C82.547127,129.736895 86.1002408,128.601386 89.5035342,128.601386 C91.6365881,128.601386 93.7103606,129.047075 95.7173067,129.940069 C103.407726,133.358991 108.87078,142.698512 112.518205,151.732464 M32.8752109,78.5586916 L32.3874863,78.403482 L31.5262887,78.1286317 C30.4743127,71.2363563 28.533654,65.3303084 25.7118576,60.4374341 C25.9150312,59.947015 26.1128157,59.4565958 26.3035941,58.9602485 C29.5710791,64.2961168 31.7644923,70.8418653 32.8752109,78.5586916" id="Fill-6" fill="#F5F7FC"></path>
                <path d="M75.0582648,160.600967 C74.2304803,157.79965 72.8486839,155.09426 70.5825163,153.298572 C68.7103007,151.815458 66.3880851,151.073362 63.6390432,151.073362 C61.5733546,151.073362 59.2667678,151.492644 56.7289833,152.331207 C50.7388636,154.31444 45.3976061,155.304979 40.7326959,155.304979 C35.1985043,155.305518 30.6155103,153.911865 27.0230552,151.127254 C19.6188037,145.391506 16.4612588,133.683422 17.6388037,116.341446 C18.4983845,103.671925 15.1177258,94.5361168 10.6295821,88.0868353 C10.8332947,87.6411467 11.0434743,87.2019251 11.2531151,86.7627036 C16.0920971,93.4345599 19.8225163,103.010129 18.9122767,116.430368 C17.7600612,133.320189 20.758624,144.659111 27.8061091,150.121626 C31.1662887,152.72947 35.4906001,154.03474 40.7337737,154.03474 C45.2569474,154.03474 50.4634743,153.064141 56.3280252,151.121326 C58.9994624,150.238033 61.4434743,149.796656 63.6482049,149.796656 C66.686648,149.796656 69.2713187,150.634141 71.3779654,152.305338 C73.8295223,154.253542 75.3320372,157.080189 76.2358097,160.002225 C75.8413187,160.19947 75.4527558,160.403183 75.0582648,160.600967" id="Fill-7" fill="#F5F7FC"></path>
                <path d="M148.973055,150.643841 L148.966588,150.643841 C146.534432,149.033003 144.051618,146.906416 141.797846,144.098632 C134.56551,135.109949 132.019103,122.10953 134.221678,105.45468 C134.858684,100.634021 135.80072,96.2455778 136.969103,92.2527036 C137.497247,92.0225838 138.010301,91.7919251 138.50557,91.5634221 C137.208923,95.7707874 136.167187,100.441087 135.482217,105.620129 C133.330301,121.905817 135.781319,134.575338 142.771678,143.28432 C145.16557,146.269949 147.858564,148.453662 150.456169,150.058033 C149.966289,150.261745 149.475331,150.458991 148.973055,150.643841 M142.768444,78.1178533 C146.256349,71.7601886 150.287486,66.9842605 154.098205,63.4489311 C154.518025,63.6397096 154.931379,63.8369551 155.339343,64.0406676 C151.746888,67.3076138 147.924852,71.7079132 144.551738,77.5487515 L142.768444,78.1178533" id="Fill-8" fill="#F5F7FC"></path>
                <path d="M161.553115,143.322584 C160.203115,142.392404 158.828325,141.18953 157.554852,139.623422 C152.436169,133.340129 150.806468,123.700967 152.703474,110.961386 C154.638744,98.0186317 162.755989,88.7427036 176.272157,83.9613862 C176.457007,84.343482 176.628385,84.731506 176.80084,85.1200688 C163.526648,89.7424042 155.848624,98.4896497 153.964013,111.152704 C152.124133,123.516117 153.658444,132.830308 158.541618,138.820967 C159.815091,140.381147 161.202816,141.565159 162.552277,142.450069 C162.221379,142.74971 161.89048,143.041805 161.553115,143.322584" id="Fill-9" fill="#F5F7FC"></path>
                <path d="M171.726888,130.780248 C170.096648,125.121027 168.988624,117.518991 172.044852,111.623722 C173.579163,108.66935 176.011319,106.45438 179.308983,104.996057 C179.264253,105.492943 179.207127,105.982823 179.150001,106.47971 L179.150001,106.485638 C176.463474,107.816237 174.464073,109.733183 173.178205,112.20953 C170.561199,117.251686 171.274732,123.83462 172.624193,129.105817 L172.624193,129.112284 C172.337486,129.679231 172.038923,130.232704 171.726888,130.780248" id="Fill-10" fill="#F5F7FC"></path>
                <path d="M105.361319,82.5068353 C105.265391,82.0940209 105.160301,81.6839012 105.04551,81.2797096 C105.884612,80.7240808 106.922037,79.9954581 108.067786,79.1035419 L108.157247,79.0340209 C108.233774,78.9698892 108.310301,78.9127635 108.392756,78.8491706 C110.439043,77.2237814 112.801139,75.0907275 114.982696,72.5017455 C112.331199,76.9295299 109.101438,80.2810868 105.361319,82.5068353 M72.4143127,66.4151587 L70.2888037,65.0047994 C67.3489833,59.0087515 64.6678456,52.19947 62.0664684,45.2522245 L61.5614983,40.2450988 C64.9771869,49.4956976 68.466169,58.7667754 72.4143127,66.4151587 M61.4585642,39.966476 L60.0870073,39.9158174 C59.9565881,39.5617455 59.826169,39.2082126 59.6957498,38.8546796 C55.5897019,27.726476 51.6103007,16.9415659 47.0968276,9.36539819 C47.4465881,9.14282334 47.8092827,8.9326437 48.1789833,8.74132633 C52.7883845,16.4516856 56.7737139,27.2678533 60.8862288,38.4154581 C61.0764684,38.9322844 61.2677857,39.4496497 61.4585642,39.966476" id="Fill-11" fill="#F5F7FC"></path>
                <path d="M95.3734743,42.9677335 C92.7122767,42.9677335 89.726648,42.4077934 86.7722767,40.7204281 C78.9923965,36.276476 74.1604205,25.6510868 72.3647318,9.07923052 C72.8298217,9.34653591 73.2884444,9.62030837 73.7335941,9.9129431 C75.5546121,25.4915659 80.1386839,35.4616257 87.4028157,39.6129431 C90.1011989,41.1542605 92.8642528,41.6683922 95.3400612,41.6683922 C96.3516181,41.6683922 97.314672,41.5827036 98.2065881,41.4458174 C98.4485642,41.8537814 98.6970073,42.2482724 98.9384444,42.6433024 C97.8503606,42.8405479 96.6469474,42.9677335 95.3734743,42.9677335" id="Fill-12" fill="#F5F7FC"></path>
                <path d="M142.09048,46.0045599 C138.729223,42.4902485 135.087187,35.4233623 134.215211,21.1942006 C133.884313,15.7699491 132.909941,11.256476 131.573414,7.50665567 C132.114492,7.76102693 132.649103,8.01593711 133.183714,8.27677543 C134.355331,11.9058772 135.183115,16.1520449 135.488684,21.1182126 C136.380061,35.7165359 140.187007,42.4778533 143.491139,45.6100688 C143.020121,45.7561168 142.55557,45.8897694 142.09048,46.0045599" id="Fill-13" fill="#F5F7FC"></path>
                <path d="M140.49581,210.571446 C140.49581,213.450907 117.298983,215.785518 88.6849115,215.785518 C60.0697618,215.785518 36.8734743,213.450907 36.8734743,210.571446 C36.8734743,207.691446 60.0697618,205.356835 88.6849115,205.356835 C117.298983,205.356835 140.49581,207.691446 140.49581,210.571446" id="Fill-14" fill="#E4EBF7"></path>
                <g id="Group-17" transform="translate(26.229762, 77.282524)">
                    <mask id="mask-2" fill="white">
                        <use xlink:href="#path-1"></use>
                    </mask>
                    <g id="Clip-16"></g>
                    <path d="M35.425509,20.5523353 C24.3167066,20.5517964 13.984491,16.5282036 7.49748503,13.3092216 C7.05287425,13.0888024 6.62658683,12.8721557 6.21916168,12.6608982 C4.99257485,12.0244311 3.93790419,11.4359281 3.08263473,10.9379641 C1.4594012,9.99592814 0.55508982,9.37832335 0.55508982,9.37832335 C0.0522754491,2.62994012 3.44586826,0.25491018 3.44586826,0.25491018 L5.29652695,0.846107784 L6.15772455,1.12095808 L25.1234731,7.15634731 L37.6782036,6.53874251 L38.4483234,6.50047904 L39.7471257,6.43688623 L42.4115569,6.30808383 L39.7471257,6.43688623 L38.4483234,6.50047904 C38.0985629,7.86934132 37.792994,9.34005988 37.551018,10.9379641 C37.0288024,14.3439521 36.9016168,17.5526946 37.0482036,20.5194611 C36.5960479,20.5388623 36.1438922,20.5512575 35.6917365,20.5512575 C35.6022754,20.5517964 35.5149701,20.5523353 35.425509,20.5523353" id="Fill-15" fill="url(#linearGradient-3)" mask="url(#mask-2)"></path>
                </g>
                <path d="M26.7848516,86.6608473 C26.7848516,86.6608473 27.689163,87.2784521 29.3123965,88.220488 C29.5037139,84.495997 31.1016181,80.8162365 32.3874863,78.403482 L29.67563,77.5374341 C29.67563,77.5374341 26.2820372,79.9124641 26.7848516,86.6608473" id="Fill-18" fill="#FAFCFF"></path>
                <path d="M26.7848516,86.6608473 L26.6053905,86.9238413 C26.6107797,86.9276138 27.5215582,87.548991 29.1528755,88.4958772 L29.6039534,88.7577934 L29.6303606,88.2371946 C29.8152109,84.5919251 31.3931749,80.9434221 32.6688037,78.5533024 L32.8482648,78.216476 L29.6222767,77.1860569 L29.4929354,77.2765958 C29.4649115,77.2965359 28.6947917,77.8419251 27.9316779,79.1197096 C27.1674863,80.3969551 26.415151,82.4065958 26.4156896,85.3259371 C26.4156896,85.7586916 26.4323965,86.2113862 26.4674264,86.6845599 L26.4787438,86.8370748 L26.6053905,86.9238413 L26.7848516,86.6608473 L27.1022767,86.6371347 C27.0683246,86.1790509 27.0526959,85.7425239 27.0526959,85.3259371 C27.0532348,82.5154581 27.7710791,80.6308473 28.478145,79.4462964 C28.8316779,78.8540209 29.1835941,78.4374341 29.4438935,78.1712066 C29.5737737,78.0375539 29.6810193,77.9421647 29.7537737,77.8812665 L29.8356899,77.814979 L29.8550911,77.8004281 L29.8583246,77.7977335 L29.8206001,77.7454581 L29.8577857,77.7982724 L29.8583246,77.7977335 L29.8206001,77.7454581 L29.8577857,77.7982724 L29.67563,77.5374341 L29.578624,77.8408473 L32.2910193,78.7068952 L32.3874863,78.403482 L32.1067079,78.2536617 C30.8100612,80.6895898 29.1916779,84.4006078 28.9944324,88.2043203 L29.3123965,88.220488 L29.4724564,87.9456377 C28.6646121,87.4762365 28.0362288,87.0887515 27.6104803,86.8187515 C27.3976061,86.683482 27.2353905,86.5778533 27.1270672,86.5061766 C27.0182049,86.4345 26.9648516,86.3978533 26.9643127,86.3978533 L26.7848516,86.6608473 L27.1022767,86.6371347 L26.7848516,86.6608473" id="Fill-19" fill="#0C6BF4"></path>
                <g id="Group-22" transform="translate(62.876468, 83.210668)">
                    <mask id="mask-5" fill="white">
                        <use xlink:href="#path-4"></use>
                    </mask>
                    <g id="Clip-21"></g>
                    <path d="M0.401497006,14.5913174 C0.25491018,11.6245509 0.382095808,8.41580838 0.904311377,5.00982036 C1.14628743,3.41191617 1.45185629,1.9411976 1.80161677,0.572335329 L3.10041916,0.508742515 L5.7648503,0.37994012 C5.74760479,0.423592814 5.73035928,0.466706587 5.71365269,0.508742515 C6.55221557,0.680658683 7.17035928,1.14898204 7.64676647,1.74017964 L7.44682635,3.27610778 L5.45227545,3.16994012 L6.68640719,9.11047904 L6.04832335,14.005509 C4.66652695,14.241018 3.29820359,14.407006 1.92934132,14.5088623 C1.42005988,14.5471257 0.910239521,14.5724551 0.401497006,14.5913174" id="Fill-20" fill="url(#linearGradient-6)" mask="url(#mask-5)"></path>
                </g>
                <polyline id="Fill-23" fill="#BAC1CC" points="43.1632348 95.393003 26.1952708 98.1091706 22.5672468 75.4431826 39.534672 72.727015 43.1632348 95.393003"></polyline>
                <polygon id="Fill-24" fill="#EDF1F9" points="24.2734743 96.8955179 41.4570073 96.8955179 41.4570073 73.9412066 24.2734743 73.9412066"></polygon>
                <path d="M29.94563,78.7871946 C29.94563,79.7319251 29.1792827,80.4982724 28.2345522,80.4982724 C27.2892827,80.4982724 26.5234743,79.7319251 26.5234743,78.7871946 C26.5234743,77.8424641 27.2892827,77.0761168 28.2345522,77.0761168 C29.1792827,77.0761168 29.94563,77.8424641 29.94563,78.7871946" id="Fill-25" fill="#F4D242"></path>
                <path d="M36.6568276,84.211985 L27.0273666,84.211985 C26.7487438,84.211985 26.5234743,83.9861766 26.5234743,83.7075539 C26.5234743,83.42947 26.7487438,83.2036617 27.0273666,83.2036617 L36.6568276,83.2036617 C36.9349115,83.2036617 37.1607199,83.42947 37.1607199,83.7075539 C37.1607199,83.9861766 36.9349115,84.211985 36.6568276,84.211985" id="Fill-26" fill="#BAC1CC"></path>
                <path d="M38.9057498,86.8645599 L27.0273666,86.8645599 C26.7487438,86.8645599 26.5234743,86.6387515 26.5234743,86.3606676 C26.5234743,86.0820449 26.7487438,85.8567754 27.0273666,85.8567754 L38.9057498,85.8567754 C39.1843726,85.8567754 39.409642,86.0820449 39.409642,86.3606676 C39.409642,86.6387515 39.1843726,86.8645599 38.9057498,86.8645599" id="Fill-27" fill="#BAC1CC"></path>
                <path d="M38.9057498,89.3247395 L27.0273666,89.3247395 C26.7487438,89.3247395 26.5234743,89.09947 26.5234743,88.8208473 C26.5234743,88.5427635 26.7487438,88.3169551 27.0273666,88.3169551 L38.9057498,88.3169551 C39.1843726,88.3169551 39.409642,88.5427635 39.409642,88.8208473 C39.409642,89.09947 39.1843726,89.3247395 38.9057498,89.3247395" id="Fill-28" fill="#BAC1CC"></path>
                <path d="M38.9057498,91.6394102 L27.0273666,91.6394102 C26.7487438,91.6394102 26.5234743,91.4136018 26.5234743,91.1355179 C26.5234743,90.8568952 26.7487438,90.6316257 27.0273666,90.6316257 L38.9057498,90.6316257 C39.1843726,90.6316257 39.409642,90.8568952 39.409642,91.1355179 C39.409642,91.4136018 39.1843726,91.6394102 38.9057498,91.6394102" id="Fill-29" fill="#BAC1CC"></path>
                <path d="M23.7113785,82.5925239 C23.7113785,82.5925239 27.3986839,82.1958772 27.5048516,83.2036617 C27.6110193,84.211985 25.2764085,84.4771347 25.2764085,84.4771347 C25.2764085,84.4771347 28.672157,84.6614461 28.7783246,85.4180928 C28.8839534,86.1747395 25.2764085,86.8645599 25.2764085,86.8645599 C25.2764085,86.8645599 28.1682648,86.8435419 28.2345522,87.5802485 C28.3008396,88.3169551 25.3297618,88.8208473 25.3297618,88.8208473 C25.3297618,88.8208473 27.6110193,88.933482 27.6638336,89.570488 C27.7171869,90.2069551 23.9501211,91.3742605 23.2074863,90.6316257 C22.4648516,89.8884521 23.472636,88.5077335 22.6238336,87.6864162 C21.7750312,86.8645599 21.7750312,85.5382724 22.2525163,84.9546197 C22.7300013,84.3709671 21.1391031,82.6140808 23.7113785,82.5925239" id="Fill-30" fill="#FEB19E"></path>
                <path d="M36.3194624,144.15468 L43.7463486,146.688692 L44.4819773,144.532464 C44.692157,143.917554 44.3617977,143.244979 43.7463486,143.035338 L38.5522169,141.263362 C37.9367678,141.053183 37.2647318,141.383003 37.0545522,141.998452 L36.3194624,144.15468 Z M44.567666,148.360967 L34.6471869,144.975458 L35.8080252,141.573243 C36.2531749,140.270129 37.6743127,139.571686 38.9774264,140.016296 L44.1715582,141.788811 C45.4752109,142.233961 46.1731151,143.65456 45.7285043,144.957674 L44.567666,148.360967 L44.567666,148.360967 Z" id="Fill-31" fill="#593131"></path>
                <path d="M42.9244923,168.588332 L21.9480252,161.431446 C19.9308396,160.742704 18.8535342,158.549829 19.5417378,156.532105 L24.0374264,143.356536 L52.3189833,153.005937 L47.8232947,166.181506 C47.13563,168.198692 44.9416779,169.276536 42.9244923,168.588332" id="Fill-32" fill="#593131"></path>
                <path d="M50.4338336,154.970847 L36.9650911,153.376177 C36.4913785,153.320668 36.0343726,153.164919 35.6247917,152.91971 L23.9905402,145.948751 C23.4020372,145.596296 23.1401211,144.881147 23.3616181,144.231745 L24.4793426,140.955099 C24.7385642,140.195219 25.5652708,139.78941 26.325151,140.048632 L52.1917977,148.874021 C52.9522169,149.133243 53.3580252,149.959949 53.0988037,150.720368 L51.9810791,153.996476 C51.7595821,154.645338 51.1144923,155.051686 50.4338336,154.970847" id="Fill-33" fill="#754343"></path>
                <path d="M46.1564085,136.312284 C46.1564085,136.312284 48.0103007,141.417494 46.9755702,142.173063 C45.9408396,142.92971 44.0308995,140.104141 43.4343127,141.178751 C42.8371869,142.252823 44.7870073,144.281865 42.1209594,144.441386 C39.4554504,144.600368 37.0674863,142.570787 37.3461091,139.745757 C37.6247318,136.920728 39.9049115,135.162763 39.8989833,134.310728 L40.4497618,132.544141 L46.5778456,134.613063 L46.1564085,136.312284" id="Fill-34" fill="#FEB19E"></path>
                <g id="Group-37" transform="translate(39.163894, 99.378332)">
                    <mask id="mask-8" fill="white">
                        <use xlink:href="#path-7"></use>
                    </mask>
                    <g id="Clip-36"></g>
                    <path d="M7.65,37.1446707 L0.245748503,34.7761078 C0.245748503,34.7761078 0.335209581,33.3819162 0.691437126,31.2046707 C0.697904192,31.1346108 0.710838323,31.0650898 0.723233533,30.9950299 C1.57634731,25.8628743 3.88724551,16.657006 9.8148503,10.8258683 C13.7937126,6.91652695 18.6957485,4.38251497 22.8152695,2.79107784 C23.3752096,2.57443114 23.9162874,2.37071856 24.438503,2.19287425 C24.6928743,2.10341317 24.9477844,2.02095808 25.1897605,1.93796407 C26.1317964,1.62592814 27.0043114,1.37155689 27.7744311,1.16137725 C29.9392814,0.575568862 31.327006,0.359461078 31.327006,0.359461078 L32.3876048,3.85868263 L31.327006,0.359461078 C31.327006,0.359461078 29.9392814,0.575568862 27.7744311,1.16137725 C27.0043114,1.37155689 26.1317964,1.62592814 25.1897605,1.93796407 C24.9477844,2.02095808 24.6928743,2.10341317 24.438503,2.19287425 C25.1644311,7.8908982 26.7941317,12.4808982 28.2201198,15.6066467 L27.6790419,15.7408383 L24.3495808,16.5556886 L16.5885629,18.4591617 L9.23550898,33.8216766 L9.20964072,33.8782635 L7.65,37.1446707" id="Fill-35" fill="url(#linearGradient-9)" mask="url(#mask-8)"></path>
                </g>
                <g id="Group-40" transform="translate(63.415391, 99.378332)">
                    <mask id="mask-11" fill="white">
                        <use xlink:href="#path-10"></use>
                    </mask>
                    <g id="Clip-39"></g>
                    <path d="M3.96862275,15.6066467 C2.54263473,12.4808982 0.912934132,7.8908982 0.187005988,2.19287425 C0.441377246,2.10341317 0.696287425,2.02095808 0.938263473,1.93796407 C1.8802994,1.62592814 2.75281437,1.37155689 3.52293413,1.16137725 C5.68778443,0.575568862 7.07550898,0.359461078 7.07550898,0.359461078 L8.13610778,3.85868263 L8.73161677,14.4404192 L7.92215569,14.6392814 L3.96862275,15.6066467" id="Fill-38" fill="url(#linearGradient-12)" mask="url(#mask-11)"></path>
                </g>
                <path d="M39.8553306,130.583003 C39.4991031,132.760248 39.409642,134.15444 39.409642,134.15444 L46.8138935,136.523003 L48.3735342,133.256596 L48.3994025,133.200009 C44.3693426,132.537674 41.4467678,131.360129 39.8553306,130.583003" id="Fill-41" fill="#9EB2EF"></path>
                <path d="M161.083175,85.3658174 L154.304073,86.773482 C153.615331,86.9162964 152.941678,86.4743802 152.798325,85.7856377 L149.772816,71.2147994 C149.630001,70.5265958 150.071917,69.8524042 150.760121,69.7095898 L157.539223,68.3013862 C158.227965,68.1585718 158.902157,68.6010269 159.044971,69.2892305 L162.071019,83.8606078 C162.213834,84.5488114 161.771379,85.223003 161.083175,85.3658174" id="Fill-42" fill="#23406D"></path>
                <path d="M160.54048,82.3122844 L153.58569,83.7560569 L151.108265,71.8232425 C151.008564,71.3452185 151.31575,70.8774341 151.793774,70.7782724 L157.017546,69.6934221 C157.495031,69.5942605 157.962816,69.9014461 158.061977,70.3789311 L160.54048,82.3122844" id="Fill-43" fill="#A8AFBA"></path>
                <path d="M146.968804,84.647973 L148.679882,84.0540808 C148.679882,84.0540808 150.103175,84.8021048 152.37581,83.7495898 L150.996708,77.108991 C150.996708,77.108991 153.37551,75.4561168 153.33563,74.4612665 C153.295211,73.4664162 148.64054,73.7051587 146.769941,78.2412665 L144.701019,79.116476 L146.968804,84.647973" id="Fill-44" fill="#FEB19E"></path>
                <g id="Group-47" transform="translate(105.451319, 77.282524)">
                    <mask id="mask-14" fill="white">
                        <use xlink:href="#path-13"></use>
                    </mask>
                    <g id="Clip-46"></g>
                    <path d="M7.15526946,20.5523353 C7.06580838,20.5523353 6.97850299,20.5517964 6.88850299,20.5512575 C6.43688623,20.5512575 5.98473054,20.5388623 5.53311377,20.5194611 C5.67916168,17.5526946 5.55197605,14.3439521 5.02976048,10.9379641 C4.78778443,9.34005988 4.48221557,7.86934132 4.13191617,6.50047904 L2.83365269,6.43688623 L0.139041916,6.30646707 L2.83365269,6.43688623 L4.13191617,6.50047904 L4.90257485,6.53874251 L17.4573054,7.15634731 L36.4230539,1.12095808 L37.3171257,0.835329341 L39.1004192,0.266227545 L39.1349102,0.25491018 C39.1349102,0.25491018 42.528503,2.62994012 42.0251497,9.37832335 C42.0251497,9.37832335 41.1213772,9.99592814 39.4976048,10.9379641 C37.9498204,11.8390419 35.7494012,13.0370659 33.0542515,14.2808982 C32.558982,14.5094012 32.0459281,14.7400599 31.5177844,14.9701796 C25.117006,17.7623353 16.4047904,20.5523353 7.15526946,20.5523353" id="Fill-45" fill="url(#linearGradient-15)" mask="url(#mask-14)"></path>
                </g>
                <g id="Group-50" transform="translate(105.451319, 83.210668)">
                    <mask id="mask-17" fill="white">
                        <use xlink:href="#path-16"></use>
                    </mask>
                    <g id="Clip-49"></g>
                    <path d="M5.53311377,14.5913174 L5.53311377,14.5913174 C5.02329341,14.5724551 4.51401198,14.5471257 4.00526946,14.5088623 C2.6805988,14.4102395 1.35592814,14.2517964 0.0199401198,14.0281437 C0.783053892,10.8285629 1.1091018,5.44095808 0.139041916,0.378323353 L2.83365269,0.508742515 L4.13191617,0.572335329 C4.48221557,1.9411976 4.78778443,3.41191617 5.02976048,5.00982036 C5.55197605,8.41580838 5.67916168,11.6245509 5.53311377,14.5913174" id="Fill-48" fill="url(#linearGradient-18)" mask="url(#mask-17)"></path>
                </g>
                <path d="M144.586229,77.5374341 L141.874373,78.403482 C143.160241,80.8162365 144.758684,84.495997 144.948923,88.220488 C146.572696,87.2784521 147.476468,86.6608473 147.476468,86.6608473 C147.979822,79.9124641 144.586229,77.5374341 144.586229,77.5374341" id="Fill-51" fill="#9EB2EF"></path>
                <path d="M136.75084,139.60456 L136.75084,139.60456 C136.929223,140.022225 136.735211,140.505638 136.316468,140.684021 L127.654373,144.376716 L127.009283,142.862883 L135.671379,139.170189 C136.089582,138.991805 136.572995,139.186356 136.75084,139.60456" id="Fill-52" fill="#A1A7AF"></path>
                <path d="M126.647127,143.907853 C127.683474,146.338392 126.551738,149.139171 124.127127,150.172823 C121.702516,151.206476 118.898504,150.083362 117.862157,147.652823 C116.829043,145.228213 117.958085,142.421506 120.382696,141.387853 C122.807307,140.354201 125.613474,141.483243 126.647127,143.907853 Z M116.79078,148.109829 C118.079343,151.131566 121.57048,152.536536 124.586828,151.250668 C127.603175,149.964799 129.007067,146.473123 127.719043,143.450847 C126.433714,140.435039 122.941498,139.030608 119.925151,140.316476 C116.909882,141.602344 115.504911,145.093482 116.79078,148.109829 L116.79078,148.109829 Z" id="Fill-53" fill="#BAC1CC"></path>
                <path d="M128.001977,135.408512 L128.596408,137.198272 C128.596408,137.198272 128.750001,139.157793 128.663774,140.138632 C128.578085,141.118931 127.852157,142.7745 128.808744,143.010548 C129.764792,143.246057 129.559462,145.335997 131.624612,144.864979 C133.689762,144.393961 136.817666,142.509889 136.741139,140.831147 C136.664073,139.152943 134.200121,136.11935 134.200121,136.11935 L133.840121,134.528991 L128.001977,135.408512" id="Fill-54" fill="#FEB19E"></path>
                <g id="Group-57" transform="translate(104.373474, 99.378332)">
                    <mask id="mask-20" fill="white">
                        <use xlink:href="#path-19"></use>
                    </mask>
                    <g id="Clip-56"></g>
                    <path d="M23.0739521,37.1446707 L21.5143114,33.8782635 L21.488982,33.8216766 L14.1359281,18.4591617 L6.37491018,16.5556886 L3.0454491,15.7408383 L2.50383234,15.6066467 C3.93035928,12.4808982 5.56005988,7.8908982 6.28598802,2.19287425 C6.03107784,2.10341317 5.77670659,2.02095808 5.53473054,1.93796407 C4.59215569,1.62592814 3.72017964,1.37155689 2.95005988,1.16137725 C1.76766467,0.841257485 0.817005988,0.631616766 0.197784431,0.507125749 C0.817005988,0.631616766 1.76766467,0.841257485 2.95005988,1.16137725 C3.72017964,1.37155689 4.59215569,1.62592814 5.53473054,1.93796407 C5.77670659,2.02095808 6.03107784,2.10341317 6.28598802,2.19287425 C6.80820359,2.37071856 7.34928144,2.57443114 7.90976048,2.79107784 C12.0282036,4.38251497 16.9307784,6.91652695 20.9096407,10.8258683 C26.8367066,16.657006 29.1481437,25.8628743 30.0012575,30.9950299 C30.0136527,31.0650898 30.0265868,31.1346108 30.0330539,31.2046707 C30.3898204,33.3819162 30.4787425,34.7761078 30.4787425,34.7761078 L23.0739521,37.1446707" id="Fill-55" fill="url(#linearGradient-21)" mask="url(#mask-20)"></path>
                </g>
                <g id="Group-60" transform="translate(102.756708, 99.378332)">
                    <mask id="mask-23" fill="white">
                        <use xlink:href="#path-22"></use>
                    </mask>
                    <g id="Clip-59"></g>
                    <path d="M4.1205988,15.6066467 L4.1205988,15.6066467 L1.11449102,14.871018 L0.307185629,5.68131737 C0.307185629,5.68131737 0.181077844,4.74844311 1.8145509,0.507125749 C2.43377246,0.631616766 3.38443114,0.841257485 4.56682635,1.16137725 C5.33694611,1.37155689 6.20892216,1.62592814 7.15149701,1.93796407 C7.39347305,2.02095808 7.64784431,2.10341317 7.90275449,2.19287425 C7.17682635,7.8908982 5.54712575,12.4808982 4.1205988,15.6066467" id="Fill-58" fill="url(#linearGradient-24)" mask="url(#mask-23)"></path>
                </g>
                <path d="M125.862456,133.200009 L125.887786,133.256596 L127.447426,136.523003 L134.852217,134.15444 C134.852217,134.15444 134.763295,132.760248 134.406528,130.583003 C132.814552,131.360129 129.892516,132.537674 125.862456,133.200009" id="Fill-61" fill="#9EB2EF"></path>
                <path d="M61.9349714,36.2053383 C61.9349714,36.2053383 58.6610193,34.7691108 58.3904803,33.5673144 C58.1199414,32.3655179 57.6602408,29.6024641 56.7214384,29.4192305 C55.7820971,29.2354581 56.3253306,33.6896497 56.3253306,33.6896497 C56.3253306,33.6896497 56.0747318,29.457494 54.8125761,29.0139611 C53.5504205,28.5704281 54.6045522,34.247973 54.4735941,34.0566557 C54.342636,33.8647994 53.7401211,29.754979 53.0675462,29.8347395 C52.3944324,29.9145 52.1605402,34.0340209 53.1165881,36.0501287 C54.0731749,38.0662365 54.377127,39.8576138 54.377127,39.8576138 L60.3009594,40.2483323 L61.9349714,36.2053383" id="Fill-62" fill="#F49D8C"></path>
                <path d="M60.7024564,40.2246197 C60.7024564,40.2246197 63.5856899,38.4995299 64.4000013,34.4651587 C64.9464684,31.7581527 62.4140732,34.0647395 61.5873666,35.9870748 C61.5873666,35.9870748 57.271139,35.7305479 56.5295821,39.9368353 L60.7024564,40.2246197" id="Fill-63" fill="#FEB19E"></path>
                <g id="Group-66" transform="translate(51.559103, 39.557973)">
                    <mask id="mask-26" fill="white">
                        <use xlink:href="#path-25"></use>
                    </mask>
                    <g id="Clip-65"></g>
                    <path d="M14.6344311,39.5455689 L14.6344311,39.5455689 L14.545509,39.4760479 C14.468982,39.4119162 14.3924551,39.3547904 14.31,39.2911976 C10.6302395,36.3691617 5.93137725,31.804491 3.09179641,25.9022156 C-0.511437126,18.4025749 0.437065868,8.96766467 1.37317365,3.84898204 C1.79353293,1.55047904 2.20041916,0.124491018 2.20041916,0.124491018 L8.52790419,0.357844311 L9.89946108,0.408502994 L9.97437126,0.411197605 L10.0023952,0.687125749 L12.0497605,21.0131138 L23.4840719,28.6016766 L24.1965269,29.0732335 L25.4193413,29.8880838 L28.2012575,31.7338922 L25.4193413,29.8880838 L24.1965269,29.0732335 L23.4840719,28.6016766 C21.0519162,29.9646108 17.2891617,33.0138323 14.6344311,39.5455689" id="Fill-64" fill="url(#linearGradient-27)" mask="url(#mask-26)"></path>
                </g>
                <g id="Group-69" transform="translate(66.110001, 68.120847)">
                    <mask id="mask-29" fill="white">
                        <use xlink:href="#path-28"></use>
                    </mask>
                    <g id="Clip-68"></g>
                    <path d="M3.43508982,13.3749701 C2.54586826,12.7967066 1.38449102,11.9953293 0.0835329341,10.9826946 C2.73826347,4.45095808 6.50101796,1.40173653 8.93317365,0.0388023952 L9.64562874,0.510359281 L10.8684431,1.32520958 L13.6503593,3.17101796 L13.4213174,3.47874251 C11.3383832,4.23646707 9.67634731,5.19359281 8.45137725,6.08712575 C6.40724551,7.58101796 4.61532934,10.8167066 3.43508982,13.3749701" id="Fill-67" fill="url(#linearGradient-30)" mask="url(#mask-29)"></path>
                </g>
                <path d="M52.93066,43.4042605 C56.3873067,43.0846796 59.6008995,43.290009 61.8940133,43.5621647 L61.5345522,39.9675539 L53.7622169,39.6813862 C53.7622169,39.6813862 53.3494025,41.108991 52.93066,43.4042605" id="Fill-70" fill="#9EB2EF"></path>
                <path d="M63.931139,16.5864162 C63.931139,13.9613263 61.8029354,11.8336617 59.1778456,11.8336617 C56.5527558,11.8336617 54.4153905,13.9780329 54.4245228,16.6031227 C54.4288636,17.9067754 54.958624,19.086476 55.8122767,19.9422844 C56.4767678,20.6089311 56.9628755,21.4318653 57.208624,22.340488 L57.5917977,23.7583922 L60.7078456,23.7583922 L61.0705402,22.4153982 C61.3216779,21.4873742 61.8244923,20.6498892 62.5100013,19.9756976 C63.3868276,19.1139611 63.931139,17.9137814 63.931139,16.5864162" id="Fill-71" fill="#F4D242"></path>
                <path d="M58.0973067,18.637015 C57.9016779,18.637015 57.7426959,18.4780329 57.7426959,18.2824042 C57.7426959,18.0867754 57.9016779,17.9277934 58.0973067,17.9277934 C58.2923965,17.9277934 58.4519175,18.0867754 58.4519175,18.2824042 C58.4519175,18.4780329 58.2923965,18.637015 58.0973067,18.637015 Z M58.0973067,17.6637215 C57.756169,17.6637215 57.4780851,17.9412665 57.4780851,18.2824042 C57.4780851,18.6235419 57.756169,18.9010868 58.0973067,18.9010868 C58.2288037,18.9010868 58.351139,18.8595898 58.4519175,18.788991 L58.4519175,23.7583922 L58.7159893,23.7583922 L58.7159893,18.2824042 C58.7159893,17.9412665 58.4384444,17.6637215 58.0973067,17.6637215 L58.0973067,17.6637215 Z" id="Fill-72" fill="#FFFFFF"></path>
                <path d="M59.9371869,19.1759371 C59.7420971,19.1759371 59.5831151,19.0169551 59.5831151,18.8213263 C59.5831151,18.6256976 59.7420971,18.4667156 59.9371869,18.4667156 C60.1328157,18.4667156 60.2917977,18.6256976 60.2917977,18.8213263 C60.2917977,19.0169551 60.1328157,19.1759371 59.9371869,19.1759371 Z M59.9371869,18.2021048 C59.5960492,18.2021048 59.3185043,18.4801886 59.3185043,18.8213263 L59.2888636,23.7583922 L59.5529354,23.7583922 L59.5831151,19.3279132 C59.6833546,19.398512 59.8056899,19.440009 59.9371869,19.440009 C60.2783246,19.440009 60.5558696,19.1624641 60.5558696,18.8213263 C60.5558696,18.4801886 60.2783246,18.2021048 59.9371869,18.2021048 L59.9371869,18.2021048 Z" id="Fill-73" fill="#FFFFFF"></path>
                <path d="M59.1579055,25.5427635 L59.1579055,25.5427635 C58.2616779,25.5427635 57.534672,24.8162964 57.534672,23.9200688 L57.534672,23.5412066 L60.7806001,23.5412066 L60.7806001,23.9200688 C60.7806001,24.8162964 60.054133,25.5427635 59.1579055,25.5427635" id="Fill-74" fill="#383838"></path>
                <path d="M60.7892229,24.2935419 L57.5163486,24.2935419 C57.4473666,24.2935419 57.3913187,24.2380329 57.3913187,24.168512 C57.3913187,24.0995299 57.4473666,24.043482 57.5163486,24.043482 L60.7892229,24.043482 C60.8582049,24.043482 60.9142528,24.0995299 60.9142528,24.168512 C60.9142528,24.2380329 60.8582049,24.2935419 60.7892229,24.2935419" id="Fill-75" fill="#838689"></path>
                <path d="M60.8145522,24.8222245 L57.541139,24.8222245 C57.472157,24.8222245 57.416648,24.7667156 57.416648,24.6977335 C57.416648,24.6287515 57.472157,24.5727036 57.541139,24.5727036 L60.8145522,24.5727036 C60.8829953,24.5727036 60.9390432,24.6287515 60.9390432,24.6977335 C60.9390432,24.7667156 60.8829953,24.8222245 60.8145522,24.8222245" id="Fill-76" fill="#838689"></path>
                <path d="M53.408145,16.3762365 L52.1605402,16.3762365 C52.0285043,16.3762365 51.9207199,16.268991 51.9207199,16.1364162 C51.9207199,16.0038413 52.0285043,15.8965958 52.1605402,15.8965958 L53.408145,15.8965958 C53.5407199,15.8965958 53.6479654,16.0038413 53.6479654,16.1364162 C53.6479654,16.268991 53.5407199,16.3762365 53.408145,16.3762365" id="Fill-77" fill="#F4D242"></path>
                <path d="M53.7907797,14.1440209 L52.6843726,13.5662964 C52.5674264,13.5053982 52.5216181,13.3604281 52.5830552,13.2429431 C52.6444923,13.1254581 52.7894624,13.0801886 52.9064085,13.1410868 L54.0128157,13.7188114 C54.1303007,13.7797096 54.1755702,13.9246796 54.114133,14.0421647 C54.0526959,14.1601886 53.9077258,14.2054581 53.7907797,14.1440209" id="Fill-78" fill="#F4D242"></path>
                <path d="M53.8705402,18.0997096 L52.764672,18.6768952 C52.6471869,18.7383323 52.6019175,18.8833024 52.6628157,19.0002485 C52.7242528,19.1177335 52.8692229,19.1635419 52.9867079,19.1021048 L54.0925761,18.5249191 C54.2100612,18.463482 54.2553306,18.318512 54.1944324,18.2010269 C54.1329953,18.0835419 53.9880252,18.0382724 53.8705402,18.0997096" id="Fill-79" fill="#F4D242"></path>
                <path d="M55.1364684,12.2944401 L54.2542528,11.4122245 C54.1610193,11.3184521 54.1610193,11.166476 54.2542528,11.0727036 C54.3480252,10.97947 54.5000013,10.97947 54.5937737,11.0727036 L55.4759893,11.9549191 C55.5697618,12.0486916 55.5697618,12.2006676 55.4759893,12.2944401 C55.3822169,12.3876736 55.2302408,12.3876736 55.1364684,12.2944401" id="Fill-80" fill="#F4D242"></path>
                <path d="M56.6626959,11.1201287 L56.2320971,9.94958981 C56.1862887,9.82509879 56.2504205,9.68713472 56.3749115,9.64132633 C56.4988636,9.59551795 56.6368276,9.65911076 56.682636,9.78360178 L57.1126959,10.9546796 C57.1585043,11.0791706 57.0949115,11.2171347 56.9704205,11.2629431 C56.8464684,11.3082126 56.7085043,11.2446197 56.6626959,11.1201287" id="Fill-81" fill="#F4D242"></path>
                <path d="M64.9960492,16.2167156 L66.243654,16.2167156 C66.3762288,16.2167156 66.4834743,16.1089311 66.4834743,15.9768952 C66.4834743,15.8443203 66.3762288,15.7365359 66.243654,15.7365359 L64.9960492,15.7365359 C64.8634743,15.7365359 64.7562288,15.8443203 64.7562288,15.9768952 C64.7562288,16.1089311 64.8634743,16.2167156 64.9960492,16.2167156" id="Fill-82" fill="#F4D242"></path>
                <path d="M64.6139534,13.9839611 L65.7192827,13.4067754 C65.8373067,13.3453383 65.8825761,13.2003682 65.821139,13.0828832 C65.7602408,12.9653982 65.6152708,12.9201287 65.4972468,12.9810269 L64.3919175,13.5587515 C64.2744324,13.6201886 64.228624,13.7651587 64.2900612,13.8821048 C64.3514983,14.0001287 64.4964684,14.0453982 64.6139534,13.9839611" id="Fill-83" fill="#F4D242"></path>
                <path d="M64.533654,17.9396497 L65.6395223,18.5168353 C65.7570073,18.5782724 65.8028157,18.7232425 65.7413785,18.8407275 C65.6799414,18.9576736 65.5349714,19.003482 65.4174863,18.9420449 L64.3116181,18.3648593 C64.194133,18.3034221 64.1488636,18.1584521 64.2103007,18.0409671 C64.2711989,17.923482 64.416169,17.8782126 64.533654,17.9396497" id="Fill-84" fill="#F4D242"></path>
                <path d="M63.2677258,12.1343802 L64.1499414,11.2521647 C64.2437139,11.1583922 64.2437139,11.0064162 64.1499414,10.9131826 C64.056169,10.8194102 63.9041929,10.8194102 63.8104205,10.9131826 L62.9282049,11.7948593 C62.8344324,11.8886317 62.8344324,12.0406078 62.9282049,12.1343802 C63.0219773,12.2281527 63.1739534,12.2281527 63.2677258,12.1343802" id="Fill-85" fill="#F4D242"></path>
                <path d="M61.7420372,10.9600688 L62.1720971,9.78952993 C62.2179055,9.66503891 62.1543127,9.52707484 62.0298217,9.48126645 C61.9053306,9.43545807 61.7673666,9.49958981 61.7215582,9.62408082 L61.2914983,10.7946197 C61.2456899,10.9191108 61.3092827,11.0570748 61.4337737,11.1028832 C61.5582648,11.1486916 61.6962288,11.0850988 61.7420372,10.9600688" id="Fill-86" fill="#F4D242"></path>
                <path d="M58.9374863,10.5909072 L58.9374863,9.34330238 C58.9374863,9.21072753 59.0452708,9.10348202 59.1778456,9.10348202 C59.3104205,9.10348202 59.417666,9.21072753 59.417666,9.34330238 L59.417666,10.5909072 C59.417666,10.723482 59.3104205,10.8307275 59.1778456,10.8307275 C59.0452708,10.8307275 58.9374863,10.723482 58.9374863,10.5909072" id="Fill-87" fill="#F4D242"></path>
                <path d="M112.477786,36.0463563 C112.477786,36.0463563 115.751738,34.6095898 116.022277,33.4077934 C116.292816,32.2065359 116.753055,29.443482 117.691858,29.2602485 C118.63066,29.076476 118.087426,33.5301287 118.087426,33.5301287 C118.087426,33.5301287 118.338564,29.297973 119.600181,28.854979 C120.862337,28.4114461 119.808744,34.088991 119.939702,33.8971347 C120.07066,33.7058174 120.672636,29.595997 121.345211,29.6757575 C122.018325,29.7555179 122.252756,33.8750389 121.296169,35.8911467 C120.339582,37.9072545 120.036169,39.6986317 120.036169,39.6986317 L114.111798,40.0893503 L112.477786,36.0463563" id="Fill-88" fill="#F49D8C"></path>
                <path d="M113.710301,40.0656377 C113.710301,40.0656377 110.827606,38.340009 110.013295,34.3056377 C109.466289,31.5991706 111.998684,33.9052185 112.825929,35.8280928 C112.825929,35.8280928 117.141618,35.5715659 117.883175,39.7778533 L113.710301,40.0656377" id="Fill-89" fill="#FEB19E"></path>
                <g id="Group-92" transform="translate(94.672876, 39.557973)">
                    <mask id="mask-32" fill="white">
                        <use xlink:href="#path-31"></use>
                    </mask>
                    <g id="Clip-91"></g>
                    <path d="M13.3949102,39.5455689 C10.7407186,33.0138323 6.97796407,29.9646108 4.54634731,28.6016766 L3.83281437,29.0732335 L2.61053892,29.8880838 L0.264071856,31.4450299 L2.61053892,29.8880838 L3.83281437,29.0732335 L4.54634731,28.6016766 L15.9801198,21.0131138 L18.055509,0.411197605 L22.6169461,0.243053892 L25.8294611,0.124491018 C25.8294611,0.124491018 26.1231737,1.15383234 26.4691617,2.87299401 C26.5305988,3.17748503 26.5936527,3.50353293 26.6567066,3.84898204 C27.2516766,7.10461078 27.8520359,12.1058084 27.2834731,17.2449701 C26.9579641,20.1858683 26.2492814,23.1725749 24.9375449,25.9022156 C23.6775449,28.5219162 22.0510778,30.8775449 20.3098204,32.9437725 C18.1282635,35.5327545 15.7661677,37.6658084 13.7198802,39.2911976 C13.6374251,39.3547904 13.5608982,39.4119162 13.4843713,39.4760479 L13.3949102,39.5455689" id="Fill-90" fill="url(#linearGradient-33)" mask="url(#mask-32)"></path>
                </g>
                <g id="Group-95" transform="translate(94.672876, 68.120847)">
                    <mask id="mask-35" fill="white">
                        <use xlink:href="#path-34"></use>
                    </mask>
                    <g id="Clip-94"></g>
                    <path d="M10.3726347,13.1588623 C9.07491018,8.58287425 6.53173653,4.62934132 2.04413174,3.34347305 C1.44053892,3.17101796 0.846646707,3.01742515 0.264071856,2.88215569 L2.61053892,1.32520958 L3.83281437,0.510359281 L4.54634731,0.0388023952 C6.97796407,1.40173653 10.7407186,4.45095808 13.3949102,10.9826946 C12.2491617,11.8746108 11.2117365,12.6032335 10.3726347,13.1588623" id="Fill-93" fill="url(#linearGradient-36)" mask="url(#mask-35)"></path>
                </g>
                <path d="M112.727307,39.9675539 L112.367846,43.5621647 C114.660959,43.290009 117.874552,43.0846796 121.331199,43.4042605 C120.911917,41.108991 120.499642,39.6813862 120.499642,39.6813862 L112.727307,39.9675539" id="Fill-96" fill="#9EB2EF"></path>
                <path d="M119.042935,18.2021048 C119.042935,21.0373742 116.744432,23.3353383 113.909702,23.3353383 C111.07551,23.3353383 108.777007,21.0373742 108.777007,18.2021048 C108.777007,15.3673742 111.07551,13.0694102 113.909702,13.0694102 C116.744432,13.0694102 119.042935,15.3673742 119.042935,18.2021048" id="Fill-97" fill="#EFA245"></path>
                <path d="M113.909702,22.9974341 C113.413894,22.9974341 112.93587,22.921985 112.48587,22.7813263 C110.98551,22.3135419 109.798265,21.1273742 109.331019,19.627015 C109.190361,19.176476 109.114911,18.6984521 109.114911,18.2021048 C109.114911,18.0371946 109.122995,17.8739012 109.139702,17.7127635 C109.336408,15.7807275 110.684792,14.1844401 112.48587,13.6234221 C112.93587,13.4833024 113.413894,13.4073144 113.909702,13.4073144 C116.554193,13.4073144 118.705031,15.5586916 118.705031,18.2021048 C118.705031,20.8465958 116.554193,22.9974341 113.909702,22.9974341 Z M113.909702,12.4329431 C110.723594,12.4329431 108.14054,15.015997 108.14054,18.2021048 C108.14054,21.3887515 110.723594,23.9718054 113.909702,23.9718054 C117.096349,23.9718054 119.679402,21.3887515 119.679402,18.2021048 C119.679402,15.015997 117.096349,12.4329431 113.909702,12.4329431 L113.909702,12.4329431 Z" id="Fill-98" fill="#F4D242"></path>
                <path d="M114.296109,19.9573742 L114.296109,18.6186916 C114.953594,18.7318653 114.953594,19.1398293 114.953594,19.2880329 C114.953594,19.4362365 114.953594,19.8436617 114.296109,19.9573742 Z M112.866349,17.1167156 C112.866349,16.9690509 112.866349,16.5610868 113.523834,16.4473742 L113.523834,17.7865958 C112.866349,17.6728832 112.866349,17.2649191 112.866349,17.1167156 Z M114.296109,17.8394102 L114.296109,16.4473742 C114.953594,16.5610868 114.953594,16.9690509 114.953594,17.1167156 L115.72587,17.1167156 C115.72587,16.3050988 115.199343,15.7818054 114.296109,15.6686317 L114.296109,15.1119251 L113.523834,15.1119251 L113.523834,15.6686317 C112.6206,15.7818054 112.093534,16.3050988 112.093534,17.1167156 C112.093534,17.9288712 112.6206,18.4521647 113.523834,18.5653383 L113.523834,19.9573742 C112.866349,19.8436617 112.866349,19.4362365 112.866349,19.2880329 L112.093534,19.2880329 C112.093534,20.0996497 112.6206,20.6229431 113.523834,20.7361168 L113.523834,21.2928233 L114.296109,21.2928233 L114.296109,20.7361168 C115.199343,20.6229431 115.72587,20.0996497 115.72587,19.2880329 C115.72587,18.4758772 115.199343,17.9525838 114.296109,17.8394102 L114.296109,17.8394102 Z" id="Fill-99" fill="#F4D242"></path>
                <path d="M86.9253306,201.77947 L74.8286839,201.77947 C74.8286839,201.77947 71.3720372,159.123781 72.6007797,121.879949 L87.8803007,121.879949 L90.1232947,154.155997 C90.1232947,154.155997 87.2432947,185.385997 86.9253306,201.77947" id="Fill-100" fill="#1B3151"></path>
                <path d="M84.1234743,201.801566 C82.7670073,182.737195 86.6553306,143.064979 86.694672,142.666177 L87.3289833,142.728153 C87.2891031,143.126955 83.406169,182.745817 84.7588636,201.756835 L84.1234743,201.801566" id="Fill-101" fill="#23406D"></path>
                <g id="Group-104" transform="translate(63.954313, 201.773542)">
                    <mask id="mask-38" fill="white">
                        <use xlink:href="#path-37"></use>
                    </mask>
                    <g id="Clip-103"></g>
                    <path d="M22.652515,7.26952096 C22.658982,7.94479042 22.6142515,8.46700599 22.4935329,8.70844311 C21.9077246,9.87359281 2.17185629,9.60628743 1.00670659,9.55508982 C-0.0118562874,9.5108982 0.140658683,6.25742515 4.92844311,4.38628743 C5.62257485,4.11197605 6.41802395,3.87053892 7.32179641,3.66682635 C12.0971856,2.60299401 11.9376647,0.00592814371 11.9376647,0.00592814371 L21.8570659,0.031257485 C21.8570659,0.031257485 22.6207186,4.72958084 22.652515,7.26952096" id="Fill-102" fill="url(#linearGradient-39)" mask="url(#mask-38)"></path>
                </g>
                <path d="M86.6068276,209.043063 C86.6132947,209.718332 86.5685642,210.240548 86.4478456,210.481985 C85.8620372,211.647135 66.126169,211.379829 64.9610193,211.328632 C63.9424564,211.28444 64.0949714,208.030967 68.8827558,206.159829 C70.0479055,206.382404 71.3019773,207.292644 71.8047917,209.97971 C71.8047917,209.97971 82.0674863,210.093422 86.6068276,209.043063" id="Fill-105" fill="#9EB2EF"></path>
                <g id="Group-108" transform="translate(96.289642, 201.773542)">
                    <mask id="mask-41" fill="white">
                        <use xlink:href="#path-40"></use>
                    </mask>
                    <g id="Clip-107"></g>
                    <path d="M12.5234731,8.67718563 C11.0274251,9.33898204 5.90227545,9.54269461 2.8654491,9.19886228 C1.85928144,9.09053892 1.08323353,8.91215569 0.745868263,8.67718563 C-0.610598802,7.72167665 0.821856287,0.031257485 0.821856287,0.031257485 L8.14311377,0.031257485 C8.14311377,0.031257485 7.98413174,2.87083832 9.90053892,3.74928144 C10.5240719,4.0354491 11.2311377,4.56413174 11.8293413,5.18173653 L11.9376647,5.29598802 C12.3639521,5.7357485 12.5870659,6.08550898 12.5870659,6.08550898 C13.3259281,7.14233533 13.5544311,8.22502994 12.5234731,8.67718563" id="Fill-106" fill="url(#linearGradient-42)" mask="url(#mask-41)"></path>
                </g>
                <path d="M108.813115,210.450728 C107.317067,211.112524 102.191917,211.316237 99.1550911,210.972404 C98.837127,207.190787 101.943474,205.356835 104.509283,205.356835 C106.164313,205.356835 107.393594,206.242284 108.118983,206.955278 L108.227307,207.06953 C108.653594,207.50929 108.876708,207.859051 108.876708,207.859051 C109.61557,208.915877 109.844073,209.998572 108.813115,210.450728" id="Fill-109" fill="#9EB2EF"></path>
                <path d="M84.4414384,123.406716 L94.8835941,201.77947 L106.191259,201.77947 L103.796289,133.817075 C103.796289,133.817075 104.729163,128.008033 104.541618,121.879949 L84.4414384,123.406716" id="Fill-110" fill="#23406D"></path>
                <path d="M103.382397,201.78971 L102.745391,201.768692 C103.489642,179.86474 99.7058696,134.458931 99.668145,134.003003 C100.299762,127.097254 99.3156899,123.411027 99.3059893,123.373841 L99.9198217,123.205159 C99.9613187,123.357135 100.945929,127.025039 100.301917,134.005698 C100.341259,134.406117 104.127726,179.848572 103.382397,201.78971" id="Fill-111" fill="#38659B"></path>
                <g id="Group-114" transform="translate(58.565091, 89.138811)">
                    <mask id="mask-44" fill="white">
                        <use xlink:href="#path-43"></use>
                    </mask>
                    <g id="Clip-113"></g>
                    <path d="M10.8269461,15.2337126 C10.8269461,15.2337126 8.54461078,21.6 2.81479042,18.2576048 C-2.91502994,14.9152096 3.70401198,0.185928144 3.70401198,0.185928144 L10.8269461,15.2337126" id="Fill-112" fill="url(#linearGradient-45)" mask="url(#mask-44)"></path>
                </g>
                <path d="M64.7222767,86.1882126 C64.7222767,86.1882126 64.1650312,84.3181527 66.8709594,83.7609072 C69.5768875,83.2036617 70.7307199,84.9147395 71.4464085,86.5460569 L64.7222767,86.1882126" id="Fill-115" fill="#FEB19E"></path>
                <g id="Group-118" transform="translate(68.265690, 69.737614)">
                    <mask id="mask-47" fill="white">
                        <use xlink:href="#path-46"></use>
                    </mask>
                    <g id="Clip-117"></g>
                    <path d="M16.0846707,55.7498802 C11.3523952,55.7498802 6.93700599,54.8482635 4.33508982,52.1423353 L3.5708982,38.5690419 C4.3954491,38.4704192 6.19706587,38.2807186 7.75994012,38.2807186 C8.8151497,38.2807186 9.76203593,38.367485 10.2238922,38.6267066 C11.4526347,39.322994 16.7507784,47.1211976 23.6549102,47.1211976 C24.5128743,47.1211976 25.3961677,47.000479 26.2994012,46.731018 C34.4673054,44.2923952 34.7982036,35.3220359 34.7982036,35.3220359 L24.9671856,38.4079042 L26.1350299,31.8190419 C27.3508383,31.6320359 28.5461677,31.3814371 29.6951497,31.0537725 L27.9781437,21.4189222 L29.6951497,11.7301796 C29.6951497,11.7301796 28.7493413,15.369521 26.9886826,19.3009581 C25.6877246,19.6275449 22.2838922,20.3448503 17.5230539,20.3453892 C14.441497,20.3453892 10.792994,20.0446707 6.77532934,19.1430539 L6.77532934,30.6037725 L3.10634731,31.291976 L0.0630538922,16.642994 L2.05760479,16.7491617 L3.18287425,16.8084431 C2.93982036,16.2571257 2.64556886,15.694491 2.25754491,15.2132335 C1.78113772,14.6220359 1.16299401,14.1537126 0.324431138,13.9817964 C0.341137725,13.9397605 0.358383234,13.8966467 0.375628743,13.852994 C0.612215569,13.2655689 0.917245509,12.5434132 1.2794012,11.7582036 C2.45964072,9.19994012 4.25155689,5.9642515 6.29568862,4.47035928 C7.52065868,3.57682635 9.18269461,2.6197006 11.2656287,1.86197605 C13.5635928,1.02556886 16.3746108,0.431676647 19.6782036,0.431676647 C21.8069461,0.431676647 24.1383234,0.677964072 26.6712575,1.26538922 C27.2538323,1.40065868 27.8477246,1.5542515 28.4513174,1.72670659 C32.9389222,3.01257485 35.4820958,6.96610778 36.7798204,11.5420958 C36.8946108,11.9462874 36.9997006,12.3564072 37.0956287,12.7692216 C37.1786228,13.1276048 37.2551497,13.4886826 37.3246707,13.8513772 C38.2947305,18.914012 37.9686826,24.3016168 37.2055689,27.5011976 C37.0568263,28.1268862 36.8908383,28.6690419 36.7146108,29.1088024 C36.5669461,29.4752695 36.4311377,29.8212575 36.3055689,30.1478443 C34.6720958,34.3891617 34.7982036,35.3220359 34.7982036,35.3220359 L36.2753892,52.1423353 C36.2753892,52.1423353 25.5481437,55.7498802 16.0846707,55.7498802 M20.4165269,39.8360479 L11.9516766,31.8465269 C12.3526347,31.8923353 12.7702994,31.9365269 13.2035928,31.9785629 L24.03,38.7021557 L20.4165269,39.8360479" id="Fill-116" fill="url(#linearGradient-48)" mask="url(#mask-47)"></path>
                </g>
                <path d="M103.063894,105.05965 C103.063894,105.05965 102.732995,114.030009 94.5650911,116.468632 C86.396648,118.906716 79.8713785,109.147374 78.4895821,108.36432 C77.3438336,107.720847 73.2178456,108.141207 71.8365881,108.306656 L71.4485642,101.39929 L71.3720372,101.02959 L78.2605402,99.7377934 L88.6822169,109.573662 L103.063894,105.05965" id="Fill-119" fill="#3150BC"></path>
                <path d="M95.8380252,88.8806676 C95.8380252,88.8806676 87.0918576,91.5855179 75.0410193,88.8806676 L75.0410193,100.791386 C75.0410193,100.791386 88.1982648,103.576536 97.9608396,100.791386 L95.8380252,88.8806676" id="Fill-120" fill="#A9D0FF"></path>
                <g id="Group-123" transform="translate(81.199822, 101.534021)">
                    <mask id="mask-50" fill="white">
                        <use xlink:href="#path-49"></use>
                    </mask>
                    <g id="Clip-122"></g>
                    <path d="M11.0958683,6.9057485 L0.269461078,0.182155689 C2.12173653,0.361616766 4.25047904,0.495269461 6.48,0.495269461 C8.67718563,0.495269461 10.9719162,0.365389222 13.2008982,0.0226347305 L12.0330539,6.61149701 L11.0958683,6.9057485" id="Fill-121" fill="url(#linearGradient-51)" mask="url(#mask-50)"></path>
                </g>
                <polyline id="Fill-124" fill="#3150BC" points="93.0927558 108.9345 92.2956899 108.439769 93.2328755 108.145518 93.0927558 108.9345"></polyline>
                <g id="Group-127" transform="translate(95.211798, 81.054979)">
                    <mask id="mask-53" fill="white">
                        <use xlink:href="#path-52"></use>
                    </mask>
                    <g id="Clip-126"></g>
                    <path d="M1.03203593,10.1015569 L0.626227545,7.82568862 C0.626227545,7.82568862 0.425209581,7.88766467 0.0425748503,7.98359281 C1.80323353,4.05215569 2.74904192,0.412814371 2.74904192,0.412814371 L1.03203593,10.1015569" id="Fill-125" fill="url(#linearGradient-54)" mask="url(#mask-53)"></path>
                </g>
                <path d="M87.6798217,102.02929 C85.4503007,102.02929 83.3215582,101.895638 81.4692827,101.716177 L79.2208995,100.320368 L82.0092827,97.2237215 C83.378145,98.2412066 84.6710193,98.6793503 85.8852109,98.6788114 C89.9923366,98.6777335 93.1859893,93.6565958 95.2543726,89.0385718 C95.6370073,88.9426437 95.8380252,88.8806676 95.8380252,88.8806676 L96.2438336,91.1565359 L94.4007199,101.556656 C92.1717378,101.89941 89.8770073,102.02929 87.6798217,102.02929" id="Fill-128" fill="#7194DF"></path>
                <g id="Group-131" transform="translate(66.110001, 47.641805)">
                    <mask id="mask-56" fill="white">
                        <use xlink:href="#path-55"></use>
                    </mask>
                    <g id="Clip-130"></g>
                    <path d="M23.9319162,20.277485 C23.9319162,20.277485 27.0253293,15.667006 25.7108982,10.4146707 C24.3964671,5.16233533 21.4517964,6.35550898 21.4517964,6.35550898 C21.4517964,6.35550898 23.600479,2.93389222 19.9401198,1.26269461 C16.2792216,-0.408502994 13.7069461,0.944191617 16.2948503,1.89916168 C16.2948503,1.89916168 10.9471257,1.89916168 7.84347305,5.24155689 C4.73982036,8.5839521 2.51191617,5.16233533 1.63616766,5.87856287 C0.760958084,6.59479042 2.39173653,8.90838323 3.7848503,9.1411976 C3.7848503,9.1411976 0.44245509,8.42497006 0.203712575,9.1411976 C-0.0350299401,9.85742515 2.09802395,14.3886826 6.95263473,14.3094611 C6.95263473,14.3094611 6.33179641,17.2487425 11.2656287,20.277485 C16.1994611,23.3067665 23.9319162,20.277485 23.9319162,20.277485" id="Fill-129" fill="url(#linearGradient-57)" mask="url(#mask-56)"></path>
                </g>
                <path d="M91.8208995,72.0625239 C91.8208995,72.0625239 91.6360492,72.7566557 91.2415582,73.7116257 C90.3183845,75.9206676 88.2429953,79.5621647 84.576169,79.4220449 C83.3220971,79.3778533 82.907666,78.320488 82.7804803,76.977494 C82.596169,75.1376138 82.9270672,72.7625838 82.3477258,71.6615659 L88.2812588,64.0218054 L88.6822169,63.5060569 C88.6822169,63.5060569 89.6312588,67.6886317 91.8208995,72.0625239" id="Fill-132" fill="#FEB19E"></path>
                <path d="M91.2415582,73.7116257 C90.3183845,75.9206676 88.2429953,79.5621647 84.576169,79.4220449 C83.3220971,79.3778533 82.907666,78.320488 82.7804803,76.977494 C82.596169,75.1376138 82.9270672,72.7625838 82.3477258,71.6615659 L85.9132348,67.0710269 L88.6315582,66.128991 C88.6315582,66.128991 88.5571869,71.556476 84.2727558,74.963003 C84.2727558,74.963003 86.4629354,75.738512 89.3763486,72.8008473 C89.9831749,72.1891706 90.6180252,72.7372545 91.2415582,73.7116257" id="Fill-133" fill="#FF856A"></path>
                <path d="M90.3571869,68.753003 L90.7468276,69.7160569 C90.7468276,69.7160569 89.5116181,74.8077934 85.2142528,76.320009 L85.6206001,81.1746197 C85.6206001,81.1746197 91.9389235,78.1113862 93.0927558,71.4659371 C93.0927558,71.4659371 91.8403007,68.6646197 90.3571869,68.753003" id="Fill-134" fill="#23406D"></path>
                <path d="M83.5031749,76.1012066 L82.9788037,81.1094102 C82.9788037,81.1094102 79.2085043,78.396476 80.4604205,72.8024641 C80.4604205,72.8024641 81.8907199,73.6814461 82.9588636,73.4825838 C82.9588636,73.4825838 82.4291031,74.4698892 83.5031749,76.1012066" id="Fill-135" fill="#23406D"></path>
                <path d="M74.5635342,61.5578533 C75.6909594,66.3521048 77.022636,70.9561168 80.9901809,73.1155778 C82.0125163,73.6722844 83.2385642,73.6426437 84.229642,73.031506 C86.1552109,71.8437215 89.0837139,69.1221647 88.6849115,63.6801287 C88.6849115,63.6801287 90.0020372,64.1576138 90.2149115,61.5578533 C90.4267079,58.9580928 89.5331749,58.5075539 88.5695821,58.7193503 C87.6059893,58.9316856 87.6943726,62.4066557 87.6943726,62.4066557 C87.6943726,62.4066557 84.299163,61.6769551 83.5430552,57.1408473 C83.5430552,57.1408473 82.1106001,59.1704281 80.8770073,59.6877934 C79.6434145,60.2051587 80.1208995,57.8969551 80.1208995,57.8969551 C80.1208995,57.8969551 79.2322169,61.19947 74.5635342,61.5578533" id="Fill-136" fill="#FEB19E"></path>
                <path d="M75.8267678,104.499171 L65.5074863,105.231027 C64.6743127,105.290308 63.9510791,104.663003 63.8923366,103.829829 L62.7433546,87.6384521 C62.6846121,86.8052784 63.3119175,86.0825838 64.1450911,86.0233024 L74.4643726,85.2914461 C75.2970073,85.2321647 76.0202408,85.85947 76.0795223,86.6926437 L77.2279654,102.884021 C77.2872468,103.716656 76.6599414,104.440428 75.8267678,104.499171" id="Fill-137" fill="#BAC1CC"></path>
                <path d="M75.2334145,104.499171 L64.9135941,105.231027 C64.0804205,105.290308 63.3577258,104.663003 63.2984444,103.829829 L62.1494624,87.6384521 C62.0907199,86.8052784 62.7180252,86.0825838 63.55066,86.0233024 L73.8704803,85.2914461 C74.703654,85.2321647 75.4268875,85.85947 75.48563,86.6926437 L76.6346121,102.884021 C76.6933546,103.716656 76.0660492,104.440428 75.2334145,104.499171" id="Fill-138" fill="#E1E7F4"></path>
                <path d="M70.3195223,95.2372545 C70.3998217,96.3684521 69.8371869,97.3293503 69.0622169,97.3843203 C68.2877857,97.4392904 67.5947318,96.5673144 67.5144324,95.4366557 C67.434672,94.305997 67.9973067,93.3450988 68.7717378,93.2901287 C69.546169,93.2351587 70.2392229,94.1071347 70.3195223,95.2372545" id="Fill-139" fill="#F8FBFF"></path>
                <path d="M80.2254504,96.4724641 C80.2254504,96.4724641 79.5647318,92.3109072 76.4670073,92.1540808 L76.4670073,93.827973 C76.4670073,93.827973 74.4433546,94.3054581 73.2097618,92.9123443 C71.976169,91.5197694 70.6633546,90.4618653 70.9818576,94.3135419 C71.2998217,98.1652185 74.0057498,100.035278 76.9105402,99.8364162 L78.0244923,100.791386 L81.2084444,97.560009 L80.2254504,96.4724641" id="Fill-140" fill="#FEB19E"></path>
                <g id="Group-143" transform="translate(76.349522, 79.977135)">
                    <mask id="mask-59" fill="white">
                        <use xlink:href="#path-58"></use>
                    </mask>
                    <g id="Clip-142"></g>
                    <path d="M19.5968263,33.6265868 C12.1354491,36.5038922 5.36173653,28.4507784 2.26778443,23.9302994 C1.13389222,22.2817365 0.49742515,21.1036527 0.49742515,21.1036527 L5.05616766,16.7556287 L7.60904192,18.831018 L15.4713772,25.2420359 C15.4713772,25.2420359 16.8337725,18.9835329 18.0053892,11.6622754 C19.17,4.34101796 21.0869461,-0.281317365 25.1105389,0.310958084 C33.0682635,1.47610778 29.7835329,29.6983832 19.5968263,33.6265868" id="Fill-141" fill="url(#linearGradient-60)" mask="url(#mask-59)"></path>
                </g>
                <path d="M83.9585642,98.8081527 C83.1690432,100.062225 81.5517378,102.112284 78.6173067,103.907434 C77.4834145,102.258871 76.8469474,101.080787 76.8469474,101.080787 L81.4056899,96.7327635 L83.9585642,98.8081527" id="Fill-144" fill="#9EB2EF"></path>
            </g>
        </g>
    </g>
</svg>