<svg xmlns="http://www.w3.org/2000/svg" width="126.993" height="40" viewBox="0 0 126.993 40"><defs><style>.a{fill:#42275e;}.b{fill:#fd3266;}</style></defs><g transform="translate(-75 -23)"><g transform="translate(56.1 12.024)"><g transform="translate(18.9 11.13)"><g transform="translate(0 0)"><path class="a" d="M21.881,45.808A7.129,7.129,0,0,1,19.2,43.181a1.733,1.733,0,0,1-.3-.922,1.451,1.451,0,0,1,.518-1.112,1.606,1.606,0,0,1,1.061-.467,2.2,2.2,0,0,1,1.541.859,4.109,4.109,0,0,0,3.588,1.983,4.394,4.394,0,0,0,3.184-1.263,4.159,4.159,0,0,0,1.3-3.108V24.142a1.535,1.535,0,0,1,.518-1.162,1.723,1.723,0,0,1,1.2-.48,1.6,1.6,0,0,1,1.68,1.642V39.151a7.425,7.425,0,0,1-1.023,3.828,7.591,7.591,0,0,1-2.817,2.767,7.985,7.985,0,0,1-4.017,1.023A7.5,7.5,0,0,1,21.881,45.808Z" transform="translate(-18.9 -21.199)"/><path class="a" d="M184.077,67.444a1.647,1.647,0,0,1,.467,1.213V83.489a1.581,1.581,0,0,1-.467,1.162,1.561,1.561,0,0,1-1.175.48,1.5,1.5,0,0,1-1.162-.467,1.632,1.632,0,0,1-.442-1.175V82.6a7.336,7.336,0,0,1-2.426,2.034,6.85,6.85,0,0,1-3.31.834,7.749,7.749,0,0,1-4.22-1.2,8.112,8.112,0,0,1-2.969-3.335,11.268,11.268,0,0,1,0-9.6A8.263,8.263,0,0,1,171.33,68a7.761,7.761,0,0,1,7.492-.442,7.086,7.086,0,0,1,2.476,1.908v-.821a1.738,1.738,0,0,1,.442-1.2,1.514,1.514,0,0,1,1.162-.48A1.581,1.581,0,0,1,184.077,67.444Zm-5.306,14.2a5.5,5.5,0,0,0,1.946-2.261,7.845,7.845,0,0,0,0-6.456,5.616,5.616,0,0,0-1.946-2.274,5.019,5.019,0,0,0-2.855-.834,5.108,5.108,0,0,0-2.855.821,5.5,5.5,0,0,0-1.946,2.261,7.933,7.933,0,0,0,0,6.493,5.579,5.579,0,0,0,1.946,2.261,5.108,5.108,0,0,0,2.855.821A5.22,5.22,0,0,0,178.771,81.644Z" transform="translate(-148.552 -59.902)"/><path class="a" d="M368.242,75.141v9.121a1.632,1.632,0,0,1-.442,1.175,1.678,1.678,0,0,1-2.337-.013A1.633,1.633,0,0,1,365,84.262v-9.1q0-4.472-3.765-4.472a4.983,4.983,0,0,0-2.413.594,4.355,4.355,0,0,0-2.274,3.891v9.1a1.581,1.581,0,0,1-.467,1.162,1.561,1.561,0,0,1-1.175.48,1.5,1.5,0,0,1-1.162-.467,1.632,1.632,0,0,1-.442-1.175V75.154a5.537,5.537,0,0,0-.859-3.234,3.23,3.23,0,0,0-2.843-1.213,4.636,4.636,0,0,0-3.335,1.276,4.262,4.262,0,0,0-1.314,3.158v9.121a1.581,1.581,0,0,1-.467,1.162,1.561,1.561,0,0,1-1.175.48,1.5,1.5,0,0,1-1.162-.467,1.632,1.632,0,0,1-.442-1.175V69.646a1.581,1.581,0,0,1,.467-1.162,1.544,1.544,0,0,1,1.15-.48,1.561,1.561,0,0,1,1.175.48,1.633,1.633,0,0,1,.467,1.162v1.2a7.618,7.618,0,0,1,2.375-2.236,6.075,6.075,0,0,1,3.234-.91q4.245,0,5.508,3.765a7.431,7.431,0,0,1,2.489-2.6,6.563,6.563,0,0,1,3.689-1.162Q368.242,67.7,368.242,75.141Z" transform="translate(-300.92 -60.689)"/><path class="a" d="M579.7,81.579a1.379,1.379,0,0,1,.72-1.162,1.307,1.307,0,0,1,.783-.24,1.579,1.579,0,0,1,1.124.518,7.348,7.348,0,0,0,2.2,1.743,6.265,6.265,0,0,0,2.817.581,4.908,4.908,0,0,0,2.287-.594,1.951,1.951,0,0,0,.985-1.832,1.989,1.989,0,0,0-1.011-1.781,11.6,11.6,0,0,0-2.956-1.124,21.591,21.591,0,0,1-3.184-1.074,5.678,5.678,0,0,1-2.135-1.642,4.339,4.339,0,0,1-.872-2.817,4.408,4.408,0,0,1,.872-2.7,5.761,5.761,0,0,1,2.325-1.807A7.717,7.717,0,0,1,586.813,67a8.932,8.932,0,0,1,3.259.619,6.043,6.043,0,0,1,2.653,1.882,1.351,1.351,0,0,1-.139,2.047,1.253,1.253,0,0,1-.859.3,1.285,1.285,0,0,1-.985-.4,4.781,4.781,0,0,0-1.756-1.263,5.937,5.937,0,0,0-2.312-.442,4.308,4.308,0,0,0-2.211.531,1.9,1.9,0,0,0-.91,1.794,1.991,1.991,0,0,0,1.049,1.781,13.15,13.15,0,0,0,3.1,1.124,18.347,18.347,0,0,1,3.007,1.023,5.355,5.355,0,0,1,2.021,1.63,4.549,4.549,0,0,1,.821,2.817,4.335,4.335,0,0,1-.922,2.779,5.914,5.914,0,0,1-2.413,1.807,8.056,8.056,0,0,1-3.158.632,10.245,10.245,0,0,1-3.979-.758,7.494,7.494,0,0,1-3.1-2.388A2.019,2.019,0,0,1,579.7,81.579Z" transform="translate(-508.853 -60.077)"/><path class="a" d="M715.154,15.75a2.646,2.646,0,0,0-.531,1.68v2.388h3.386a1.5,1.5,0,0,1,1.112.43,1.447,1.447,0,0,1,.43,1.074,1.4,1.4,0,0,1-.43,1.061,1.528,1.528,0,0,1-1.112.4h-3.386V35.774a1.582,1.582,0,0,1-.467,1.162,1.647,1.647,0,0,1-2.325,0,1.632,1.632,0,0,1-.467-1.162V22.8h-2.122a1.617,1.617,0,0,1-1.1-.4,1.41,1.41,0,0,1-.442-1.061,1.438,1.438,0,0,1,.442-1.074,1.485,1.485,0,0,1,1.1-.43h2.122v-2.4a4.959,4.959,0,0,1,1.541-3.815,6.166,6.166,0,0,1,4.346-1.415,4.6,4.6,0,0,1,2.047.43,1.361,1.361,0,0,1,.884,1.276,1.5,1.5,0,0,1-.392,1.074,1.228,1.228,0,0,1-.935.43,6.364,6.364,0,0,1-.758-.139,4.964,4.964,0,0,0-1.3-.2A1.962,1.962,0,0,0,715.154,15.75Z" transform="translate(-620.682 -12.2)"/></g></g><g transform="translate(60.249 43.623)"><g transform="translate(0)"><path d="M347.135,276.558a2.729,2.729,0,0,1-.846-.594.227.227,0,0,1-.088-.189.249.249,0,0,1,.076-.177.222.222,0,0,1,.164-.076.25.25,0,0,1,.177.076,1.959,1.959,0,0,0,1.529.67,1.572,1.572,0,0,0,.935-.265.869.869,0,0,0,.177-1.251,1.425,1.425,0,0,0-.48-.366c-.2-.088-.455-.189-.758-.291a5.663,5.663,0,0,1-.846-.328,1.583,1.583,0,0,1-.556-.48,1.309,1.309,0,0,1-.215-.758,1.23,1.23,0,0,1,.227-.733,1.5,1.5,0,0,1,.632-.505,2.167,2.167,0,0,1,.935-.189,2.358,2.358,0,0,1,.9.164,1.617,1.617,0,0,1,.67.455.382.382,0,0,1,.114.227.222.222,0,0,1-.076.164.249.249,0,0,1-.177.076.19.19,0,0,1-.139-.051,1.491,1.491,0,0,0-.568-.4,1.857,1.857,0,0,0-.733-.152,1.634,1.634,0,0,0-.935.253.86.86,0,0,0-.025,1.39,3.291,3.291,0,0,0,.985.442,7.047,7.047,0,0,1,.91.341,1.466,1.466,0,0,1,.581.493,1.414,1.414,0,0,1,.227.834,1.22,1.22,0,0,1-.227.72,1.564,1.564,0,0,1-.644.518,2.207,2.207,0,0,1-.935.189A2.74,2.74,0,0,1,347.135,276.558Z" transform="translate(-346.2 -270.885)"/><path d="M409,282.941a1.25,1.25,0,0,1,.505.227.391.391,0,0,1,.19.3.209.209,0,0,1-.063.152.175.175,0,0,1-.139.076.316.316,0,0,1-.126-.025.692.692,0,0,1-.114-.088,1.055,1.055,0,0,0-.2-.152,1.213,1.213,0,0,0-.316-.088,2.13,2.13,0,0,0-.417-.038,1.495,1.495,0,0,0-1.339.809,1.847,1.847,0,0,0,0,1.68,1.539,1.539,0,0,0,.543.594,1.725,1.725,0,0,0,1.251.164,1.072,1.072,0,0,0,.328-.139,1.609,1.609,0,0,0,.189-.139.694.694,0,0,1,.114-.088.238.238,0,0,1,.1-.025.209.209,0,0,1,.152.063.2.2,0,0,1,.051.152.413.413,0,0,1-.19.291,1.8,1.8,0,0,1-.518.265,2.229,2.229,0,0,1-.733.114,1.993,1.993,0,0,1-1.023-.265,1.8,1.8,0,0,1-.695-.745,2.321,2.321,0,0,1-.253-1.074,2.255,2.255,0,0,1,.253-1.049,1.943,1.943,0,0,1,.707-.758,1.913,1.913,0,0,1,1.049-.278A2.412,2.412,0,0,1,409,282.941Z" transform="translate(-398.707 -281.172)"/><path d="M466.889,282.789a.22.22,0,0,1,.063.177v3.525a.24.24,0,0,1-.063.164.209.209,0,0,1-.164.063.24.24,0,0,1-.164-.063.209.209,0,0,1-.063-.164v-.531a1.707,1.707,0,0,1-1.453.834,1.637,1.637,0,0,1-.948-.278,1.757,1.757,0,0,1-.657-.758,2.522,2.522,0,0,1,0-2.148,1.889,1.889,0,0,1,.657-.745,1.715,1.715,0,0,1,.935-.265,1.648,1.648,0,0,1,.859.227,1.576,1.576,0,0,1,.594.594v-.48a.3.3,0,0,1,.063-.177.222.222,0,0,1,.164-.076A.407.407,0,0,1,466.889,282.789Zm-1.074,3.348a1.373,1.373,0,0,0,.505-.594,1.891,1.891,0,0,0,.19-.846,1.838,1.838,0,0,0-.19-.834,1.55,1.55,0,0,0-.505-.594,1.345,1.345,0,0,0-.733-.215,1.314,1.314,0,0,0-.733.215,1.413,1.413,0,0,0-.505.581,1.854,1.854,0,0,0-.19.846,2.027,2.027,0,0,0,.177.846,1.462,1.462,0,0,0,.505.594,1.356,1.356,0,0,0,.745.215A1.221,1.221,0,0,0,465.815,286.137Z" transform="translate(-448.419 -280.932)"/><path d="M528.292,275.123a.209.209,0,0,1-.164.063.24.24,0,0,1-.164-.063.209.209,0,0,1-.063-.164v-5.331a.24.24,0,0,1,.063-.164.209.209,0,0,1,.164-.063.24.24,0,0,1,.164.063.209.209,0,0,1,.063.164v5.331A.174.174,0,0,1,528.292,275.123Z" transform="translate(-504.945 -269.4)"/><path d="M565.788,274.181a.26.26,0,0,1-.088-.215v-.076a.26.26,0,0,1,.088-.215.377.377,0,0,1,.253-.076c.215,0,.316.1.316.291v.076a.26.26,0,0,1-.088.215.418.418,0,0,1-.48,0Zm.4,4.611a.209.209,0,0,1-.164.063.24.24,0,0,1-.164-.063.209.209,0,0,1-.063-.164v-3.6a.24.24,0,0,1,.063-.164.209.209,0,0,1,.164-.063.24.24,0,0,1,.164.063.209.209,0,0,1,.063.164v3.6A.174.174,0,0,1,566.193,278.792Z" transform="translate(-537.97 -273.069)"/><path d="M607.744,283.13a1.767,1.767,0,0,1,.341,1.137v2.3a.2.2,0,0,1-.076.164.209.209,0,0,1-.164.063.24.24,0,0,1-.164-.063.209.209,0,0,1-.063-.164v-2.287a1.274,1.274,0,0,0-.253-.821.925.925,0,0,0-.783-.316,1.421,1.421,0,0,0-.644.152,1.32,1.32,0,0,0-.493.417.96.96,0,0,0-.189.568v2.287a.24.24,0,0,1-.063.164.209.209,0,0,1-.164.063.24.24,0,0,1-.164-.063.209.209,0,0,1-.063-.164v-3.512a.24.24,0,0,1,.063-.164.209.209,0,0,1,.164-.063.24.24,0,0,1,.164.063.209.209,0,0,1,.063.164v.43a1.525,1.525,0,0,1,.606-.556,1.739,1.739,0,0,1,.809-.227A1.347,1.347,0,0,1,607.744,283.13Z" transform="translate(-572.13 -281.02)"/><path d="M667.115,283.039a.22.22,0,0,1,.063.177v3.4a2.111,2.111,0,0,1-.253,1.049,1.658,1.658,0,0,1-.695.657,2.166,2.166,0,0,1-1.011.227,2.449,2.449,0,0,1-.581-.076,2.251,2.251,0,0,1-.518-.177.5.5,0,0,1-.253-.227.162.162,0,0,1-.051-.126.154.154,0,0,1,.076-.126.18.18,0,0,1,.076-.025.545.545,0,0,1,.177.051l.164.076a2.55,2.55,0,0,0,.91.19,1.482,1.482,0,0,0,1.1-.392,1.441,1.441,0,0,0,.392-1.074v-.48a1.416,1.416,0,0,1-.619.657,1.726,1.726,0,0,1-.884.24,1.813,1.813,0,0,1-.973-.265,1.854,1.854,0,0,1-.682-.745,2.321,2.321,0,0,1-.253-1.074,2.269,2.269,0,0,1,.253-1.061,1.854,1.854,0,0,1,.682-.745,1.813,1.813,0,0,1,.973-.265,1.762,1.762,0,0,1,.91.253,1.611,1.611,0,0,1,.606.594v-.505a.3.3,0,0,1,.063-.177.222.222,0,0,1,.164-.076A.2.2,0,0,1,667.115,283.039Zm-1.1,3.373a1.354,1.354,0,0,0,.531-.594,2.042,2.042,0,0,0,0-1.718,1.393,1.393,0,0,0-.531-.581,1.434,1.434,0,0,0-.771-.2,1.4,1.4,0,0,0-.758.215,1.427,1.427,0,0,0-.531.594,1.957,1.957,0,0,0,0,1.68,1.508,1.508,0,0,0,.531.594,1.431,1.431,0,0,0,.758.215A1.464,1.464,0,0,0,666.016,286.412Z" transform="translate(-623.24 -281.194)"/><path d="M771.717,277.207a.229.229,0,0,1-.177.076.274.274,0,0,1-.177-.063.22.22,0,0,1-.063-.177v-5a.229.229,0,0,1,.076-.177.22.22,0,0,1,.177-.063.25.25,0,0,1,.177.076.229.229,0,0,1,.076.177v5A.27.27,0,0,1,771.717,277.207Z" transform="translate(-717.596 -271.497)"/><path d="M812.464,269.451a.209.209,0,0,1,.063.164v5.331a.24.24,0,0,1-.063.164.209.209,0,0,1-.164.063.24.24,0,0,1-.164-.063.209.209,0,0,1-.063-.164V274.4a1.662,1.662,0,0,1-.581.606,1.557,1.557,0,0,1-.859.253A1.715,1.715,0,0,1,809.7,275a1.8,1.8,0,0,1-.657-.745,2.313,2.313,0,0,1-.24-1.074,2.261,2.261,0,0,1,.24-1.061,1.889,1.889,0,0,1,.657-.745,1.759,1.759,0,0,1,1.794-.038,1.575,1.575,0,0,1,.594.594v-2.3a.217.217,0,0,1,.227-.227A.221.221,0,0,1,812.464,269.451Zm-1.061,5.167a1.373,1.373,0,0,0,.505-.594,1.892,1.892,0,0,0,.19-.846,1.8,1.8,0,0,0-.19-.834,1.648,1.648,0,0,0-.505-.594,1.345,1.345,0,0,0-.733-.215,1.314,1.314,0,0,0-.733.215,1.372,1.372,0,0,0-.505.594,1.957,1.957,0,0,0,0,1.68,1.55,1.55,0,0,0,.505.594,1.314,1.314,0,0,0,.733.215A1.5,1.5,0,0,0,811.4,274.618Z" transform="translate(-750.358 -269.4)"/><path d="M874.288,285a.209.209,0,0,1-.164.063h-2.969a1.853,1.853,0,0,0,.189.846,1.539,1.539,0,0,0,.543.594,1.652,1.652,0,0,0,.846.215,1.414,1.414,0,0,0,.67-.152,1.491,1.491,0,0,0,.48-.4.272.272,0,0,1,.164-.076.217.217,0,0,1,.2.2.222.222,0,0,1-.076.164,2.1,2.1,0,0,1-.632.505,1.782,1.782,0,0,1-.809.2,2.2,2.2,0,0,1-1.061-.253,1.968,1.968,0,0,1-.72-.72,2.11,2.11,0,0,1-.253-1.074,2.42,2.42,0,0,1,.253-1.124,1.791,1.791,0,0,1,1.579-.985,1.945,1.945,0,0,1,.884.215,1.817,1.817,0,0,1,.67.644,1.84,1.84,0,0,1,.265,1C874.364,284.895,874.338,284.946,874.288,285Zm-2.59-1.263a1.433,1.433,0,0,0-.493.9h2.678v-.063a1.164,1.164,0,0,0-.24-.619,1.289,1.289,0,0,0-.493-.4,1.512,1.512,0,0,0-.606-.139A1.571,1.571,0,0,0,871.7,283.733Z" transform="translate(-804.438 -281.282)"/><path d="M933.989,282.789a.22.22,0,0,1,.063.177v3.525a.24.24,0,0,1-.063.164.209.209,0,0,1-.164.063.24.24,0,0,1-.164-.063.209.209,0,0,1-.063-.164v-.531a1.707,1.707,0,0,1-1.453.834,1.637,1.637,0,0,1-.947-.278,1.758,1.758,0,0,1-.657-.758,2.522,2.522,0,0,1,0-2.148,1.889,1.889,0,0,1,.657-.745,1.715,1.715,0,0,1,.935-.265,1.648,1.648,0,0,1,.859.227,1.671,1.671,0,0,1,.594.594v-.48a.3.3,0,0,1,.063-.177.2.2,0,0,1,.164-.076A.256.256,0,0,1,933.989,282.789Zm-1.061,3.348a1.374,1.374,0,0,0,.505-.594,1.892,1.892,0,0,0,.189-.846,1.839,1.839,0,0,0-.189-.834,1.55,1.55,0,0,0-.505-.594,1.344,1.344,0,0,0-.733-.215,1.314,1.314,0,0,0-.733.215,1.414,1.414,0,0,0-.505.581,1.854,1.854,0,0,0-.189.846,2.027,2.027,0,0,0,.177.846,1.462,1.462,0,0,0,.505.594,1.356,1.356,0,0,0,.745.215A1.247,1.247,0,0,0,932.928,286.137Z" transform="translate(-856.509 -280.932)"/><path d="M992.3,286a.164.164,0,0,1,.1-.152.193.193,0,0,1,.126-.051.25.25,0,0,1,.177.076,1.463,1.463,0,0,0,1.225.606,1.245,1.245,0,0,0,.657-.177.614.614,0,0,0,.025-1.011,2.447,2.447,0,0,0-.72-.278,3.237,3.237,0,0,1-1.023-.43.9.9,0,0,1-.366-.771,1.049,1.049,0,0,1,.177-.581,1.176,1.176,0,0,1,.493-.392,1.766,1.766,0,0,1,.707-.139,1.861,1.861,0,0,1,.682.126,1.456,1.456,0,0,1,.581.417.18.18,0,0,1,.076.152.222.222,0,0,1-.076.164.265.265,0,0,1-.139.051.2.2,0,0,1-.139-.063,1.191,1.191,0,0,0-.442-.316,1.367,1.367,0,0,0-.556-.114,1.156,1.156,0,0,0-.632.177.579.579,0,0,0-.265.518.554.554,0,0,0,.291.48,2.758,2.758,0,0,0,.8.3,2.937,2.937,0,0,1,.67.227,1.082,1.082,0,0,1,.43.354.985.985,0,0,1,.164.606.966.966,0,0,1-.4.809,1.654,1.654,0,0,1-1.011.3,1.841,1.841,0,0,1-1.516-.707A.345.345,0,0,1,992.3,286Z" transform="translate(-910.677 -281.02)"/></g></g><g transform="translate(121.337 10.976)"><path class="b" d="M903.614,11.762a1.833,1.833,0,0,0-3.007,2.1l7.428,10.625a1.835,1.835,0,0,0,1.5.783,1.87,1.87,0,0,0,1.049-.328,1.83,1.83,0,0,0,.455-2.552Z" transform="translate(-891.366 -10.976)"/><path class="b" d="M833.093,18a1.834,1.834,0,0,0-3.019,2.084l10.132,14.655a1.362,1.362,0,0,1,.24.72l-.025,4.978a1.835,1.835,0,0,0,1.832,1.756h.088a1.846,1.846,0,0,0,1.756-1.92l.025-4.978a5.02,5.02,0,0,0-.9-2.653Z" transform="translate(-829.752 -16.421)"/><path class="b" d="M980.961,15.382l-2.527-3.6a1.831,1.831,0,1,0-2.994,2.11l2.527,3.6a1.835,1.835,0,0,0,1.5.783,1.87,1.87,0,0,0,1.049-.328A1.852,1.852,0,0,0,980.961,15.382Z" transform="translate(-956.737 -10.996)"/></g></g></g></svg>